999
"DXF R12 Output" (www.mydxf.blogspot.com)
 0 
SECTION
 2 
HEADER
 9 
$ACADVER
 1 
AC1009
 9 
$EXTMIN
 10 
 0 
 20 
 0 
 9 
$EXTMAX
 10 
 8.5 
 20 
 11 
 0 
ENDSEC
 0 
SECTION
 2 
ENTITIES
0
LINE
8
Layer 1
10
92.465400
20
170.746000
11
91.329912
21
170.601376
0
LINE
8
Layer 1
10
91.329912
20
170.601376
11
90.117740
21
170.167741
0
LINE
8
Layer 1
10
90.117740
20
170.167741
11
90.117700
21
168.022000
0
LINE
8
Layer 1
10
90.117700
20
168.022000
11
91.143873
21
168.420069
0
LINE
8
Layer 1
10
91.143873
20
168.420069
11
91.934120
21
168.552716
0
LINE
8
Layer 1
10
91.934120
20
168.552716
11
92.792376
21
168.366959
0
LINE
8
Layer 1
10
92.792376
20
168.366959
11
93.455990
21
167.809611
0
LINE
8
Layer 1
10
93.455990
20
167.809611
11
93.889627
21
166.954208
0
LINE
8
Layer 1
10
93.889627
20
166.954208
11
94.034247
21
165.851081
0
LINE
8
Layer 1
10
94.034247
20
165.851081
11
93.768824
21
163.636287
0
LINE
8
Layer 1
10
93.768824
20
163.636287
11
92.972556
21
161.049910
0
LINE
8
Layer 1
10
92.972556
20
161.049910
11
91.645443
21
158.091943
0
LINE
8
Layer 1
10
91.645443
20
158.091943
11
89.787487
21
154.762381
0
LINE
8
Layer 1
10
89.787487
20
154.762381
11
89.787500
21
154.444000
0
LINE
8
Layer 1
10
89.787500
20
154.444000
11
96.499800
21
154.444000
0
LINE
8
Layer 1
10
96.499800
20
154.444000
11
96.499800
21
156.496000
0
LINE
8
Layer 1
10
96.499800
20
156.496000
11
92.724800
21
156.496000
0
LINE
8
Layer 1
10
92.724800
20
156.496000
11
94.326118
21
159.763490
0
LINE
8
Layer 1
10
94.326118
20
159.763490
11
95.378900
21
162.276000
0
LINE
8
Layer 1
10
95.378900
20
162.276000
11
95.962926
21
164.331732
0
LINE
8
Layer 1
10
95.962926
20
164.331732
11
96.157663
21
166.228210
0
LINE
8
Layer 1
10
96.157663
20
166.228210
11
95.909817
21
168.103923
0
LINE
8
Layer 1
10
95.909817
20
168.103923
11
95.600075
21
168.873687
0
LINE
8
Layer 1
10
95.600075
20
168.873687
11
95.166511
21
169.531360
0
LINE
8
Layer 1
10
95.166511
20
169.531360
11
94.626127
21
170.062922
0
LINE
8
Layer 1
10
94.626127
20
170.062922
11
93.995848
21
170.442577
0
LINE
8
Layer 1
10
93.995848
20
170.442577
11
93.275620
21
170.670351
0
LINE
8
Layer 1
10
93.275620
20
170.670351
11
92.465391
21
170.746270
0
LINE
8
Layer 1
10
92.465391
20
170.746270
11
92.465400
21
170.746000
0
LINE
8
Layer 1
10
83.500070
20
170.580630
11
83.500100
21
154.444000
0
LINE
8
Layer 1
10
83.500100
20
154.444000
11
85.575900
21
154.444000
0
LINE
8
Layer 1
10
85.575900
20
154.444000
11
85.575900
21
170.581000
0
LINE
8
Layer 1
10
85.575900
20
170.581000
11
83.500070
21
170.580630
0
LINE
8
Layer 1
10
49.341470
20
158.856330
11
49.341500
21
143.018000
0
LINE
8
Layer 1
10
49.341500
20
143.018000
11
51.379100
21
143.018000
0
LINE
8
Layer 1
10
51.379100
20
143.018000
11
51.379100
21
158.857000
0
LINE
8
Layer 1
10
51.379100
20
158.857000
11
49.341470
21
158.856330
0
LINE
8
Layer 1
10
58.001910
20
158.856330
11
58.001900
21
143.018000
0
LINE
8
Layer 1
10
58.001900
20
143.018000
11
60.039500
21
143.018000
0
LINE
8
Layer 1
10
60.039500
20
143.018000
11
60.039500
21
158.857000
0
LINE
8
Layer 1
10
60.039500
20
158.857000
11
58.001910
21
158.856330
0
LINE
8
Layer 1
10
92.191010
20
148.178430
11
91.181742
21
148.050050
0
LINE
8
Layer 1
10
91.181742
20
148.050050
11
90.104320
21
147.664766
0
LINE
8
Layer 1
10
90.104320
20
147.664766
11
90.104300
21
145.757000
0
LINE
8
Layer 1
10
90.104300
20
145.757000
11
91.016602
21
146.110868
0
LINE
8
Layer 1
10
91.016602
20
146.110868
11
91.719190
21
146.228806
0
LINE
8
Layer 1
10
91.719190
20
146.228806
11
92.482141
21
146.063745
0
LINE
8
Layer 1
10
92.482141
20
146.063745
11
93.072080
21
145.568383
0
LINE
8
Layer 1
10
93.072080
20
145.568383
11
93.457361
21
144.807996
0
LINE
8
Layer 1
10
93.457361
20
144.807996
11
93.585742
21
143.827403
0
LINE
8
Layer 1
10
93.585742
20
143.827403
11
93.349800
21
141.858679
0
LINE
8
Layer 1
10
93.349800
20
141.858679
11
92.641983
21
139.559632
0
LINE
8
Layer 1
10
92.641983
20
139.559632
11
91.462306
21
136.930283
0
LINE
8
Layer 1
10
91.462306
20
136.930283
11
89.810782
21
133.970653
0
LINE
8
Layer 1
10
89.810782
20
133.970653
11
89.810800
21
133.688000
0
LINE
8
Layer 1
10
89.810800
20
133.688000
11
95.777300
21
133.688000
0
LINE
8
Layer 1
10
95.777300
20
133.688000
11
95.777300
21
135.512000
0
LINE
8
Layer 1
10
95.777300
20
135.512000
11
92.422000
21
135.512000
0
LINE
8
Layer 1
10
92.422000
20
135.512000
11
93.845310
21
138.416636
0
LINE
8
Layer 1
10
93.845310
20
138.416636
11
94.781030
21
140.650180
0
LINE
8
Layer 1
10
94.781030
20
140.650180
11
95.300278
21
142.477438
0
LINE
8
Layer 1
10
95.300278
20
142.477438
11
95.473494
21
144.163140
0
LINE
8
Layer 1
10
95.473494
20
144.163140
11
95.253155
21
145.830235
0
LINE
8
Layer 1
10
95.253155
20
145.830235
11
94.592413
21
147.098870
0
LINE
8
Layer 1
10
94.592413
20
147.098870
11
94.112007
21
147.571387
0
LINE
8
Layer 1
10
94.112007
20
147.571387
11
93.551619
21
147.908899
0
LINE
8
Layer 1
10
93.551619
20
147.908899
11
92.191013
21
148.178910
0
LINE
8
Layer 1
10
92.191013
20
148.178910
11
92.191010
21
148.178430
0
LINE
8
Layer 1
10
84.222000
20
148.031668
11
84.222000
21
133.688000
0
LINE
8
Layer 1
10
84.222000
20
133.688000
11
86.067400
21
133.688000
0
LINE
8
Layer 1
10
86.067400
20
133.688000
11
86.067400
21
148.032000
0
LINE
8
Layer 1
10
86.067400
20
148.032000
11
84.222000
21
148.031668
0
LINE
8
Layer 1
10
115.590600
20
143.112598
11
115.591000
21
128.469000
0
LINE
8
Layer 1
10
115.591000
20
128.469000
11
117.475000
21
128.469000
0
LINE
8
Layer 1
10
117.475000
20
128.469000
11
117.475000
21
143.113000
0
LINE
8
Layer 1
10
117.475000
20
143.113000
11
115.590600
21
143.112598
0
LINE
8
Layer 1
10
60.942300
20
138.983138
11
60.942300
21
124.938000
0
LINE
8
Layer 1
10
60.942300
20
124.938000
11
62.749400
21
124.938000
0
LINE
8
Layer 1
10
62.749400
20
124.938000
11
62.749400
21
138.984000
0
LINE
8
Layer 1
10
62.749400
20
138.984000
11
60.942300
21
138.983138
0
LINE
8
Layer 1
10
68.622440
20
138.983138
11
68.622400
21
124.938000
0
LINE
8
Layer 1
10
68.622400
20
124.938000
11
70.429600
21
124.938000
0
LINE
8
Layer 1
10
70.429600
20
124.938000
11
70.429600
21
138.984000
0
LINE
8
Layer 1
10
70.429600
20
138.984000
11
68.622440
21
138.983138
0
LINE
8
Layer 1
10
34.507240
20
132.094158
11
33.706710
21
131.966802
0
LINE
8
Layer 1
10
33.706710
20
131.966802
11
33.012898
21
131.584732
0
LINE
8
Layer 1
10
33.012898
20
131.584732
11
32.425808
21
130.947947
0
LINE
8
Layer 1
10
32.425808
20
130.947947
11
31.945449
21
130.056446
0
LINE
8
Layer 1
10
31.945449
20
130.056446
11
31.571825
21
128.910226
0
LINE
8
Layer 1
10
31.571825
20
128.910226
11
31.304943
21
127.509288
0
LINE
8
Layer 1
10
31.304943
20
127.509288
11
31.091430
21
123.943248
0
LINE
8
Layer 1
10
31.091430
20
123.943248
11
31.297004
21
120.342369
0
LINE
8
Layer 1
10
31.297004
20
120.342369
11
31.553936
21
118.941359
0
LINE
8
Layer 1
10
31.553936
20
118.941359
11
31.913601
21
117.806678
0
LINE
8
Layer 1
10
31.913601
20
117.806678
11
32.383983
21
116.930367
0
LINE
8
Layer 1
10
32.383983
20
116.930367
11
32.973068
21
116.304441
0
LINE
8
Layer 1
10
32.973068
20
116.304441
11
33.680830
21
115.928890
0
LINE
8
Layer 1
10
33.680830
20
115.928890
11
34.507241
21
115.803708
0
LINE
8
Layer 1
10
34.507241
20
115.803708
11
35.363317
21
115.930353
0
LINE
8
Layer 1
10
35.363317
20
115.930353
11
36.090611
21
116.310282
0
LINE
8
Layer 1
10
36.090611
20
116.310282
11
36.689100
21
116.943481
0
LINE
8
Layer 1
10
36.689100
20
116.943481
11
37.158761
21
117.829938
0
LINE
8
Layer 1
10
37.158761
20
117.829938
11
37.513312
21
118.976183
0
LINE
8
Layer 1
10
37.513312
20
118.976183
11
37.766520
21
120.377159
0
LINE
8
Layer 1
10
37.766520
20
120.377159
11
37.969046
21
123.943248
0
LINE
8
Layer 1
10
37.969046
20
123.943248
11
37.754844
21
127.616481
0
LINE
8
Layer 1
10
37.754844
20
127.616481
11
37.487095
21
129.021107
0
LINE
8
Layer 1
10
37.487095
20
129.021107
11
37.112252
21
130.137698
0
LINE
8
Layer 1
10
37.112252
20
130.137698
11
36.632495
21
130.993720
0
LINE
8
Layer 1
10
36.632495
20
130.993720
11
36.038416
21
131.605109
0
LINE
8
Layer 1
10
36.038416
20
131.605109
11
35.330002
21
131.971911
0
LINE
8
Layer 1
10
35.330002
20
131.971911
11
34.507242
21
132.094168
0
LINE
8
Layer 1
10
34.507242
20
132.094168
11
34.507240
21
132.094158
0
LINE
8
Layer 1
10
24.851000
20
131.931889
11
24.851000
21
116.094000
0
LINE
8
Layer 1
10
24.851000
20
116.094000
11
26.888600
21
116.094000
0
LINE
8
Layer 1
10
26.888600
20
116.094000
11
26.888600
21
131.932000
0
LINE
8
Layer 1
10
26.888600
20
131.932000
11
24.851000
21
131.931889
0
LINE
8
Layer 1
10
34.530500
20
130.253439
11
34.858977
21
130.170878
0
LINE
8
Layer 1
10
34.858977
20
130.170878
11
35.138184
21
129.923250
0
LINE
8
Layer 1
10
35.138184
20
129.923250
11
35.549040
21
128.933109
0
LINE
8
Layer 1
10
35.549040
20
128.933109
11
35.792351
21
127.025763
0
LINE
8
Layer 1
10
35.792351
20
127.025763
11
35.873568
21
123.943239
0
LINE
8
Layer 1
10
35.873568
20
123.943239
11
35.789625
21
121.202859
0
LINE
8
Layer 1
10
35.789625
20
121.202859
11
35.537799
21
119.245458
0
LINE
8
Layer 1
10
35.537799
20
119.245458
11
35.118089
21
118.071024
0
LINE
8
Layer 1
10
35.118089
20
118.071024
11
34.845279
21
117.777418
0
LINE
8
Layer 1
10
34.845279
20
117.777418
11
34.530498
21
117.679549
0
LINE
8
Layer 1
10
34.530498
20
117.679549
11
34.212992
21
117.777418
0
LINE
8
Layer 1
10
34.212992
20
117.777418
11
33.937796
21
118.071024
0
LINE
8
Layer 1
10
33.937796
20
118.071024
11
33.514364
21
119.245458
0
LINE
8
Layer 1
10
33.514364
20
119.245458
11
33.260262
21
121.202859
0
LINE
8
Layer 1
10
33.260262
20
121.202859
11
33.175548
21
123.943239
0
LINE
8
Layer 1
10
33.175548
20
123.943239
11
33.259558
21
127.228463
0
LINE
8
Layer 1
10
33.259558
20
127.228463
11
33.511446
21
129.095369
0
LINE
8
Layer 1
10
33.511446
20
129.095369
11
33.934139
21
129.963857
0
LINE
8
Layer 1
10
33.934139
20
129.963857
11
34.530506
21
130.253439
0
LINE
8
Layer 1
10
34.530506
20
130.253439
11
34.530500
21
130.253439
0
LINE
8
Layer 1
10
137.703500
20
125.552959
11
136.652242
21
125.419335
0
LINE
8
Layer 1
10
136.652242
20
125.419335
11
135.529990
21
125.018110
0
LINE
8
Layer 1
10
135.529990
20
125.018110
11
135.530000
21
123.031000
0
LINE
8
Layer 1
10
135.530000
20
123.031000
11
136.480262
21
123.399601
0
LINE
8
Layer 1
10
136.480262
20
123.399601
11
137.212060
21
123.522441
0
LINE
8
Layer 1
10
137.212060
20
123.522441
11
138.006785
21
123.350311
0
LINE
8
Layer 1
10
138.006785
20
123.350311
11
138.621280
21
122.834113
0
LINE
8
Layer 1
10
138.621280
20
122.834113
11
139.022505
21
122.042397
0
LINE
8
Layer 1
10
139.022505
20
122.042397
11
139.156129
21
121.021303
0
LINE
8
Layer 1
10
139.156129
20
121.021303
11
138.910389
21
118.970527
0
LINE
8
Layer 1
10
138.910389
20
118.970527
11
138.173150
21
116.575647
0
LINE
8
Layer 1
10
138.173150
20
116.575647
11
136.944386
21
113.836694
0
LINE
8
Layer 1
10
136.944386
20
113.836694
11
135.224069
21
110.753703
0
LINE
8
Layer 1
10
135.224069
20
110.753703
11
135.224000
21
110.458000
0
LINE
8
Layer 1
10
135.224000
20
110.458000
11
141.440000
21
110.458000
0
LINE
8
Layer 1
10
141.440000
20
110.458000
11
141.440000
21
112.359000
0
LINE
8
Layer 1
10
141.440000
20
112.359000
11
137.944000
21
112.359000
0
LINE
8
Layer 1
10
137.944000
20
112.359000
11
139.426819
21
115.384590
0
LINE
8
Layer 1
10
139.426819
20
115.384590
11
140.401730
21
117.711120
0
LINE
8
Layer 1
10
140.401730
20
117.711120
11
140.942394
21
119.614449
0
LINE
8
Layer 1
10
140.942394
20
119.614449
11
141.122606
21
121.370320
0
LINE
8
Layer 1
10
141.122606
20
121.370320
11
140.893359
21
123.106957
0
LINE
8
Layer 1
10
140.893359
20
123.106957
11
140.205365
21
124.428530
0
LINE
8
Layer 1
10
140.205365
20
124.428530
11
139.704909
21
124.920727
0
LINE
8
Layer 1
10
139.704909
20
124.920727
11
139.121105
21
125.272285
0
LINE
8
Layer 1
10
139.121105
20
125.272285
11
138.454017
21
125.483213
0
LINE
8
Layer 1
10
138.454017
20
125.483213
11
137.703705
21
125.553520
0
LINE
8
Layer 1
10
137.703705
20
125.553520
11
137.703500
21
125.552959
0
LINE
8
Layer 1
10
91.642800
20
125.469767
11
90.885981
21
125.373353
0
LINE
8
Layer 1
10
90.885981
20
125.373353
11
90.078040
21
125.084260
0
LINE
8
Layer 1
10
90.078040
20
125.084260
11
90.078500
21
123.654000
0
LINE
8
Layer 1
10
90.078500
20
123.654000
11
91.289280
21
124.007983
0
LINE
8
Layer 1
10
91.289280
20
124.007983
11
91.861620
21
123.884059
0
LINE
8
Layer 1
10
91.861620
20
123.884059
11
92.304200
21
123.512407
0
LINE
8
Layer 1
10
92.304200
20
123.512407
11
92.593031
21
122.942309
0
LINE
8
Layer 1
10
92.593031
20
122.942309
11
92.689188
21
122.207057
0
LINE
8
Layer 1
10
92.689188
20
122.207057
11
92.512293
21
120.730474
0
LINE
8
Layer 1
10
92.512293
20
120.730474
11
91.981565
21
119.006104
0
LINE
8
Layer 1
10
91.981565
20
119.006104
11
91.096941
21
117.034006
0
LINE
8
Layer 1
10
91.096941
20
117.034006
11
89.858358
21
114.814237
0
LINE
8
Layer 1
10
89.858358
20
114.814237
11
89.858300
21
114.602000
0
LINE
8
Layer 1
10
89.858300
20
114.602000
11
94.333000
21
114.602000
0
LINE
8
Layer 1
10
94.333000
20
114.602000
11
94.333000
21
115.970000
0
LINE
8
Layer 1
10
94.333000
20
115.970000
11
91.816300
21
115.970000
0
LINE
8
Layer 1
10
91.816300
20
115.970000
11
93.585700
21
119.823510
0
LINE
8
Layer 1
10
93.585700
20
119.823510
11
93.975136
21
121.193824
0
LINE
8
Layer 1
10
93.975136
20
121.193824
11
94.105048
21
122.457970
0
LINE
8
Layer 1
10
94.105048
20
122.457970
11
93.939731
21
123.708616
0
LINE
8
Layer 1
10
93.939731
20
123.708616
11
93.444108
21
124.660420
0
LINE
8
Layer 1
10
93.444108
20
124.660420
11
92.663579
21
125.267813
0
LINE
8
Layer 1
10
92.663579
20
125.267813
11
91.643188
21
125.470190
0
LINE
8
Layer 1
10
91.643188
20
125.470190
11
91.642800
21
125.469767
0
LINE
8
Layer 1
10
85.665910
20
125.359696
11
85.666300
21
114.602000
0
LINE
8
Layer 1
10
85.666300
20
114.602000
11
87.050800
21
114.602000
0
LINE
8
Layer 1
10
87.050800
20
114.602000
11
87.050800
21
125.360000
0
LINE
8
Layer 1
10
87.050800
20
125.360000
11
85.665910
21
125.359696
0
LINE
8
Layer 1
10
105.205210
20
122.998086
11
105.206000
21
111.941000
0
LINE
8
Layer 1
10
105.206000
20
111.941000
11
106.628000
21
111.941000
0
LINE
8
Layer 1
10
106.628000
20
111.941000
11
106.628000
21
122.999000
0
LINE
8
Layer 1
10
106.628000
20
122.999000
11
105.205210
21
122.998086
0
LINE
8
Layer 1
10
51.870010
20
120.720196
11
51.175235
21
120.609655
0
LINE
8
Layer 1
10
51.175235
20
120.609655
11
50.573117
21
120.278035
0
LINE
8
Layer 1
10
50.573117
20
120.278035
11
50.063649
21
119.725336
0
LINE
8
Layer 1
10
50.063649
20
119.725336
11
49.646825
21
118.951560
0
LINE
8
Layer 1
10
49.646825
20
118.951560
11
49.091086
21
116.740780
0
LINE
8
Layer 1
10
49.091086
20
116.740780
11
48.905850
21
113.645706
0
LINE
8
Layer 1
10
48.905850
20
113.645706
11
49.084049
21
110.520573
0
LINE
8
Layer 1
10
49.084049
20
110.520573
11
49.618984
21
108.319936
0
LINE
8
Layer 1
10
49.618984
20
108.319936
11
50.027229
21
107.559372
0
LINE
8
Layer 1
10
50.027229
20
107.559372
11
50.538490
21
107.016127
0
LINE
8
Layer 1
10
50.538490
20
107.016127
11
51.152752
21
106.690189
0
LINE
8
Layer 1
10
51.152752
20
106.690189
11
51.870004
21
106.581546
0
LINE
8
Layer 1
10
51.870004
20
106.581546
11
52.612990
21
106.691454
0
LINE
8
Layer 1
10
52.612990
20
106.691454
11
53.244169
21
107.021180
0
LINE
8
Layer 1
10
53.244169
20
107.021180
11
53.763553
21
107.570727
0
LINE
8
Layer 1
10
53.763553
20
107.570727
11
54.171154
21
108.340096
0
LINE
8
Layer 1
10
54.171154
20
108.340096
11
54.698668
21
110.550750
0
LINE
8
Layer 1
10
54.698668
20
110.550750
11
54.874471
21
113.645706
0
LINE
8
Layer 1
10
54.874471
20
113.645706
11
54.688563
21
116.833842
0
LINE
8
Layer 1
10
54.688563
20
116.833842
11
54.456180
21
118.052985
0
LINE
8
Layer 1
10
54.456180
20
118.052985
11
54.130847
21
119.022116
0
LINE
8
Layer 1
10
54.130847
20
119.022116
11
53.714472
21
119.765081
0
LINE
8
Layer 1
10
53.714472
20
119.765081
11
53.198894
21
120.295728
0
LINE
8
Layer 1
10
53.198894
20
120.295728
11
52.584082
21
120.614092
0
LINE
8
Layer 1
10
52.584082
20
120.614092
11
51.870007
21
120.720206
0
LINE
8
Layer 1
10
51.870007
20
120.720206
11
51.870010
21
120.720196
0
LINE
8
Layer 1
10
43.489140
20
120.579637
11
43.489600
21
106.833000
0
LINE
8
Layer 1
10
43.489600
20
106.833000
11
45.258500
21
106.833000
0
LINE
8
Layer 1
10
45.258500
20
106.833000
11
45.258500
21
120.580000
0
LINE
8
Layer 1
10
45.258500
20
120.580000
11
43.489140
21
120.579637
0
LINE
8
Layer 1
10
51.890170
20
119.122367
11
52.417675
21
118.836186
0
LINE
8
Layer 1
10
52.417675
20
118.836186
11
52.774352
21
117.977217
0
LINE
8
Layer 1
10
52.774352
20
117.977217
11
52.985515
21
116.321444
0
LINE
8
Layer 1
10
52.985515
20
116.321444
11
53.055988
21
113.645707
0
LINE
8
Layer 1
10
53.055988
20
113.645707
11
52.983111
21
111.267271
0
LINE
8
Layer 1
10
52.983111
20
111.267271
11
52.764498
21
109.568416
0
LINE
8
Layer 1
10
52.764498
20
109.568416
11
52.400175
21
108.549118
0
LINE
8
Layer 1
10
52.400175
20
108.549118
11
52.163380
21
108.294297
0
LINE
8
Layer 1
10
52.163380
20
108.294297
11
51.890168
21
108.209357
0
LINE
8
Layer 1
10
51.890168
20
108.209357
11
51.614613
21
108.294297
0
LINE
8
Layer 1
10
51.614613
20
108.294297
11
51.375804
21
108.549119
0
LINE
8
Layer 1
10
51.375804
20
108.549119
11
51.008419
21
109.568419
0
LINE
8
Layer 1
10
51.008419
20
109.568419
11
50.787998
21
111.267276
0
LINE
8
Layer 1
10
50.787998
20
111.267276
11
50.714528
21
113.645707
0
LINE
8
Layer 1
10
50.714528
20
113.645707
11
50.787402
21
116.497237
0
LINE
8
Layer 1
10
50.787402
20
116.497237
11
51.005984
21
118.117777
0
LINE
8
Layer 1
10
51.005984
20
118.117777
11
51.372710
21
118.871295
0
LINE
8
Layer 1
10
51.372710
20
118.871295
11
51.890166
21
119.122367
0
LINE
8
Layer 1
10
51.890166
20
119.122367
11
51.890170
21
119.122367
0
LINE
8
Layer 1
10
72.744670
20
118.911527
11
72.745200
21
108.453000
0
LINE
8
Layer 1
10
72.745200
20
108.453000
11
74.090800
21
108.453000
0
LINE
8
Layer 1
10
74.090800
20
108.453000
11
74.090800
21
118.912000
0
LINE
8
Layer 1
10
74.090800
20
118.912000
11
72.744670
21
118.911527
0
LINE
8
Layer 1
10
78.463690
20
118.911527
11
78.464200
21
108.453000
0
LINE
8
Layer 1
10
78.464200
20
108.453000
11
79.809900
21
108.453000
0
LINE
8
Layer 1
10
79.809900
20
108.453000
11
79.809900
21
118.912000
0
LINE
8
Layer 1
10
79.809900
20
118.912000
11
78.463690
21
118.911527
0
LINE
8
Layer 1
10
119.063790
20
112.853507
11
118.264728
21
112.751848
0
LINE
8
Layer 1
10
118.264728
20
112.751848
11
117.411690
21
112.446813
0
LINE
8
Layer 1
10
117.411690
20
112.446813
11
117.412000
21
110.937000
0
LINE
8
Layer 1
10
117.412000
20
110.937000
11
118.690490
21
111.310620
0
LINE
8
Layer 1
10
118.690490
20
111.310620
11
119.294597
21
111.179885
0
LINE
8
Layer 1
10
119.294597
20
111.179885
11
119.761730
21
110.787656
0
LINE
8
Layer 1
10
119.761730
20
110.787656
11
120.066774
21
110.185715
0
LINE
8
Layer 1
10
120.066774
20
110.185715
11
120.168426
21
109.409446
0
LINE
8
Layer 1
10
120.168426
20
109.409446
11
119.981649
21
107.850891
0
LINE
8
Layer 1
10
119.981649
20
107.850891
11
119.421318
21
106.030860
0
LINE
8
Layer 1
10
119.421318
20
106.030860
11
118.487430
21
103.949339
0
LINE
8
Layer 1
10
118.487430
20
103.949339
11
117.179986
21
101.606316
0
LINE
8
Layer 1
10
117.179986
20
101.606316
11
117.180000
21
101.382000
0
LINE
8
Layer 1
10
117.180000
20
101.382000
11
121.903000
21
101.382000
0
LINE
8
Layer 1
10
121.903000
20
101.382000
11
121.903000
21
102.826000
0
LINE
8
Layer 1
10
121.903000
20
102.826000
11
119.247000
21
102.826000
0
LINE
8
Layer 1
10
119.247000
20
102.826000
11
121.114580
21
106.893960
0
LINE
8
Layer 1
10
121.114580
20
106.893960
11
121.525445
21
108.340346
0
LINE
8
Layer 1
10
121.525445
20
108.340346
11
121.662361
21
109.674660
0
LINE
8
Layer 1
10
121.662361
20
109.674660
11
121.488133
21
110.994587
0
LINE
8
Layer 1
10
121.488133
20
110.994587
11
120.965243
21
111.999060
0
LINE
8
Layer 1
10
120.965243
20
111.999060
11
120.141246
21
112.640183
0
LINE
8
Layer 1
10
120.141246
20
112.640183
11
119.064073
21
112.853789
0
LINE
8
Layer 1
10
119.064073
20
112.853789
11
119.063790
21
112.853507
0
LINE
8
Layer 1
10
69.186290
20
108.436207
11
68.672753
21
108.354496
0
LINE
8
Layer 1
10
68.672753
20
108.354496
11
68.227688
21
108.109367
0
LINE
8
Layer 1
10
68.227688
20
108.109367
11
67.542976
21
107.128873
0
LINE
8
Layer 1
10
67.542976
20
107.128873
11
67.132151
21
105.494764
0
LINE
8
Layer 1
10
67.132151
20
105.494764
11
66.995210
21
103.207077
0
LINE
8
Layer 1
10
66.995210
20
103.207077
11
67.127177
21
100.897063
0
LINE
8
Layer 1
10
67.127177
20
100.897063
11
67.522824
21
99.270367
0
LINE
8
Layer 1
10
67.522824
20
99.270367
11
67.824520
21
98.708243
0
LINE
8
Layer 1
10
67.824520
20
98.708243
11
68.202293
21
98.306789
0
LINE
8
Layer 1
10
68.202293
20
98.306789
11
68.656196
21
98.065954
0
LINE
8
Layer 1
10
68.656196
20
98.065954
11
69.186284
21
97.985687
0
LINE
8
Layer 1
10
69.186284
20
97.985687
11
69.735498
21
98.066902
0
LINE
8
Layer 1
10
69.735498
20
98.066902
11
70.202138
21
98.310566
0
LINE
8
Layer 1
10
70.202138
20
98.310566
11
70.586148
21
98.716705
0
LINE
8
Layer 1
10
70.586148
20
98.716705
11
70.887474
21
99.285347
0
LINE
8
Layer 1
10
70.887474
20
99.285347
11
71.277387
21
100.919397
0
LINE
8
Layer 1
10
71.277387
20
100.919397
11
71.407339
21
103.207067
0
LINE
8
Layer 1
10
71.407339
20
103.207067
11
71.269830
21
105.563539
0
LINE
8
Layer 1
10
71.269830
20
105.563539
11
70.857502
21
107.180977
0
LINE
8
Layer 1
10
70.857502
20
107.180977
11
70.549721
21
107.730141
0
LINE
8
Layer 1
10
70.549721
20
107.730141
11
70.168588
21
108.122397
0
LINE
8
Layer 1
10
70.168588
20
108.122397
11
69.714109
21
108.357747
0
LINE
8
Layer 1
10
69.714109
20
108.357747
11
69.186292
21
108.436197
0
LINE
8
Layer 1
10
69.186292
20
108.436197
11
69.186290
21
108.436207
0
LINE
8
Layer 1
10
62.991840
20
108.332339
11
62.992300
21
98.171600
0
LINE
8
Layer 1
10
62.992300
20
98.171600
11
64.299700
21
98.171600
0
LINE
8
Layer 1
10
64.299700
20
98.171600
11
64.299700
21
108.333000
0
LINE
8
Layer 1
10
64.299700
20
108.333000
11
62.991840
21
108.332339
0
LINE
8
Layer 1
10
69.201270
20
107.254889
11
69.591257
21
107.043342
0
LINE
8
Layer 1
10
69.591257
20
107.043342
11
69.854976
21
106.408431
0
LINE
8
Layer 1
10
69.854976
20
106.408431
11
70.010838
21
105.184700
0
LINE
8
Layer 1
10
70.010838
20
105.184700
11
70.062715
21
103.207081
0
LINE
8
Layer 1
10
70.062715
20
103.207081
11
69.847389
21
100.193341
0
LINE
8
Layer 1
10
69.847389
20
100.193341
11
69.578192
21
99.439886
0
LINE
8
Layer 1
10
69.578192
20
99.439886
11
69.201271
21
99.188731
0
LINE
8
Layer 1
10
69.201271
20
99.188731
11
68.821049
21
99.439888
0
LINE
8
Layer 1
10
68.821049
20
99.439888
11
68.549420
21
100.193345
0
LINE
8
Layer 1
10
68.549420
20
100.193345
11
68.332075
21
103.207081
0
LINE
8
Layer 1
10
68.332075
20
103.207081
11
68.385973
21
105.314618
0
LINE
8
Layer 1
10
68.385973
20
105.314618
11
68.547565
21
106.512301
0
LINE
8
Layer 1
10
68.547565
20
106.512301
11
68.818714
21
107.069281
0
LINE
8
Layer 1
10
68.818714
20
107.069281
11
69.201271
21
107.254889
0
LINE
8
Layer 1
10
69.201271
20
107.254889
11
69.201270
21
107.254889
0
LINE
8
Layer 1
10
21.146870
20
98.000169
11
20.473172
21
97.908303
0
LINE
8
Layer 1
10
20.473172
20
97.908303
11
19.853025
21
97.632677
0
LINE
8
Layer 1
10
19.853025
20
97.632677
11
19.286426
21
97.173250
0
LINE
8
Layer 1
10
19.286426
20
97.173250
11
18.773370
21
96.529979
0
LINE
8
Layer 1
10
18.773370
20
96.529979
11
18.043956
21
94.882839
0
LINE
8
Layer 1
10
18.043956
20
94.882839
11
17.800821
21
92.859409
0
LINE
8
Layer 1
10
17.800821
20
92.859409
11
18.006396
21
90.882588
0
LINE
8
Layer 1
10
18.006396
20
90.882588
11
18.622992
21
89.328369
0
LINE
8
Layer 1
10
18.622992
20
89.328369
11
19.070941
21
88.745813
0
LINE
8
Layer 1
10
19.070941
20
88.745813
11
19.581149
21
88.329650
0
LINE
8
Layer 1
10
19.581149
20
88.329650
11
20.153588
21
88.079921
0
LINE
8
Layer 1
10
20.153588
20
88.079921
11
20.788232
21
87.996669
0
LINE
8
Layer 1
10
20.788232
20
87.996669
11
21.645026
21
88.112338
0
LINE
8
Layer 1
10
21.645026
20
88.112338
11
18.704126
21
81.999548
0
LINE
8
Layer 1
10
18.704126
20
81.999548
11
20.718466
21
81.999021
0
LINE
8
Layer 1
10
20.718466
20
81.999021
11
22.976206
21
86.700031
0
LINE
8
Layer 1
10
22.976206
20
86.700031
11
23.599268
21
88.192156
0
LINE
8
Layer 1
10
23.599268
20
88.192156
11
24.044333
21
89.704534
0
LINE
8
Layer 1
10
24.044333
20
89.704534
11
24.311385
21
91.237173
0
LINE
8
Layer 1
10
24.311385
20
91.237173
11
24.400406
21
92.790081
0
LINE
8
Layer 1
10
24.400406
20
92.790081
11
24.174786
21
94.946440
0
LINE
8
Layer 1
10
24.174786
20
94.946440
11
23.892675
21
95.835739
0
LINE
8
Layer 1
10
23.892675
20
95.835739
11
23.497621
21
96.599151
0
LINE
8
Layer 1
10
23.497621
20
96.599151
11
23.012000
21
97.212067
0
LINE
8
Layer 1
10
23.012000
20
97.212067
11
22.458283
21
97.649864
0
LINE
8
Layer 1
10
22.458283
20
97.649864
11
21.836544
21
97.912542
0
LINE
8
Layer 1
10
21.836544
20
97.912542
11
21.146861
21
98.000101
0
LINE
8
Layer 1
10
21.146861
20
98.000101
11
21.146870
21
98.000169
0
LINE
8
Layer 1
10
147.258870
20
97.837393
11
146.339837
21
97.742696
0
LINE
8
Layer 1
10
146.339837
20
97.742696
11
145.498780
21
97.458604
0
LINE
8
Layer 1
10
145.498780
20
97.458604
11
145.499000
21
95.542900
0
LINE
8
Layer 1
10
145.499000
20
95.542900
11
146.197917
21
95.860355
0
LINE
8
Layer 1
10
146.197917
20
95.860355
11
146.846710
21
95.966129
0
LINE
8
Layer 1
10
146.846710
20
95.966129
11
147.596061
21
95.815778
0
LINE
8
Layer 1
10
147.596061
20
95.815778
11
148.172710
21
95.364615
0
LINE
8
Layer 1
10
148.172710
20
95.364615
11
148.548694
21
94.657329
0
LINE
8
Layer 1
10
148.548694
20
94.657329
11
148.673990
21
93.738355
0
LINE
8
Layer 1
10
148.673990
20
93.738355
11
148.561156
21
92.863033
0
LINE
8
Layer 1
10
148.561156
20
92.863033
11
148.222677
21
92.197949
0
LINE
8
Layer 1
10
148.222677
20
92.197949
11
147.658587
21
91.743155
0
LINE
8
Layer 1
10
147.658587
20
91.743155
11
146.868920
21
91.498705
0
LINE
8
Layer 1
10
146.868920
20
91.498705
11
146.869000
21
89.560300
0
LINE
8
Layer 1
10
146.869000
20
89.560300
11
147.736651
21
89.273374
0
LINE
8
Layer 1
10
147.736651
20
89.273374
11
148.356455
21
88.724585
0
LINE
8
Layer 1
10
148.356455
20
88.724585
11
148.728369
21
87.913978
0
LINE
8
Layer 1
10
148.728369
20
87.913978
11
148.852350
21
86.841600
0
LINE
8
Layer 1
10
148.852350
20
86.841600
11
148.713079
21
85.708056
0
LINE
8
Layer 1
10
148.713079
20
85.708056
11
148.295264
21
84.825190
0
LINE
8
Layer 1
10
148.295264
20
84.825190
11
147.660153
21
84.265218
0
LINE
8
Layer 1
10
147.660153
20
84.265218
11
146.846784
21
84.078469
0
LINE
8
Layer 1
10
146.846784
20
84.078469
11
146.050208
21
84.198466
0
LINE
8
Layer 1
10
146.050208
20
84.198466
11
145.153344
21
84.558019
0
LINE
8
Layer 1
10
145.153344
20
84.558019
11
145.153000
21
82.619100
0
LINE
8
Layer 1
10
145.153000
20
82.619100
11
146.222685
21
82.276500
0
LINE
8
Layer 1
10
146.222685
20
82.276500
11
147.114110
21
82.162294
0
LINE
8
Layer 1
10
147.114110
20
82.162294
11
147.864727
21
82.244457
0
LINE
8
Layer 1
10
147.864727
20
82.244457
11
148.556844
21
82.490947
0
LINE
8
Layer 1
10
148.556844
20
82.490947
11
149.190473
21
82.901768
0
LINE
8
Layer 1
10
149.190473
20
82.901768
11
149.765630
21
83.476924
0
LINE
8
Layer 1
10
149.765630
20
83.476924
11
150.243316
21
84.169067
0
LINE
8
Layer 1
10
150.243316
20
84.169067
11
150.584544
21
84.930843
0
LINE
8
Layer 1
10
150.584544
20
84.930843
11
150.857550
21
86.663294
0
LINE
8
Layer 1
10
150.857550
20
86.663294
11
150.702252
21
88.036447
0
LINE
8
Layer 1
10
150.702252
20
88.036447
11
150.236373
21
89.147789
0
LINE
8
Layer 1
10
150.236373
20
89.147789
11
149.459935
21
89.997313
0
LINE
8
Layer 1
10
149.459935
20
89.997313
11
148.372960
21
90.585014
0
LINE
8
Layer 1
10
148.372960
20
90.585014
11
149.381941
21
91.236075
0
LINE
8
Layer 1
10
149.381941
20
91.236075
11
150.102666
21
92.030579
0
LINE
8
Layer 1
10
150.102666
20
92.030579
11
150.535116
21
92.968525
0
LINE
8
Layer 1
10
150.535116
20
92.968525
11
150.679270
21
94.049914
0
LINE
8
Layer 1
10
150.679270
20
94.049914
11
150.434226
21
95.540056
0
LINE
8
Layer 1
10
150.434226
20
95.540056
11
149.698967
21
96.757244
0
LINE
8
Layer 1
10
149.698967
20
96.757244
11
148.598666
21
97.567691
0
LINE
8
Layer 1
10
148.598666
20
97.567691
11
147.258807
21
97.837794
0
LINE
8
Layer 1
10
147.258807
20
97.837794
11
147.258870
21
97.837393
0
LINE
8
Layer 1
10
43.701870
20
96.792493
11
43.129843
21
96.714458
0
LINE
8
Layer 1
10
43.129843
20
96.714458
11
42.603253
21
96.480358
0
LINE
8
Layer 1
10
42.603253
20
96.480358
11
41.686490
21
95.543993
0
LINE
8
Layer 1
10
41.686490
20
95.543993
11
41.067156
21
94.145697
0
LINE
8
Layer 1
10
41.067156
20
94.145697
11
40.860702
21
92.427913
0
LINE
8
Layer 1
10
40.860702
20
92.427913
11
41.035284
21
90.749379
0
LINE
8
Layer 1
10
41.035284
20
90.749379
11
41.558850
21
89.429653
0
LINE
8
Layer 1
10
41.558850
20
89.429653
11
42.372235
21
88.581683
0
LINE
8
Layer 1
10
42.372235
20
88.581683
11
42.858173
21
88.369649
0
LINE
8
Layer 1
10
42.858173
20
88.369649
11
43.396980
21
88.298963
0
LINE
8
Layer 1
10
43.396980
20
88.298963
11
44.124583
21
88.397662
0
LINE
8
Layer 1
10
44.124583
20
88.397662
11
41.627583
21
83.206762
0
LINE
8
Layer 1
10
41.627583
20
83.206762
11
43.338200
21
83.207200
0
LINE
8
Layer 1
10
43.338200
20
83.207200
11
45.255390
21
87.198690
0
LINE
8
Layer 1
10
45.255390
20
87.198690
11
46.162030
21
89.749652
0
LINE
8
Layer 1
10
46.162030
20
89.749652
11
46.388596
21
91.050929
0
LINE
8
Layer 1
10
46.388596
20
91.050929
11
46.464100
21
92.369420
0
LINE
8
Layer 1
10
46.464100
20
92.369420
11
46.272613
21
94.200444
0
LINE
8
Layer 1
10
46.272613
20
94.200444
11
45.697741
21
95.603840
0
LINE
8
Layer 1
10
45.697741
20
95.603840
11
44.815377
21
96.495745
0
LINE
8
Layer 1
10
44.815377
20
96.495745
11
44.287550
21
96.718632
0
LINE
8
Layer 1
10
44.287550
20
96.718632
11
43.702001
21
96.792910
0
LINE
8
Layer 1
10
43.702001
20
96.792910
11
43.701870
21
96.792493
0
LINE
8
Layer 1
10
21.124600
20
96.009500
11
21.641248
21
95.821299
0
LINE
8
Layer 1
10
21.641248
20
95.821299
11
22.010247
21
95.256741
0
LINE
8
Layer 1
10
22.010247
20
95.256741
11
22.231624
21
94.315895
0
LINE
8
Layer 1
10
22.231624
20
94.315895
11
22.305410
21
92.998830
0
LINE
8
Layer 1
10
22.305410
20
92.998830
11
22.231625
21
91.681844
0
LINE
8
Layer 1
10
22.231625
20
91.681844
11
22.010249
21
90.741174
0
LINE
8
Layer 1
10
22.010249
20
90.741174
11
21.641251
21
90.176791
0
LINE
8
Layer 1
10
21.641251
20
90.176791
11
21.124600
21
89.988670
0
LINE
8
Layer 1
10
21.124600
20
89.988670
11
20.587661
21
90.158020
0
LINE
8
Layer 1
10
20.587661
20
90.158020
11
20.204126
21
90.666053
0
LINE
8
Layer 1
10
20.204126
20
90.666053
11
19.974000
21
91.512744
0
LINE
8
Layer 1
10
19.974000
20
91.512744
11
19.897290
21
92.698070
0
LINE
8
Layer 1
10
19.897290
20
92.698070
11
19.974000
21
94.146794
0
LINE
8
Layer 1
10
19.974000
20
94.146794
11
20.204127
21
95.181615
0
LINE
8
Layer 1
10
20.204127
20
95.181615
11
20.587662
21
95.802519
0
LINE
8
Layer 1
10
20.587662
20
95.802519
11
21.124600
21
96.009490
0
LINE
8
Layer 1
10
21.124600
20
96.009490
11
21.124600
21
96.009500
0
LINE
8
Layer 1
10
126.913600
20
95.994090
11
126.210692
21
95.921557
0
LINE
8
Layer 1
10
126.210692
20
95.921557
11
125.567430
21
95.704185
0
LINE
8
Layer 1
10
125.567430
20
95.704185
11
125.568000
21
94.239200
0
LINE
8
Layer 1
10
125.568000
20
94.239200
11
126.598940
21
94.562694
0
LINE
8
Layer 1
10
126.598940
20
94.562694
11
127.171908
21
94.447747
0
LINE
8
Layer 1
10
127.171908
20
94.447747
11
127.612830
21
94.102775
0
LINE
8
Layer 1
10
127.612830
20
94.102775
11
127.900396
21
93.561787
0
LINE
8
Layer 1
10
127.900396
20
93.561787
11
127.996275
21
92.858925
0
LINE
8
Layer 1
10
127.996275
20
92.858925
11
127.910000
21
92.189580
0
LINE
8
Layer 1
10
127.910000
20
92.189580
11
127.651185
21
91.681029
0
LINE
8
Layer 1
10
127.651185
20
91.681029
11
127.219843
21
91.333288
0
LINE
8
Layer 1
10
127.219843
20
91.333288
11
126.615985
21
91.146375
0
LINE
8
Layer 1
10
126.615985
20
91.146375
11
126.616000
21
89.663700
0
LINE
8
Layer 1
10
126.616000
20
89.663700
11
127.279510
21
89.444325
0
LINE
8
Layer 1
10
127.279510
20
89.444325
11
127.753487
21
89.024685
0
LINE
8
Layer 1
10
127.753487
20
89.024685
11
128.037899
21
88.404820
0
LINE
8
Layer 1
10
128.037899
20
88.404820
11
128.132710
21
87.584770
0
LINE
8
Layer 1
10
128.132710
20
87.584770
11
128.026021
21
86.717909
0
LINE
8
Layer 1
10
128.026021
20
86.717909
11
127.706372
21
86.042740
0
LINE
8
Layer 1
10
127.706372
20
86.042740
11
127.220819
21
85.614778
0
LINE
8
Layer 1
10
127.220819
20
85.614778
11
126.598952
21
85.472234
0
LINE
8
Layer 1
10
126.598952
20
85.472234
11
125.989798
21
85.563823
0
LINE
8
Layer 1
10
125.989798
20
85.563823
11
125.303942
21
85.838631
0
LINE
8
Layer 1
10
125.303942
20
85.838631
11
125.304000
21
84.356100
0
LINE
8
Layer 1
10
125.304000
20
84.356100
11
126.803640
21
84.006771
0
LINE
8
Layer 1
10
126.803640
20
84.006771
11
127.906737
21
84.257986
0
LINE
8
Layer 1
10
127.906737
20
84.257986
11
128.830920
21
85.011861
0
LINE
8
Layer 1
10
128.830920
20
85.011861
11
129.457193
21
86.123893
0
LINE
8
Layer 1
10
129.457193
20
86.123893
11
129.666002
21
87.448911
0
LINE
8
Layer 1
10
129.666002
20
87.448911
11
129.547302
21
88.498951
0
LINE
8
Layer 1
10
129.547302
20
88.498951
11
129.191165
21
89.348737
0
LINE
8
Layer 1
10
129.191165
20
89.348737
11
128.597539
21
89.998306
0
LINE
8
Layer 1
10
128.597539
20
89.998306
11
127.766372
21
90.447691
0
LINE
8
Layer 1
10
127.766372
20
90.447691
11
128.537885
21
90.945531
0
LINE
8
Layer 1
10
128.537885
20
90.945531
11
129.088876
21
91.553028
0
LINE
8
Layer 1
10
129.088876
20
91.553028
11
129.419417
21
92.270216
0
LINE
8
Layer 1
10
129.419417
20
92.270216
11
129.529582
21
93.097131
0
LINE
8
Layer 1
10
129.529582
20
93.097131
11
129.342355
21
94.236834
0
LINE
8
Layer 1
10
129.342355
20
94.236834
11
128.780267
21
95.167801
0
LINE
8
Layer 1
10
128.780267
20
95.167801
11
127.938844
21
95.787557
0
LINE
8
Layer 1
10
127.938844
20
95.787557
11
126.914247
21
95.994106
0
LINE
8
Layer 1
10
126.914247
20
95.994106
11
126.913600
21
95.994090
0
LINE
8
Layer 1
10
43.682100
20
95.102156
11
44.120753
21
94.942411
0
LINE
8
Layer 1
10
44.120753
20
94.942411
11
44.434035
21
94.463177
0
LINE
8
Layer 1
10
44.434035
20
94.463177
11
44.621979
21
93.664454
0
LINE
8
Layer 1
10
44.621979
20
93.664454
11
44.684620
21
92.546246
0
LINE
8
Layer 1
10
44.684620
20
92.546246
11
44.621979
21
91.428036
0
LINE
8
Layer 1
10
44.621979
20
91.428036
11
44.434035
21
90.629314
0
LINE
8
Layer 1
10
44.434035
20
90.629314
11
44.120753
21
90.150081
0
LINE
8
Layer 1
10
44.120753
20
90.150081
11
43.682100
21
89.990336
0
LINE
8
Layer 1
10
43.682100
20
89.990336
11
43.226250
21
90.134155
0
LINE
8
Layer 1
10
43.226250
20
90.134155
11
42.900694
21
90.565571
0
LINE
8
Layer 1
10
42.900694
20
90.565571
11
42.705392
21
91.284528
0
LINE
8
Layer 1
10
42.705392
20
91.284528
11
42.640300
21
92.290966
0
LINE
8
Layer 1
10
42.640300
20
92.290966
11
42.705391
21
93.520949
0
LINE
8
Layer 1
10
42.705391
20
93.520949
11
42.900693
21
94.399440
0
LINE
8
Layer 1
10
42.900693
20
94.399440
11
43.226249
21
94.926494
0
LINE
8
Layer 1
10
43.226249
20
94.926494
11
43.682100
21
95.102166
0
LINE
8
Layer 1
10
43.682100
20
95.102166
11
43.682100
21
95.102156
0
LINE
8
Layer 1
10
66.880700
20
94.981747
11
66.075045
21
94.752780
0
LINE
8
Layer 1
10
66.075045
20
94.752780
11
65.402760
21
94.066041
0
LINE
8
Layer 1
10
65.402760
20
94.066041
11
64.948805
21
93.040624
0
LINE
8
Layer 1
10
64.948805
20
93.040624
11
64.797630
21
91.780911
0
LINE
8
Layer 1
10
64.797630
20
91.780911
11
64.925466
21
90.549941
0
LINE
8
Layer 1
10
64.925466
20
90.549941
11
65.309226
21
89.582101
0
LINE
8
Layer 1
10
65.309226
20
89.582101
11
65.905848
21
88.960391
0
LINE
8
Layer 1
10
65.905848
20
88.960391
11
66.657466
21
88.753202
0
LINE
8
Layer 1
10
66.657466
20
88.753202
11
67.190764
21
88.825569
0
LINE
8
Layer 1
10
67.190764
20
88.825569
11
65.359874
21
85.019089
0
LINE
8
Layer 1
10
65.359874
20
85.019089
11
66.614300
21
85.019100
0
LINE
8
Layer 1
10
66.614300
20
85.019100
11
68.019900
21
87.945540
0
LINE
8
Layer 1
10
68.019900
20
87.945540
11
68.684961
21
89.816306
0
LINE
8
Layer 1
10
68.684961
20
89.816306
11
68.906667
21
91.737540
0
LINE
8
Layer 1
10
68.906667
20
91.737540
11
68.766122
21
93.080310
0
LINE
8
Layer 1
10
68.766122
20
93.080310
11
68.344428
21
94.109490
0
LINE
8
Layer 1
10
68.344428
20
94.109490
11
67.697398
21
94.763711
0
LINE
8
Layer 1
10
67.697398
20
94.763711
11
66.880958
21
94.981787
0
LINE
8
Layer 1
10
66.880958
20
94.981787
11
66.880700
21
94.981747
0
LINE
8
Layer 1
10
66.866266
20
93.742027
11
67.187973
21
93.624887
0
LINE
8
Layer 1
10
67.187973
20
93.624887
11
67.417772
21
93.273462
0
LINE
8
Layer 1
10
67.417772
20
93.273462
11
67.601619
21
91.867727
0
LINE
8
Layer 1
10
67.601619
20
91.867727
11
67.417772
21
90.461732
0
LINE
8
Layer 1
10
67.417772
20
90.461732
11
67.187973
21
90.110129
0
LINE
8
Layer 1
10
67.187973
20
90.110129
11
66.866266
21
89.992907
0
LINE
8
Layer 1
10
66.866266
20
89.992907
11
66.532007
21
90.098391
0
LINE
8
Layer 1
10
66.532007
20
90.098391
11
66.293338
21
90.414799
0
LINE
8
Layer 1
10
66.293338
20
90.414799
11
66.102489
21
91.680137
0
LINE
8
Layer 1
10
66.102489
20
91.680137
11
66.293338
21
93.226527
0
LINE
8
Layer 1
10
66.293338
20
93.226527
11
66.532007
21
93.613149
0
LINE
8
Layer 1
10
66.532007
20
93.613149
11
66.866266
21
93.742027
0
LINE
8
Layer 1
10
66.866266
20
93.742027
11
66.866266
21
93.742027
0
LINE
8
Layer 1
10
70.280006
20
83.495627
11
69.579143
21
83.324537
0
LINE
8
Layer 1
10
69.579143
20
83.324537
11
68.944686
21
82.810915
0
LINE
8
Layer 1
10
68.944686
20
82.810915
11
68.493890
21
81.992897
0
LINE
8
Layer 1
10
68.493890
20
81.992897
11
68.343689
21
80.909235
0
LINE
8
Layer 1
10
68.343689
20
80.909235
11
68.591618
21
79.701564
0
LINE
8
Layer 1
10
68.591618
20
79.701564
11
69.335875
21
78.804965
0
LINE
8
Layer 1
10
69.335875
20
78.804965
11
68.852683
21
78.405636
0
LINE
8
Layer 1
10
68.852683
20
78.405636
11
68.507589
21
77.885739
0
LINE
8
Layer 1
10
68.507589
20
77.885739
11
68.300557
21
77.245260
0
LINE
8
Layer 1
10
68.300557
20
77.245260
11
68.231555
21
76.484185
0
LINE
8
Layer 1
10
68.231555
20
76.484185
11
68.371309
21
75.330765
0
LINE
8
Layer 1
10
68.371309
20
75.330765
11
68.790693
21
74.429015
0
LINE
8
Layer 1
10
68.790693
20
74.429015
11
69.446220
21
73.852292
0
LINE
8
Layer 1
10
69.446220
20
73.852292
11
70.280003
21
73.660057
0
LINE
8
Layer 1
10
70.280003
20
73.660057
11
71.118895
21
73.855776
0
LINE
8
Layer 1
10
71.118895
20
73.855776
11
71.776033
21
74.442961
0
LINE
8
Layer 1
10
71.776033
20
74.442961
11
72.200520
21
75.355171
0
LINE
8
Layer 1
10
72.200520
20
75.355171
11
72.341890
21
76.526021
0
LINE
8
Layer 1
10
72.341890
20
76.526021
11
72.272887
21
77.260910
0
LINE
8
Layer 1
10
72.272887
20
77.260910
11
72.065855
21
77.885699
0
LINE
8
Layer 1
10
72.065855
20
77.885699
11
71.720760
21
78.400384
0
LINE
8
Layer 1
10
71.720760
20
78.400384
11
71.237570
21
78.804961
0
LINE
8
Layer 1
10
71.237570
20
78.804961
11
71.976720
21
79.701555
0
LINE
8
Layer 1
10
71.976720
20
79.701555
11
72.223038
21
80.909231
0
LINE
8
Layer 1
10
72.223038
20
80.909231
11
72.074448
21
81.970054
0
LINE
8
Layer 1
10
72.074448
20
81.970054
11
71.628761
21
82.789731
0
LINE
8
Layer 1
10
71.628761
20
82.789731
11
70.998075
21
83.319189
0
LINE
8
Layer 1
10
70.998075
20
83.319189
11
70.280011
21
83.495626
0
LINE
8
Layer 1
10
70.280011
20
83.495626
11
70.280006
21
83.495627
0
LINE
8
Layer 1
10
70.265962
20
82.293637
11
70.553400
21
82.195308
0
LINE
8
Layer 1
10
70.553400
20
82.195308
11
70.758643
21
81.900339
0
LINE
8
Layer 1
10
70.758643
20
81.900339
11
70.922769
21
80.720607
0
LINE
8
Layer 1
10
70.922769
20
80.720607
11
70.740876
21
79.692747
0
LINE
8
Layer 1
10
70.740876
20
79.692747
11
70.534882
21
79.409762
0
LINE
8
Layer 1
10
70.534882
20
79.409762
11
70.265970
21
79.315524
0
LINE
8
Layer 1
10
70.265970
20
79.315524
11
69.994933
21
79.409784
0
LINE
8
Layer 1
10
69.994933
20
79.409784
11
69.783313
21
79.692747
0
LINE
8
Layer 1
10
69.783313
20
79.692747
11
69.601421
21
80.734547
0
LINE
8
Layer 1
10
69.601421
20
80.734547
11
69.767674
21
81.903806
0
LINE
8
Layer 1
10
69.767674
20
81.903806
11
69.975363
21
82.196166
0
LINE
8
Layer 1
10
69.975363
20
82.196166
11
70.265978
21
82.293627
0
LINE
8
Layer 1
10
70.265978
20
82.293627
11
70.265962
21
82.293637
0
LINE
8
Layer 1
10
70.280006
20
78.113017
11
70.628648
21
78.013820
0
LINE
8
Layer 1
10
70.628648
20
78.013820
11
70.877662
21
77.716241
0
LINE
8
Layer 1
10
70.877662
20
77.716241
11
71.076857
21
76.526027
0
LINE
8
Layer 1
10
71.076857
20
76.526027
11
70.853098
21
75.316807
0
LINE
8
Layer 1
10
70.853098
20
75.316807
11
70.601502
21
74.976095
0
LINE
8
Layer 1
10
70.601502
20
74.976095
11
70.280006
21
74.862575
0
LINE
8
Layer 1
10
70.280006
20
74.862575
11
69.961746
21
74.976116
0
LINE
8
Layer 1
10
69.961746
20
74.976116
11
69.706399
21
75.316807
0
LINE
8
Layer 1
10
69.706399
20
75.316807
11
69.489875
21
76.526027
0
LINE
8
Layer 1
10
69.489875
20
76.526027
11
69.687458
21
77.716242
0
LINE
8
Layer 1
10
69.687458
20
77.716242
11
69.934380
21
78.013820
0
LINE
8
Layer 1
10
69.934380
20
78.013820
11
70.280006
21
78.113017
0
LINE
8
Layer 1
10
70.280006
20
78.113017
11
70.280006
21
78.113017
0
LINE
8
Layer 1
10
123.379006
20
77.028847
11
120.137336
21
69.601407
0
LINE
8
Layer 1
10
120.137336
20
69.601407
11
120.138000
21
68.229400
0
LINE
8
Layer 1
10
120.138000
20
68.229400
11
123.274000
21
68.229400
0
LINE
8
Layer 1
10
123.274000
20
68.229400
11
123.274000
21
64.952600
0
LINE
8
Layer 1
10
123.274000
20
64.952600
11
124.812000
21
64.952600
0
LINE
8
Layer 1
10
124.812000
20
64.952600
11
124.812000
21
68.229400
0
LINE
8
Layer 1
10
124.812000
20
68.229400
11
125.476000
21
68.229400
0
LINE
8
Layer 1
10
125.476000
20
68.229400
11
125.476000
21
69.304300
0
LINE
8
Layer 1
10
125.476000
20
69.304300
11
124.812000
21
69.304300
0
LINE
8
Layer 1
10
124.812000
20
69.304300
11
124.812000
21
77.028900
0
LINE
8
Layer 1
10
124.812000
20
77.028900
11
123.379006
21
77.028847
0
LINE
8
Layer 1
10
77.135906
20
75.783967
11
77.136200
21
74.700300
0
LINE
8
Layer 1
10
77.136200
20
74.700300
11
79.506600
21
74.700300
0
LINE
8
Layer 1
10
79.506600
20
74.700300
11
77.861220
21
66.601060
0
LINE
8
Layer 1
10
77.861220
20
66.601060
11
78.985180
21
66.350430
0
LINE
8
Layer 1
10
78.985180
20
66.350430
11
80.922010
21
75.783960
0
LINE
8
Layer 1
10
80.922010
20
75.783960
11
77.135906
21
75.783967
0
LINE
8
Layer 1
10
52.828406
20
75.229476
11
51.864979
21
74.993939
0
LINE
8
Layer 1
10
51.864979
20
74.993939
11
50.992866
21
74.287424
0
LINE
8
Layer 1
10
50.992866
20
74.287424
11
50.372795
21
73.162890
0
LINE
8
Layer 1
10
50.372795
20
73.162890
11
50.166044
21
71.673104
0
LINE
8
Layer 1
10
50.166044
20
71.673104
11
50.251330
21
70.789380
0
LINE
8
Layer 1
10
50.251330
20
70.789380
11
50.507203
21
70.012563
0
LINE
8
Layer 1
10
50.507203
20
70.012563
11
50.933690
21
69.342680
0
LINE
8
Layer 1
10
50.933690
20
69.342680
11
51.530814
21
68.779754
0
LINE
8
Layer 1
10
51.530814
20
68.779754
11
50.866370
21
68.230698
0
LINE
8
Layer 1
10
50.866370
20
68.230698
11
50.391752
21
67.515865
0
LINE
8
Layer 1
10
50.391752
20
67.515865
11
50.106973
21
66.635224
0
LINE
8
Layer 1
10
50.106973
20
66.635224
11
50.012044
21
65.588744
0
LINE
8
Layer 1
10
50.012044
20
65.588744
11
50.204275
21
64.002888
0
LINE
8
Layer 1
10
50.204275
20
64.002888
11
50.780988
21
62.763074
0
LINE
8
Layer 1
10
50.780988
20
62.763074
11
51.682144
21
61.970106
0
LINE
8
Layer 1
10
51.682144
20
61.970106
11
52.828408
21
61.705784
0
LINE
8
Layer 1
10
52.828408
20
61.705784
11
53.981983
21
61.974853
0
LINE
8
Layer 1
10
53.981983
20
61.974853
11
54.885648
21
62.782194
0
LINE
8
Layer 1
10
54.885648
20
62.782194
11
55.469414
21
64.036587
0
LINE
8
Layer 1
10
55.469414
20
64.036587
11
55.663894
21
65.646624
0
LINE
8
Layer 1
10
55.663894
20
65.646624
11
55.569044
21
66.657027
0
LINE
8
Layer 1
10
55.569044
20
66.657027
11
55.284442
21
67.515969
0
LINE
8
Layer 1
10
55.284442
20
67.515969
11
54.810002
21
68.223524
0
LINE
8
Layer 1
10
54.810002
20
68.223524
11
54.145644
21
68.779764
0
LINE
8
Layer 1
10
54.145644
20
68.779764
11
54.738528
21
69.342690
0
LINE
8
Layer 1
10
54.738528
20
69.342690
11
55.161939
21
70.012573
0
LINE
8
Layer 1
10
55.161939
20
70.012573
11
55.415941
21
70.789390
0
LINE
8
Layer 1
10
55.415941
20
70.789390
11
55.500594
21
71.673114
0
LINE
8
Layer 1
10
55.500594
20
71.673114
11
55.296345
21
73.131864
0
LINE
8
Layer 1
10
55.296345
20
73.131864
11
54.683590
21
74.258994
0
LINE
8
Layer 1
10
54.683590
20
74.258994
11
53.816073
21
74.986941
0
LINE
8
Layer 1
10
53.816073
20
74.986941
11
52.828410
21
75.229486
0
LINE
8
Layer 1
10
52.828410
20
75.229486
11
52.828406
21
75.229476
0
LINE
8
Layer 1
10
90.268406
20
74.555102
11
88.951176
21
71.855012
0
LINE
8
Layer 1
10
88.951176
20
71.855012
11
88.336581
21
70.144480
0
LINE
8
Layer 1
10
88.336581
20
70.144480
11
88.131589
21
68.368412
0
LINE
8
Layer 1
10
88.131589
20
68.368412
11
88.264236
21
67.106792
0
LINE
8
Layer 1
10
88.264236
20
67.106792
11
88.662305
21
66.179392
0
LINE
8
Layer 1
10
88.662305
20
66.179392
11
89.255561
21
65.614266
0
LINE
8
Layer 1
10
89.255561
20
65.614266
11
89.973335
21
65.425961
0
LINE
8
Layer 1
10
89.973335
20
65.425961
11
90.709026
21
65.634135
0
LINE
8
Layer 1
10
90.709026
20
65.634135
11
91.316925
21
66.258469
0
LINE
8
Layer 1
10
91.316925
20
66.258469
11
91.729726
21
67.202117
0
LINE
8
Layer 1
10
91.729726
20
67.202117
11
91.867277
21
68.355479
0
LINE
8
Layer 1
10
91.867277
20
68.355479
11
91.751062
21
69.468049
0
LINE
8
Layer 1
10
91.751062
20
69.468049
11
91.402190
21
70.341399
0
LINE
8
Layer 1
10
91.402190
20
70.341399
11
90.866219
21
70.906544
0
LINE
8
Layer 1
10
90.866219
20
70.906544
11
90.189340
21
71.094850
0
LINE
8
Layer 1
10
90.189340
20
71.094850
11
89.704617
21
71.022484
0
LINE
8
Layer 1
10
89.704617
20
71.022484
11
91.421817
21
74.555084
0
LINE
8
Layer 1
10
91.421817
20
74.555084
11
90.268406
21
74.555102
0
LINE
8
Layer 1
10
123.239506
20
74.101378
11
123.274000
21
74.101400
0
LINE
8
Layer 1
10
123.274000
20
74.101400
11
123.274000
21
69.304300
0
LINE
8
Layer 1
10
123.274000
20
69.304300
11
121.195000
21
69.304300
0
LINE
8
Layer 1
10
121.195000
20
69.304300
11
123.239506
21
74.101378
0
LINE
8
Layer 1
10
52.809306
20
73.576340
11
53.204646
21
73.441181
0
LINE
8
Layer 1
10
53.204646
20
73.441181
11
53.487098
21
73.035695
0
LINE
8
Layer 1
10
53.487098
20
73.035695
11
53.713125
21
71.413690
0
LINE
8
Layer 1
10
53.713125
20
71.413690
11
53.650546
21
70.613549
0
LINE
8
Layer 1
10
53.650546
20
70.613549
11
53.463012
21
70.000870
0
LINE
8
Layer 1
10
53.463012
20
70.000870
11
53.179413
21
69.611428
0
LINE
8
Layer 1
10
53.179413
20
69.611428
11
52.809306
21
69.481509
0
LINE
8
Layer 1
10
52.809306
20
69.481509
11
52.436952
21
69.611457
0
LINE
8
Layer 1
10
52.436952
20
69.611457
11
52.146298
21
70.000870
0
LINE
8
Layer 1
10
52.146298
20
70.000870
11
51.958758
21
70.623125
0
LINE
8
Layer 1
10
51.958758
20
70.623125
11
51.896183
21
71.432810
0
LINE
8
Layer 1
10
51.896183
20
71.432810
11
51.953251
21
72.370592
0
LINE
8
Layer 1
10
51.953251
20
72.370592
11
52.124458
21
73.040447
0
LINE
8
Layer 1
10
52.124458
20
73.040447
11
52.409809
21
73.442366
0
LINE
8
Layer 1
10
52.409809
20
73.442366
11
52.809306
21
73.576340
0
LINE
8
Layer 1
10
52.809306
20
73.576340
11
52.809306
21
73.576340
0
LINE
8
Layer 1
10
89.986306
20
69.967790
11
90.290287
21
69.872704
0
LINE
8
Layer 1
10
90.290287
20
69.872704
11
90.507500
21
69.587490
0
LINE
8
Layer 1
10
90.507500
20
69.587490
11
90.681352
21
68.446960
0
LINE
8
Layer 1
10
90.681352
20
68.446960
11
90.510941
21
67.026489
0
LINE
8
Layer 1
10
90.510941
20
67.026489
11
90.297937
21
66.671386
0
LINE
8
Layer 1
10
90.297937
20
66.671386
11
89.999741
21
66.553020
0
LINE
8
Layer 1
10
89.999741
20
66.553020
11
89.701545
21
66.659922
0
LINE
8
Layer 1
10
89.701545
20
66.659922
11
89.488539
21
66.980631
0
LINE
8
Layer 1
10
89.488539
20
66.980631
11
89.318128
21
68.263500
0
LINE
8
Layer 1
10
89.318128
20
68.263500
11
89.485098
21
69.541625
0
LINE
8
Layer 1
10
89.485098
20
69.541625
11
89.693894
21
69.861231
0
LINE
8
Layer 1
10
89.693894
20
69.861231
11
89.986305
21
69.967780
0
LINE
8
Layer 1
10
89.986305
20
69.967780
11
89.986306
21
69.967790
0
LINE
8
Layer 1
10
142.114306
20
68.083670
11
137.900096
21
58.427950
0
LINE
8
Layer 1
10
137.900096
20
58.427950
11
137.900000
21
56.644600
0
LINE
8
Layer 1
10
137.900000
20
56.644600
11
141.978000
21
56.644600
0
LINE
8
Layer 1
10
141.978000
20
56.644600
11
141.978000
21
52.384400
0
LINE
8
Layer 1
10
141.978000
20
52.384400
11
143.977000
21
52.384400
0
LINE
8
Layer 1
10
143.977000
20
52.384400
11
143.977000
21
56.644600
0
LINE
8
Layer 1
10
143.977000
20
56.644600
11
144.841000
21
56.644600
0
LINE
8
Layer 1
10
144.841000
20
56.644600
11
144.841000
21
58.041400
0
LINE
8
Layer 1
10
144.841000
20
58.041400
11
143.977000
21
58.041400
0
LINE
8
Layer 1
10
143.977000
20
58.041400
11
143.977000
21
68.083700
0
LINE
8
Layer 1
10
143.977000
20
68.083700
11
142.114306
21
68.083670
0
LINE
8
Layer 1
10
52.828406
20
67.828398
11
53.307851
21
67.692049
0
LINE
8
Layer 1
10
53.307851
20
67.692049
11
53.650378
21
67.282985
0
LINE
8
Layer 1
10
53.650378
20
67.282985
11
53.855935
21
66.601183
0
LINE
8
Layer 1
10
53.855935
20
66.601183
11
53.924466
21
65.646618
0
LINE
8
Layer 1
10
53.924466
20
65.646618
11
53.847622
21
64.711810
0
LINE
8
Layer 1
10
53.847622
20
64.711810
11
53.616990
21
63.983668
0
LINE
8
Layer 1
10
53.616990
20
63.983668
11
53.270759
21
63.515085
0
LINE
8
Layer 1
10
53.270759
20
63.515085
11
52.828410
21
63.358897
0
LINE
8
Layer 1
10
52.828410
20
63.358897
11
52.391123
21
63.515085
0
LINE
8
Layer 1
10
52.391123
20
63.515085
11
52.040344
21
63.983668
0
LINE
8
Layer 1
10
52.040344
20
63.983668
11
51.817023
21
64.716614
0
LINE
8
Layer 1
10
51.817023
20
64.716614
11
51.742689
21
65.646618
0
LINE
8
Layer 1
10
51.742689
20
65.646618
11
51.810505
21
66.601185
0
LINE
8
Layer 1
10
51.810505
20
66.601185
11
52.014009
21
67.282987
0
LINE
8
Layer 1
10
52.014009
20
67.282987
11
52.353283
21
67.692050
0
LINE
8
Layer 1
10
52.353283
20
67.692050
11
52.828409
21
67.828398
0
LINE
8
Layer 1
10
52.828409
20
67.828398
11
52.828406
21
67.828398
0
LINE
8
Layer 1
10
33.743306
20
65.555158
11
32.582435
21
65.271417
0
LINE
8
Layer 1
10
32.582435
20
65.271417
11
31.531556
21
64.420348
0
LINE
8
Layer 1
10
31.531556
20
64.420348
11
31.095916
21
63.798039
0
LINE
8
Layer 1
10
31.095916
20
63.798039
11
30.784724
21
63.065752
0
LINE
8
Layer 1
10
30.784724
20
63.065752
11
30.535752
21
61.271178
0
LINE
8
Layer 1
10
30.535752
20
61.271178
11
30.638547
21
60.206714
0
LINE
8
Layer 1
10
30.638547
20
60.206714
11
30.946900
21
59.271048
0
LINE
8
Layer 1
10
30.946900
20
59.271048
11
31.460765
21
58.464188
0
LINE
8
Layer 1
10
31.460765
20
58.464188
11
32.180092
21
57.786138
0
LINE
8
Layer 1
10
32.180092
20
57.786138
11
31.379755
21
57.124779
0
LINE
8
Layer 1
10
31.379755
20
57.124779
11
30.808087
21
56.263738
0
LINE
8
Layer 1
10
30.808087
20
56.263738
11
30.465085
21
55.202972
0
LINE
8
Layer 1
10
30.465085
20
55.202972
11
30.350752
21
53.942438
0
LINE
8
Layer 1
10
30.350752
20
53.942438
11
30.582210
21
52.031810
0
LINE
8
Layer 1
10
30.582210
20
52.031810
11
31.276792
21
50.538008
0
LINE
8
Layer 1
10
31.276792
20
50.538008
11
31.782669
21
49.980852
0
LINE
8
Layer 1
10
31.782669
20
49.980852
11
32.362427
21
49.582948
0
LINE
8
Layer 1
10
32.362427
20
49.582948
11
33.015995
21
49.344244
0
LINE
8
Layer 1
10
33.015995
20
49.344244
11
33.743302
21
49.264688
0
LINE
8
Layer 1
10
33.743302
20
49.264688
11
34.475562
21
49.345708
0
LINE
8
Layer 1
10
34.475562
20
49.345708
11
35.132500
21
49.588787
0
LINE
8
Layer 1
10
35.132500
20
49.588787
11
35.714182
21
49.993960
0
LINE
8
Layer 1
10
35.714182
20
49.993960
11
36.220672
21
50.561258
0
LINE
8
Layer 1
10
36.220672
20
50.561258
11
36.630986
21
51.263202
0
LINE
8
Layer 1
10
36.630986
20
51.263202
11
36.924092
21
52.072271
0
LINE
8
Layer 1
10
36.924092
20
52.072271
11
37.158599
21
54.011678
0
LINE
8
Layer 1
10
37.158599
20
54.011678
11
37.044264
21
55.228821
0
LINE
8
Layer 1
10
37.044264
20
55.228821
11
36.701262
21
56.263613
0
LINE
8
Layer 1
10
36.701262
20
56.263613
11
36.129593
21
57.116051
0
LINE
8
Layer 1
10
36.129593
20
57.116051
11
35.329259
21
57.786128
0
LINE
8
Layer 1
10
35.329259
20
57.786128
11
36.043474
21
58.464179
0
LINE
8
Layer 1
10
36.043474
20
58.464179
11
36.553616
21
59.271042
0
LINE
8
Layer 1
10
36.553616
20
59.271042
11
36.859695
21
60.206708
0
LINE
8
Layer 1
10
36.859695
20
60.206708
11
36.961719
21
61.271168
0
LINE
8
Layer 1
10
36.961719
20
61.271168
11
36.715795
21
63.028165
0
LINE
8
Layer 1
10
36.715795
20
63.028165
11
36.408328
21
63.756874
0
LINE
8
Layer 1
10
36.408328
20
63.756874
11
35.977802
21
64.385718
0
LINE
8
Layer 1
10
35.977802
20
64.385718
11
34.932919
21
65.262772
0
LINE
8
Layer 1
10
34.932919
20
65.262772
11
34.356214
21
65.482052
0
LINE
8
Layer 1
10
34.356214
20
65.482052
11
33.743312
21
65.555148
0
LINE
8
Layer 1
10
33.743312
20
65.555148
11
33.743306
21
65.555158
0
LINE
8
Layer 1
10
141.933306
20
64.278228
11
141.978000
21
64.278300
0
LINE
8
Layer 1
10
141.978000
20
64.278300
11
141.978000
21
58.041400
0
LINE
8
Layer 1
10
141.978000
20
58.041400
11
139.275000
21
58.041400
0
LINE
8
Layer 1
10
139.275000
20
58.041400
11
141.933306
21
64.278228
0
LINE
8
Layer 1
10
33.720306
20
63.563555
11
34.196448
21
63.400747
0
LINE
8
Layer 1
10
34.196448
20
63.400747
11
34.536540
21
62.912315
0
LINE
8
Layer 1
10
34.536540
20
62.912315
11
34.740591
21
62.098248
0
LINE
8
Layer 1
10
34.740591
20
62.098248
11
34.808606
21
60.958535
0
LINE
8
Layer 1
10
34.808606
20
60.958535
11
34.733225
21
59.994551
0
LINE
8
Layer 1
10
34.733225
20
59.994551
11
34.507333
21
59.256325
0
LINE
8
Layer 1
10
34.507333
20
59.256325
11
34.165918
21
58.787633
0
LINE
8
Layer 1
10
34.165918
20
58.787633
11
33.720303
21
58.631554
0
LINE
8
Layer 1
10
33.720303
20
58.631554
11
33.271636
21
58.787632
0
LINE
8
Layer 1
10
33.271636
20
58.787632
11
32.921386
21
59.256325
0
LINE
8
Layer 1
10
32.921386
20
59.256325
11
32.695491
21
60.006169
0
LINE
8
Layer 1
10
32.695491
20
60.006169
11
32.620111
21
60.981785
0
LINE
8
Layer 1
10
32.620111
20
60.981785
11
32.688898
21
62.111356
0
LINE
8
Layer 1
10
32.688898
20
62.111356
11
32.895226
21
62.918154
0
LINE
8
Layer 1
10
32.895226
20
62.918154
11
33.239044
21
63.402210
0
LINE
8
Layer 1
10
33.239044
20
63.402210
11
33.720301
21
63.563555
0
LINE
8
Layer 1
10
33.720301
20
63.563555
11
33.720306
21
63.563555
0
LINE
8
Layer 1
10
107.261506
20
63.148062
11
107.261000
21
56.708200
0
LINE
8
Layer 1
10
107.261000
20
56.708200
11
107.897143
21
56.779591
0
LINE
8
Layer 1
10
107.897143
20
56.779591
11
108.743497
21
56.631786
0
LINE
8
Layer 1
10
108.743497
20
56.631786
11
109.383853
21
56.188409
0
LINE
8
Layer 1
10
109.383853
20
56.188409
11
109.786931
21
55.483282
0
LINE
8
Layer 1
10
109.786931
20
55.483282
11
109.921296
21
54.549749
0
LINE
8
Layer 1
10
109.921296
20
54.549749
11
109.793618
21
53.580057
0
LINE
8
Layer 1
10
109.793618
20
53.580057
11
109.410732
21
52.838759
0
LINE
8
Layer 1
10
109.410732
20
52.838759
11
108.819724
21
52.368594
0
LINE
8
Layer 1
10
108.819724
20
52.368594
11
108.049582
21
52.211921
0
LINE
8
Layer 1
10
108.049582
20
52.211921
11
106.813482
21
52.489411
0
LINE
8
Layer 1
10
106.813482
20
52.489411
11
106.814000
21
51.002700
0
LINE
8
Layer 1
10
106.814000
20
51.002700
11
107.575195
21
50.754230
0
LINE
8
Layer 1
10
107.575195
20
50.754230
11
108.336390
21
50.671453
0
LINE
8
Layer 1
10
108.336390
20
50.671453
11
109.585996
21
50.951207
0
LINE
8
Layer 1
10
109.585996
20
50.951207
11
110.611700
21
51.790753
0
LINE
8
Layer 1
10
110.611700
20
51.790753
11
111.303537
21
53.058300
0
LINE
8
Layer 1
10
111.303537
20
53.058300
11
111.534110
21
54.603513
0
LINE
8
Layer 1
10
111.534110
20
54.603513
11
111.363402
21
55.983376
0
LINE
8
Layer 1
10
111.363402
20
55.983376
11
110.851253
21
57.023983
0
LINE
8
Layer 1
10
110.851253
20
57.023983
11
109.997631
21
57.725357
0
LINE
8
Layer 1
10
109.997631
20
57.725357
11
108.802500
21
58.087523
0
LINE
8
Layer 1
10
108.802500
20
58.087523
11
108.802000
21
61.714700
0
LINE
8
Layer 1
10
108.802000
20
61.714700
11
111.149000
21
61.714700
0
LINE
8
Layer 1
10
111.149000
20
61.714700
11
111.149000
21
63.148200
0
LINE
8
Layer 1
10
111.149000
20
63.148200
11
107.261506
21
63.148062
0
LINE
8
Layer 1
10
65.841906
20
59.381372
11
65.841800
21
57.878700
0
LINE
8
Layer 1
10
65.841800
20
57.878700
11
69.129400
21
57.878700
0
LINE
8
Layer 1
10
69.129400
20
57.878700
11
66.846850
21
46.644300
0
LINE
8
Layer 1
10
66.846850
20
46.644300
11
68.405930
21
46.296512
0
LINE
8
Layer 1
10
68.405930
20
46.296512
11
71.092580
21
59.381512
0
LINE
8
Layer 1
10
71.092580
20
59.381512
11
65.841906
21
59.381372
0
LINE
8
Layer 1
10
33.743606
20
56.639952
11
34.321051
21
56.475681
0
LINE
8
Layer 1
10
34.321051
20
56.475681
11
34.733492
21
55.982873
0
LINE
8
Layer 1
10
34.733492
20
55.982873
11
34.980945
21
55.161537
0
LINE
8
Layer 1
10
34.980945
20
55.161537
11
35.063426
21
54.011682
0
LINE
8
Layer 1
10
35.063426
20
54.011682
11
34.970794
21
52.885739
0
LINE
8
Layer 1
10
34.970794
20
52.885739
11
34.692906
21
52.008712
0
LINE
8
Layer 1
10
34.692906
20
52.008712
11
34.276150
21
51.444373
0
LINE
8
Layer 1
10
34.276150
20
51.444373
11
33.743611
21
51.256315
0
LINE
8
Layer 1
10
33.743611
20
51.256315
11
33.216604
21
51.444373
0
LINE
8
Layer 1
10
33.216604
20
51.444373
11
32.793799
21
52.008712
0
LINE
8
Layer 1
10
32.793799
20
52.008712
11
32.524752
21
52.891519
0
LINE
8
Layer 1
10
32.524752
20
52.891519
11
32.435165
21
54.011682
0
LINE
8
Layer 1
10
32.435165
20
54.011682
11
32.516954
21
55.161538
0
LINE
8
Layer 1
10
32.516954
20
55.161538
11
32.762307
21
55.982874
0
LINE
8
Layer 1
10
32.762307
20
55.982874
11
33.171202
21
56.475681
0
LINE
8
Layer 1
10
33.171202
20
56.475681
11
33.743615
21
56.639952
0
LINE
8
Layer 1
10
33.743615
20
56.639952
11
33.743606
21
56.639952
0
LINE
8
Layer 1
10
91.990606
20
56.382085
11
90.376236
21
56.381559
0
LINE
8
Layer 1
10
90.376236
20
56.381559
11
88.531906
21
52.601429
0
LINE
8
Layer 1
10
88.531906
20
52.601429
11
87.671576
21
50.206896
0
LINE
8
Layer 1
10
87.671576
20
50.206896
11
87.384686
21
47.720609
0
LINE
8
Layer 1
10
87.384686
20
47.720609
11
87.570703
21
45.954429
0
LINE
8
Layer 1
10
87.570703
20
45.954429
11
88.128310
21
44.656189
0
LINE
8
Layer 1
10
88.128310
20
44.656189
11
88.958662
21
43.864797
0
LINE
8
Layer 1
10
88.958662
20
43.864797
11
89.963340
21
43.600969
0
LINE
8
Layer 1
10
89.963340
20
43.600969
11
90.500597
21
43.673809
0
LINE
8
Layer 1
10
90.500597
20
43.673809
11
90.993051
21
43.892318
0
LINE
8
Layer 1
10
90.993051
20
43.892318
11
91.843840
21
44.766269
0
LINE
8
Layer 1
10
91.843840
20
44.766269
11
92.422022
21
46.087339
0
LINE
8
Layer 1
10
92.422022
20
46.087339
11
92.614850
21
47.702009
0
LINE
8
Layer 1
10
92.614850
20
47.702009
11
92.451887
21
49.259551
0
LINE
8
Layer 1
10
92.451887
20
49.259551
11
91.963212
21
50.482189
0
LINE
8
Layer 1
10
91.963212
20
50.482189
11
91.213318
21
51.273590
0
LINE
8
Layer 1
10
91.213318
20
51.273590
11
90.266162
21
51.537429
0
LINE
8
Layer 1
10
90.266162
20
51.537429
11
89.587134
21
51.436584
0
LINE
8
Layer 1
10
89.587134
20
51.436584
11
91.990606
21
56.382085
0
LINE
8
Layer 1
10
89.981426
20
49.959235
11
90.406921
21
49.826206
0
LINE
8
Layer 1
10
90.406921
20
49.826206
11
90.710842
21
49.427110
0
LINE
8
Layer 1
10
90.710842
20
49.427110
11
90.893192
21
48.761940
0
LINE
8
Layer 1
10
90.893192
20
48.761940
11
90.953975
21
47.830685
0
LINE
8
Layer 1
10
90.953975
20
47.830685
11
90.894378
21
46.670624
0
LINE
8
Layer 1
10
90.894378
20
46.670624
11
90.715556
21
45.842027
0
LINE
8
Layer 1
10
90.715556
20
45.842027
11
90.417456
21
45.344878
0
LINE
8
Layer 1
10
90.417456
20
45.344878
11
90.000030
21
45.179165
0
LINE
8
Layer 1
10
90.000030
20
45.179165
11
89.582522
21
45.328832
0
LINE
8
Layer 1
10
89.582522
20
45.328832
11
89.284244
21
45.777833
0
LINE
8
Layer 1
10
89.284244
20
45.777833
11
89.105243
21
46.526173
0
LINE
8
Layer 1
10
89.105243
20
46.526173
11
89.045566
21
47.573855
0
LINE
8
Layer 1
10
89.045566
20
47.573855
11
89.104057
21
48.617500
0
LINE
8
Layer 1
10
89.104057
20
48.617500
11
89.279530
21
49.362927
0
LINE
8
Layer 1
10
89.279530
20
49.362927
11
89.571986
21
49.810163
0
LINE
8
Layer 1
10
89.571986
20
49.810163
11
89.981425
21
49.959235
0
LINE
8
Layer 1
10
89.981425
20
49.959235
11
89.981426
21
49.959235
0
LINE
8
Layer 1
10
117.807626
20
45.808065
11
117.808000
21
37.483500
0
LINE
8
Layer 1
10
117.808000
20
37.483500
11
118.629662
21
37.575958
0
LINE
8
Layer 1
10
118.629662
20
37.575958
11
119.723997
21
37.384847
0
LINE
8
Layer 1
10
119.723997
20
37.384847
11
120.552022
21
36.811661
0
LINE
8
Layer 1
10
120.552022
20
36.811661
11
121.072973
21
35.899927
0
LINE
8
Layer 1
10
121.072973
20
35.899927
11
121.246565
21
34.692941
0
LINE
8
Layer 1
10
121.246565
20
34.692941
11
121.081595
21
33.439704
0
LINE
8
Layer 1
10
121.081595
20
33.439704
11
120.586645
21
32.481701
0
LINE
8
Layer 1
10
120.586645
20
32.481701
11
119.822378
21
31.873686
0
LINE
8
Layer 1
10
119.822378
20
31.873686
11
118.826555
21
31.670904
0
LINE
8
Layer 1
10
118.826555
20
31.670904
11
117.228715
21
32.030045
0
LINE
8
Layer 1
10
117.228715
20
32.030045
11
117.228000
21
30.108200
0
LINE
8
Layer 1
10
117.228000
20
30.108200
11
117.228000
21
30.107700
0
LINE
8
Layer 1
10
117.228000
20
30.107700
11
118.212174
21
29.786396
0
LINE
8
Layer 1
10
118.212174
20
29.786396
11
119.196350
21
29.679294
0
LINE
8
Layer 1
10
119.196350
20
29.679294
11
120.040114
21
29.769778
0
LINE
8
Layer 1
10
120.040114
20
29.769778
11
120.811525
21
30.041208
0
LINE
8
Layer 1
10
120.811525
20
30.041208
11
121.510576
21
30.493548
0
LINE
8
Layer 1
10
121.510576
20
30.493548
11
122.137260
21
31.126764
0
LINE
8
Layer 1
10
122.137260
20
31.126764
11
122.659014
21
31.901033
0
LINE
8
Layer 1
10
122.659014
20
31.901033
11
123.031731
21
32.765015
0
LINE
8
Layer 1
10
123.031731
20
32.765015
11
123.255383
21
33.718729
0
LINE
8
Layer 1
10
123.255383
20
33.718729
11
123.329940
21
34.762194
0
LINE
8
Layer 1
10
123.329940
20
34.762194
11
123.109195
21
36.545989
0
LINE
8
Layer 1
10
123.109195
20
36.545989
11
122.446989
21
37.891298
0
LINE
8
Layer 1
10
122.446989
20
37.891298
11
121.950353
21
38.399507
0
LINE
8
Layer 1
10
121.950353
20
38.399507
11
121.343369
21
38.798079
0
LINE
8
Layer 1
10
121.343369
20
38.798079
11
119.798380
21
39.266294
0
LINE
8
Layer 1
10
119.798380
20
39.266294
11
119.799000
21
43.955500
0
LINE
8
Layer 1
10
119.799000
20
43.955500
11
122.832000
21
43.955500
0
LINE
8
Layer 1
10
122.832000
20
43.955500
11
122.832000
21
45.808100
0
LINE
8
Layer 1
10
122.832000
20
45.808100
11
117.807626
21
45.808065
0
LINE
8
Layer 1
10
54.890126
20
43.056815
11
54.890000
21
41.204800
0
LINE
8
Layer 1
10
54.890000
20
41.204800
11
58.942500
21
41.204800
0
LINE
8
Layer 1
10
58.942500
20
41.204800
11
56.129240
21
27.357100
0
LINE
8
Layer 1
10
56.129240
20
27.357100
11
58.051080
21
26.928694
0
LINE
8
Layer 1
10
58.051080
20
26.928694
11
61.362500
21
43.056894
0
LINE
8
Layer 1
10
61.362500
20
43.056894
11
54.890126
21
43.056815
0
LINE
8
Layer 1
10
90.474426
20
36.844805
11
88.147436
21
32.074565
0
LINE
8
Layer 1
10
88.147436
20
32.074565
11
87.514229
21
30.578131
0
LINE
8
Layer 1
10
87.514229
20
30.578131
11
87.061891
21
29.052799
0
LINE
8
Layer 1
10
87.061891
20
29.052799
11
86.790461
21
27.498522
0
LINE
8
Layer 1
10
86.790461
20
27.498522
11
86.699976
21
25.915255
0
LINE
8
Layer 1
10
86.699976
20
25.915255
11
86.934484
21
23.686532
0
LINE
8
Layer 1
10
86.934484
20
23.686532
11
87.227589
21
22.793618
0
LINE
8
Layer 1
10
87.227589
20
22.793618
11
87.637903
21
22.048305
0
LINE
8
Layer 1
10
87.637903
20
22.048305
11
88.134314
21
21.465750
0
LINE
8
Layer 1
10
88.134314
20
21.465750
11
88.685721
21
21.049587
0
LINE
8
Layer 1
10
88.685721
20
21.049587
11
89.292124
21
20.799858
0
LINE
8
Layer 1
10
89.292124
20
20.799858
11
89.953523
21
20.716605
0
LINE
8
Layer 1
10
89.953523
20
20.716605
11
90.631562
21
20.808473
0
LINE
8
Layer 1
10
90.631562
20
20.808473
11
91.253156
21
21.084102
0
LINE
8
Layer 1
10
91.253156
20
21.084102
11
91.818309
21
21.543530
0
LINE
8
Layer 1
10
91.818309
20
21.543530
11
92.327023
21
22.186795
0
LINE
8
Layer 1
10
92.327023
20
22.186795
11
93.056436
21
23.854151
0
LINE
8
Layer 1
10
93.056436
20
23.854151
11
93.299572
21
25.891985
0
LINE
8
Layer 1
10
93.299572
20
25.891985
11
93.093998
21
27.857445
0
LINE
8
Layer 1
10
93.093998
20
27.857445
11
92.477401
21
29.400295
0
LINE
8
Layer 1
10
92.477401
20
29.400295
11
92.035257
21
29.982771
0
LINE
8
Layer 1
10
92.035257
20
29.982771
11
91.530874
21
30.398759
0
LINE
8
Layer 1
10
91.530874
20
30.398759
11
90.964259
21
30.648313
0
LINE
8
Layer 1
10
90.964259
20
30.648313
11
90.335421
21
30.731485
0
LINE
8
Layer 1
10
90.335421
20
30.731485
11
89.478627
21
30.604307
0
LINE
8
Layer 1
10
89.478627
20
30.604307
11
92.512547
21
36.844757
0
LINE
8
Layer 1
10
92.512547
20
36.844757
11
90.474426
21
36.844805
0
LINE
8
Layer 1
10
89.976782
20
28.740395
11
90.513720
21
28.572507
0
LINE
8
Layer 1
10
90.513720
20
28.572507
11
90.897256
21
28.068848
0
LINE
8
Layer 1
10
90.897256
20
28.068848
11
91.127382
21
27.229427
0
LINE
8
Layer 1
10
91.127382
20
27.229427
11
91.204092
21
26.054255
0
LINE
8
Layer 1
10
91.204092
20
26.054255
11
91.128844
21
24.590352
0
LINE
8
Layer 1
10
91.128844
20
24.590352
11
90.903093
21
23.544715
0
LINE
8
Layer 1
10
90.903093
20
23.544715
11
90.526826
21
22.917339
0
LINE
8
Layer 1
10
90.526826
20
22.917339
11
90.000032
21
22.708215
0
LINE
8
Layer 1
10
90.000032
20
22.708215
11
89.473238
21
22.897026
0
LINE
8
Layer 1
10
89.473238
20
22.897026
11
89.096971
21
23.463505
0
LINE
8
Layer 1
10
89.096971
20
23.463505
11
88.871220
21
24.407722
0
LINE
8
Layer 1
10
88.871220
20
24.407722
11
88.795972
21
25.729745
0
LINE
8
Layer 1
10
88.795972
20
25.729745
11
88.869757
21
27.046809
0
LINE
8
Layer 1
10
88.869757
20
27.046809
11
89.091134
21
27.987652
0
LINE
8
Layer 1
10
89.091134
20
27.987652
11
89.460132
21
28.552206
0
LINE
8
Layer 1
10
89.460132
20
28.552206
11
89.976782
21
28.740405
0
LINE
8
Layer 1
10
89.976782
20
28.740405
11
89.976782
21
28.740395
0
LINE
8
minute marks
10
81.976800
20
174.246000
11
80.241000
21
174.002000
0
LINE
8
minute marks
10
80.241000
20
174.002000
11
80.544300
21
171.390000
0
LINE
8
minute marks
10
80.544300
20
171.390000
11
82.223800
21
171.654000
0
LINE
8
minute marks
10
82.223800
20
171.654000
11
81.976800
21
174.246000
0
LINE
8
minute marks
10
81.976800
20
174.246000
11
81.976800
21
174.246000
0
LINE
8
minute marks
10
73.162900
20
172.507000
11
71.477200
21
172.055000
0
LINE
8
minute marks
10
71.477200
20
172.055000
11
72.048200
21
169.525000
0
LINE
8
minute marks
10
72.048200
20
169.525000
11
73.684300
21
169.951000
0
LINE
8
minute marks
10
73.684300
20
169.951000
11
73.162900
21
172.507000
0
LINE
8
minute marks
10
73.162900
20
172.507000
11
73.162900
21
172.507000
0
LINE
8
minute marks
10
65.142700
20
170.017000
11
63.522700
21
169.391000
0
LINE
8
minute marks
10
63.522700
20
169.391000
11
64.339700
21
166.942000
0
LINE
8
minute marks
10
64.339700
20
166.942000
11
65.909600
21
167.549000
0
LINE
8
minute marks
10
65.909600
20
167.549000
11
65.142700
21
170.017000
0
LINE
8
minute marks
10
65.142700
20
170.017000
11
65.142700
21
170.017000
0
LINE
8
minute marks
10
57.068800
20
166.557000
11
55.535000
21
165.761000
0
LINE
8
minute marks
10
55.535000
20
165.761000
11
56.588200
21
163.445000
0
LINE
8
minute marks
10
56.588200
20
163.445000
11
58.085300
21
164.193000
0
LINE
8
minute marks
10
58.085300
20
164.193000
11
57.068800
21
166.557000
0
LINE
8
minute marks
10
57.068800
20
166.557000
11
57.068800
21
166.557000
0
LINE
8
minute marks
10
49.201100
20
162.122000
11
48.501900
21
161.671000
0
LINE
8
minute marks
10
48.501900
20
161.671000
11
49.210900
21
162.105000
0
LINE
8
minute marks
10
49.210900
20
162.105000
11
49.201100
21
162.122000
0
LINE
8
minute marks
10
49.201100
20
162.122000
11
49.201100
21
162.122000
0
LINE
8
minute marks
10
48.462600
20
161.645000
11
47.758800
21
161.191000
0
LINE
8
minute marks
10
47.758800
20
161.191000
11
47.770100
21
161.171000
0
LINE
8
minute marks
10
47.770100
20
161.171000
11
48.462600
21
161.645000
0
LINE
8
minute marks
10
48.462600
20
161.645000
11
48.462600
21
161.645000
0
LINE
8
minute marks
10
49.924500
20
159.595000
11
49.526100
21
159.336000
0
LINE
8
minute marks
10
49.526100
20
159.336000
11
49.924500
21
159.595000
0
LINE
8
minute marks
10
49.924500
20
159.595000
11
49.924500
21
159.595000
0
LINE
8
minute marks
10
42.089300
20
157.079000
11
40.747300
21
156.022000
0
LINE
8
minute marks
10
40.747300
20
156.022000
11
42.240800
21
154.020000
0
LINE
8
minute marks
10
42.240800
20
154.020000
11
43.533200
21
155.057000
0
LINE
8
minute marks
10
43.533200
20
155.057000
11
42.089300
21
157.079000
0
LINE
8
minute marks
10
42.089300
20
157.079000
11
42.089300
21
157.079000
0
LINE
8
minute marks
10
95.942900
20
152.402000
11
95.743900
21
150.314000
0
LINE
8
minute marks
10
95.743900
20
150.314000
11
97.000200
21
150.258000
0
LINE
8
minute marks
10
97.000200
20
150.258000
11
97.240000
21
152.324000
0
LINE
8
minute marks
10
97.240000
20
152.324000
11
95.942900
21
152.402000
0
LINE
8
minute marks
10
95.942900
20
152.402000
11
95.942900
21
152.402000
0
LINE
8
minute marks
10
102.607000
20
151.775000
11
102.191000
21
149.739000
0
LINE
8
minute marks
10
102.191000
20
149.739000
11
103.439000
21
149.536000
0
LINE
8
minute marks
10
103.439000
20
149.536000
11
103.895000
21
151.559000
0
LINE
8
minute marks
10
103.895000
20
151.559000
11
102.607000
21
151.775000
0
LINE
8
minute marks
10
102.607000
20
151.775000
11
102.607000
21
151.775000
0
LINE
8
minute marks
10
84.123400
20
151.704000
11
82.854800
21
151.503000
0
LINE
8
minute marks
10
82.854800
20
151.503000
11
83.103900
21
149.363000
0
LINE
8
minute marks
10
83.103900
20
149.363000
11
84.325500
21
149.582000
0
LINE
8
minute marks
10
84.325500
20
149.582000
11
84.123400
21
151.704000
0
LINE
8
minute marks
10
84.123400
20
151.704000
11
84.123400
21
151.704000
0
LINE
8
minute marks
10
35.677300
20
151.481000
11
34.457300
21
150.298000
0
LINE
8
minute marks
10
34.457300
20
150.298000
11
36.120700
21
148.492000
0
LINE
8
minute marks
10
36.120700
20
148.492000
11
37.305700
21
149.638000
0
LINE
8
minute marks
10
37.305700
20
149.638000
11
35.677300
21
151.481000
0
LINE
8
minute marks
10
35.677300
20
151.481000
11
35.677300
21
151.481000
0
LINE
8
minute marks
10
108.802000
20
150.525000
11
108.188000
21
148.550000
0
LINE
8
minute marks
10
108.188000
20
148.550000
11
109.419000
21
148.229000
0
LINE
8
minute marks
10
109.419000
20
148.229000
11
110.068000
21
150.175000
0
LINE
8
minute marks
10
110.068000
20
150.175000
11
108.802000
21
150.525000
0
LINE
8
minute marks
10
108.802000
20
150.525000
11
108.802000
21
150.525000
0
LINE
8
minute marks
10
77.688200
20
150.329000
11
76.461900
21
149.974000
0
LINE
8
minute marks
10
76.461900
20
149.974000
11
76.934200
21
147.882000
0
LINE
8
minute marks
10
76.934200
20
147.882000
11
78.119700
21
148.215000
0
LINE
8
minute marks
10
78.119700
20
148.215000
11
77.688200
21
150.329000
0
LINE
8
minute marks
10
77.688200
20
150.329000
11
77.688200
21
150.329000
0
LINE
8
minute marks
10
90.039900
20
150.230000
11
89.885400
21
150.218000
0
LINE
8
minute marks
10
89.885400
20
150.218000
11
90.039900
21
150.230000
0
LINE
8
minute marks
10
90.039900
20
150.230000
11
90.039900
21
150.230000
0
LINE
8
minute marks
10
115.172000
20
148.519000
11
114.366000
21
146.643000
0
LINE
8
minute marks
10
114.366000
20
146.643000
11
115.559000
21
146.183000
0
LINE
8
minute marks
10
115.559000
20
146.183000
11
116.403000
21
148.040000
0
LINE
8
minute marks
10
116.403000
20
148.040000
11
115.172000
21
148.519000
0
LINE
8
minute marks
10
115.172000
20
148.519000
11
115.172000
21
148.519000
0
LINE
8
minute marks
10
71.853900
20
148.414000
11
70.679800
21
147.932000
0
LINE
8
minute marks
10
70.679800
20
147.932000
11
71.351600
21
145.917000
0
LINE
8
minute marks
10
71.351600
20
145.917000
11
72.492600
21
146.356000
0
LINE
8
minute marks
10
72.492600
20
146.356000
11
71.853900
21
148.414000
0
LINE
8
minute marks
10
71.853900
20
148.414000
11
71.853900
21
148.414000
0
LINE
8
minute marks
10
66.003600
20
145.784000
11
64.892600
21
145.191000
0
LINE
8
minute marks
10
64.892600
20
145.191000
11
65.761300
21
143.281000
0
LINE
8
minute marks
10
65.761300
20
143.281000
11
66.840800
21
143.838000
0
LINE
8
minute marks
10
66.840800
20
143.838000
11
66.003600
21
145.784000
0
LINE
8
minute marks
10
66.003600
20
145.784000
11
66.003600
21
145.784000
0
LINE
8
minute marks
10
121.528000
20
145.733000
11
121.522000
21
145.722000
0
LINE
8
minute marks
10
121.522000
20
145.722000
11
122.109000
21
145.438000
0
LINE
8
minute marks
10
122.109000
20
145.438000
11
121.528000
21
145.733000
0
LINE
8
minute marks
10
121.528000
20
145.733000
11
121.528000
21
145.733000
0
LINE
8
minute marks
10
122.135000
20
145.425000
11
122.701000
21
145.113000
0
LINE
8
minute marks
10
122.701000
20
145.113000
11
122.712000
21
145.132000
0
LINE
8
minute marks
10
122.712000
20
145.132000
11
122.135000
21
145.425000
0
LINE
8
minute marks
10
122.135000
20
145.425000
11
122.135000
21
145.425000
0
LINE
8
minute marks
10
29.916400
20
145.345000
11
28.834900
21
144.043000
0
LINE
8
minute marks
10
28.834900
20
144.043000
11
30.661600
21
142.429000
0
LINE
8
minute marks
10
30.661600
20
142.429000
11
31.701400
21
143.700000
0
LINE
8
minute marks
10
31.701400
20
143.700000
11
29.916400
21
145.345000
0
LINE
8
minute marks
10
29.916400
20
145.345000
11
29.916400
21
145.345000
0
LINE
8
minute marks
10
60.321300
20
142.464000
11
59.826800
21
142.136000
0
LINE
8
minute marks
10
59.826800
20
142.136000
11
60.326500
21
142.454000
0
LINE
8
minute marks
10
60.326500
20
142.454000
11
60.321300
21
142.464000
0
LINE
8
minute marks
10
60.321300
20
142.464000
11
60.321300
21
142.464000
0
LINE
8
minute marks
10
127.408000
20
142.374000
11
126.225000
21
140.717000
0
LINE
8
minute marks
10
126.225000
20
140.717000
11
127.298000
21
139.997000
0
LINE
8
minute marks
10
127.298000
20
139.997000
11
128.534000
21
141.654000
0
LINE
8
minute marks
10
128.534000
20
141.654000
11
127.408000
21
142.374000
0
LINE
8
minute marks
10
127.408000
20
142.374000
11
127.408000
21
142.374000
0
LINE
8
minute marks
10
59.786400
20
142.110000
11
59.279500
21
141.774000
0
LINE
8
minute marks
10
59.279500
20
141.774000
11
59.289300
21
141.758000
0
LINE
8
minute marks
10
59.289300
20
141.758000
11
59.786400
21
142.110000
0
LINE
8
minute marks
10
59.786400
20
142.110000
11
59.786400
21
142.110000
0
LINE
8
minute marks
10
60.900600
20
140.378000
11
60.692800
21
140.236000
0
LINE
8
minute marks
10
60.692800
20
140.236000
11
60.900600
21
140.378000
0
LINE
8
minute marks
10
60.900600
20
140.378000
11
60.900600
21
140.378000
0
LINE
8
minute marks
10
55.204800
20
138.715000
11
54.243100
21
137.932000
0
LINE
8
minute marks
10
54.243100
20
137.932000
11
55.456500
21
136.305000
0
LINE
8
minute marks
10
55.456500
20
136.305000
11
56.377900
21
137.073000
0
LINE
8
minute marks
10
56.377900
20
137.073000
11
55.204800
21
138.715000
0
LINE
8
minute marks
10
55.204800
20
138.715000
11
55.204800
21
138.715000
0
LINE
8
minute marks
10
24.783900
20
138.651000
11
23.854300
21
137.244000
0
LINE
8
minute marks
10
23.854300
20
137.244000
11
25.820100
21
135.840000
0
LINE
8
minute marks
10
25.820100
20
135.840000
11
26.734200
21
137.196000
0
LINE
8
minute marks
10
26.734200
20
137.196000
11
24.783900
21
138.651000
0
LINE
8
minute marks
10
24.783900
20
138.651000
11
24.783900
21
138.651000
0
LINE
8
minute marks
10
132.839000
20
138.485000
11
131.470000
21
136.935000
0
LINE
8
minute marks
10
131.470000
20
136.935000
11
132.473000
21
136.109000
0
LINE
8
minute marks
10
132.473000
20
136.109000
11
133.885000
21
137.642000
0
LINE
8
minute marks
10
133.885000
20
137.642000
11
132.839000
21
138.485000
0
LINE
8
minute marks
10
132.839000
20
138.485000
11
132.839000
21
138.485000
0
LINE
8
minute marks
10
50.611300
20
134.579000
11
49.745700
21
133.701000
0
LINE
8
minute marks
10
49.745700
20
133.701000
11
51.085200
21
132.247000
0
LINE
8
minute marks
10
51.085200
20
132.247000
11
51.923900
21
133.093000
0
LINE
8
minute marks
10
51.923900
20
133.093000
11
50.611300
21
134.579000
0
LINE
8
minute marks
10
50.611300
20
134.579000
11
50.611300
21
134.579000
0
LINE
8
minute marks
10
137.850000
20
134.076000
11
136.296000
21
132.644000
0
LINE
8
minute marks
10
136.296000
20
132.644000
11
137.219000
21
131.722000
0
LINE
8
minute marks
10
137.219000
20
131.722000
11
138.804000
21
133.122000
0
LINE
8
minute marks
10
138.804000
20
133.122000
11
137.850000
21
134.076000
0
LINE
8
minute marks
10
137.850000
20
134.076000
11
137.850000
21
134.076000
0
LINE
8
minute marks
10
20.301000
20
131.356000
11
19.919100
21
130.618000
0
LINE
8
minute marks
10
19.919100
20
130.618000
11
20.326300
21
131.340000
0
LINE
8
minute marks
10
20.326300
20
131.340000
11
20.301000
21
131.356000
0
LINE
8
minute marks
10
20.301000
20
131.356000
11
20.301000
21
131.356000
0
LINE
8
minute marks
10
19.915000
20
130.611000
11
19.528500
21
129.865000
0
LINE
8
minute marks
10
19.528500
20
129.865000
11
19.539800
21
129.858000
0
LINE
8
minute marks
10
19.539800
20
129.858000
11
19.915000
21
130.611000
0
LINE
8
minute marks
10
19.915000
20
130.611000
11
19.915000
21
130.611000
0
LINE
8
minute marks
10
46.504100
20
130.065000
11
45.742300
21
129.105000
0
LINE
8
minute marks
10
45.742300
20
129.105000
11
47.192400
21
127.823000
0
LINE
8
minute marks
10
47.192400
20
127.823000
11
47.941200
21
128.741000
0
LINE
8
minute marks
10
47.941200
20
128.741000
11
46.504100
21
130.065000
0
LINE
8
minute marks
10
46.504100
20
130.065000
11
46.504100
21
130.065000
0
LINE
8
minute marks
10
93.796200
20
129.860000
11
93.644800
21
128.271000
0
LINE
8
minute marks
10
93.644800
20
128.271000
11
94.444800
21
128.261000
0
LINE
8
minute marks
10
94.444800
20
128.261000
11
94.627200
21
129.835000
0
LINE
8
minute marks
10
94.627200
20
129.835000
11
93.796200
21
129.860000
0
LINE
8
minute marks
10
93.796200
20
129.860000
11
93.796200
21
129.860000
0
LINE
8
minute marks
10
22.184100
20
129.724000
11
21.889600
21
129.175000
0
LINE
8
minute marks
10
21.889600
20
129.175000
11
22.184100
21
129.724000
0
LINE
8
minute marks
10
22.184100
20
129.724000
11
22.184100
21
129.724000
0
LINE
8
minute marks
10
90.410900
20
129.720000
11
89.589800
21
129.655000
0
LINE
8
minute marks
10
89.589800
20
129.655000
11
89.589800
21
129.652000
0
LINE
8
minute marks
10
89.589800
20
129.652000
11
90.410900
21
129.708000
0
LINE
8
minute marks
10
90.410900
20
129.708000
11
90.410900
21
129.720000
0
LINE
8
minute marks
10
90.410900
20
129.720000
11
90.410900
21
129.720000
0
LINE
8
minute marks
10
98.081800
20
129.601000
11
97.770200
21
128.074000
0
LINE
8
minute marks
10
97.770200
20
128.074000
11
98.571100
21
127.972000
0
LINE
8
minute marks
10
98.571100
20
127.972000
11
98.912700
21
129.486000
0
LINE
8
minute marks
10
98.912700
20
129.486000
11
98.081800
21
129.601000
0
LINE
8
minute marks
10
98.081800
20
129.601000
11
98.081800
21
129.601000
0
LINE
8
minute marks
10
86.271100
20
129.149000
11
85.469600
21
128.999000
0
LINE
8
minute marks
10
85.469600
20
128.999000
11
85.653600
21
127.416000
0
LINE
8
minute marks
10
85.653600
20
127.416000
11
86.423000
21
127.558000
0
LINE
8
minute marks
10
86.423000
20
127.558000
11
86.271100
21
129.149000
0
LINE
8
minute marks
10
86.271100
20
129.149000
11
86.271100
21
129.149000
0
LINE
8
minute marks
10
142.457000
20
129.132000
11
140.717000
21
127.835000
0
LINE
8
minute marks
10
140.717000
20
127.835000
11
141.555000
21
126.823000
0
LINE
8
minute marks
10
141.555000
20
126.823000
11
143.306000
21
128.073000
0
LINE
8
minute marks
10
143.306000
20
128.073000
11
142.457000
21
129.132000
0
LINE
8
minute marks
10
142.457000
20
129.132000
11
142.457000
21
129.132000
0
LINE
8
minute marks
10
102.093000
20
128.929000
11
101.631000
21
127.440000
0
LINE
8
minute marks
10
101.631000
20
127.440000
11
102.427000
21
127.265000
0
LINE
8
minute marks
10
102.427000
20
127.265000
11
102.907000
21
128.704000
0
LINE
8
minute marks
10
102.907000
20
128.704000
11
102.093000
21
128.929000
0
LINE
8
minute marks
10
102.093000
20
128.929000
11
102.093000
21
128.929000
0
LINE
8
minute marks
10
82.214500
20
128.149000
11
81.450700
21
127.875000
0
LINE
8
minute marks
10
81.450700
20
127.875000
11
81.793400
21
126.356000
0
LINE
8
minute marks
10
81.793400
20
126.356000
11
82.536500
21
126.572000
0
LINE
8
minute marks
10
82.536500
20
126.572000
11
82.214500
21
128.149000
0
LINE
8
minute marks
10
82.214500
20
128.149000
11
82.214500
21
128.149000
0
LINE
8
minute marks
10
90.394400
20
128.140000
11
89.606300
21
128.059000
0
LINE
8
minute marks
10
89.606300
20
128.059000
11
89.606300
21
128.058000
0
LINE
8
minute marks
10
89.606300
20
128.058000
11
90.394400
21
128.125000
0
LINE
8
minute marks
10
90.394400
20
128.125000
11
90.394400
21
128.140000
0
LINE
8
minute marks
10
90.394400
20
128.140000
11
90.394400
21
128.140000
0
LINE
8
minute marks
10
106.243000
20
127.761000
11
105.619000
21
126.310000
0
LINE
8
minute marks
10
105.619000
20
126.310000
11
106.395000
21
126.040000
0
LINE
8
minute marks
10
106.395000
20
126.040000
11
107.037000
21
127.451000
0
LINE
8
minute marks
10
107.037000
20
127.451000
11
106.243000
21
127.761000
0
LINE
8
minute marks
10
106.243000
20
127.761000
11
106.243000
21
127.761000
0
LINE
8
minute marks
10
78.567700
20
126.799000
11
77.843200
21
126.452000
0
LINE
8
minute marks
10
77.843200
20
126.452000
11
78.332600
21
124.987000
0
LINE
8
minute marks
10
78.332600
20
124.987000
11
79.038000
21
125.285000
0
LINE
8
minute marks
10
79.038000
20
125.285000
11
78.567700
21
126.799000
0
LINE
8
minute marks
10
78.567700
20
126.799000
11
78.567700
21
126.799000
0
LINE
8
minute marks
10
110.407000
20
126.073000
11
110.394000
21
126.051000
0
LINE
8
minute marks
10
110.394000
20
126.051000
11
111.170000
21
125.680000
0
LINE
8
minute marks
10
111.170000
20
125.680000
11
111.171000
21
125.682000
0
LINE
8
minute marks
10
111.171000
20
125.682000
11
110.407000
21
126.073000
0
LINE
8
minute marks
10
110.407000
20
126.073000
11
110.407000
21
126.073000
0
LINE
8
minute marks
10
42.867600
20
125.160000
11
42.216500
21
124.129000
0
LINE
8
minute marks
10
42.216500
20
124.129000
11
43.768300
21
123.021000
0
LINE
8
minute marks
10
43.768300
20
123.021000
11
44.419900
21
124.002000
0
LINE
8
minute marks
10
44.419900
20
124.002000
11
42.867600
21
125.160000
0
LINE
8
minute marks
10
42.867600
20
125.160000
11
42.867600
21
125.160000
0
LINE
8
minute marks
10
74.943700
20
125.001000
11
74.263100
21
124.592000
0
LINE
8
minute marks
10
74.263100
20
124.592000
11
74.894600
21
123.206000
0
LINE
8
minute marks
10
74.894600
20
123.206000
11
75.547800
21
123.595000
0
LINE
8
minute marks
10
75.547800
20
123.595000
11
74.943700
21
125.001000
0
LINE
8
minute marks
10
74.943700
20
125.001000
11
74.943700
21
125.001000
0
LINE
8
minute marks
10
109.656000
20
124.747000
11
109.639000
21
124.716000
0
LINE
8
minute marks
10
109.639000
20
124.716000
11
110.389000
21
124.363000
0
LINE
8
minute marks
10
110.389000
20
124.363000
11
110.405000
21
124.390000
0
LINE
8
minute marks
10
110.405000
20
124.390000
11
109.656000
21
124.747000
0
LINE
8
minute marks
10
109.656000
20
124.747000
11
109.656000
21
124.747000
0
LINE
8
minute marks
10
114.283000
20
123.997000
11
113.381000
21
122.734000
0
LINE
8
minute marks
10
113.381000
20
122.734000
11
114.096000
21
122.302000
0
LINE
8
minute marks
10
114.096000
20
122.302000
11
115.012000
21
123.528000
0
LINE
8
minute marks
10
115.012000
20
123.528000
11
114.283000
21
123.997000
0
LINE
8
minute marks
10
114.283000
20
123.997000
11
114.283000
21
123.997000
0
LINE
8
minute marks
10
146.628000
20
123.600000
11
146.611000
21
123.590000
0
LINE
8
minute marks
10
146.611000
20
123.590000
11
146.991000
21
123.048000
0
LINE
8
minute marks
10
146.991000
20
123.048000
11
146.628000
21
123.600000
0
LINE
8
minute marks
10
146.628000
20
123.600000
11
146.628000
21
123.600000
0
LINE
8
minute marks
10
16.533800
20
123.421000
11
15.913700
21
121.868000
0
LINE
8
minute marks
10
15.913700
20
121.868000
11
18.150200
21
120.906000
0
LINE
8
minute marks
10
18.150200
20
120.906000
11
18.733700
21
122.420000
0
LINE
8
minute marks
10
18.733700
20
122.420000
11
16.533800
21
123.421000
0
LINE
8
minute marks
10
16.533800
20
123.421000
11
16.533800
21
123.421000
0
LINE
8
minute marks
10
147.023000
20
123.000000
11
147.367000
21
122.451000
0
LINE
8
minute marks
10
147.367000
20
122.451000
11
147.379000
21
122.459000
0
LINE
8
minute marks
10
147.379000
20
122.459000
11
147.023000
21
123.000000
0
LINE
8
minute marks
10
147.023000
20
123.000000
11
147.023000
21
123.000000
0
LINE
8
minute marks
10
71.453400
20
122.785000
11
70.821900
21
122.321000
0
LINE
8
minute marks
10
70.821900
20
122.321000
11
70.830700
21
122.307000
0
LINE
8
minute marks
10
70.830700
20
122.307000
11
71.465800
21
122.762000
0
LINE
8
minute marks
10
71.465800
20
122.762000
11
71.453400
21
122.785000
0
LINE
8
minute marks
10
71.453400
20
122.785000
11
71.453400
21
122.785000
0
LINE
8
minute marks
10
144.905000
20
122.210000
11
145.203000
21
121.766000
0
LINE
8
minute marks
10
145.203000
20
121.766000
11
144.905000
21
122.210000
0
LINE
8
minute marks
10
144.905000
20
122.210000
11
144.905000
21
122.210000
0
LINE
8
minute marks
10
117.886000
20
121.559000
11
116.853000
21
120.391000
0
LINE
8
minute marks
10
116.853000
20
120.391000
11
117.528000
21
119.885000
0
LINE
8
minute marks
10
117.528000
20
119.885000
11
118.573000
21
121.019000
0
LINE
8
minute marks
10
118.573000
20
121.019000
11
117.886000
21
121.559000
0
LINE
8
minute marks
10
117.886000
20
121.559000
11
117.886000
21
121.559000
0
LINE
8
minute marks
10
68.338900
20
120.326000
11
67.760600
21
119.812000
0
LINE
8
minute marks
10
67.760600
20
119.812000
11
68.639600
21
118.634000
0
LINE
8
minute marks
10
68.639600
20
118.634000
11
69.187900
21
119.138000
0
LINE
8
minute marks
10
69.187900
20
119.138000
11
68.338900
21
120.326000
0
LINE
8
minute marks
10
68.338900
20
120.326000
11
68.338900
21
120.326000
0
LINE
8
minute marks
10
39.723100
20
119.831000
11
39.455400
21
119.299000
0
LINE
8
minute marks
10
39.455400
20
119.299000
11
39.739100
21
119.822000
0
LINE
8
minute marks
10
39.739100
20
119.822000
11
39.723100
21
119.831000
0
LINE
8
minute marks
10
39.723100
20
119.831000
11
39.723100
21
119.831000
0
LINE
8
minute marks
10
39.451300
20
119.290000
11
39.178900
21
118.749000
0
LINE
8
minute marks
10
39.178900
20
118.749000
11
39.189800
21
118.743000
0
LINE
8
minute marks
10
39.189800
20
118.743000
11
39.451300
21
119.290000
0
LINE
8
minute marks
10
39.451300
20
119.290000
11
39.451300
21
119.290000
0
LINE
8
minute marks
10
121.232000
20
118.768000
11
120.071000
21
117.699000
0
LINE
8
minute marks
10
120.071000
20
117.699000
11
120.699000
21
117.125000
0
LINE
8
minute marks
10
120.699000
20
117.125000
11
121.870000
21
118.160000
0
LINE
8
minute marks
10
121.870000
20
118.160000
11
121.232000
21
118.768000
0
LINE
8
minute marks
10
121.232000
20
118.768000
11
121.232000
21
118.768000
0
LINE
8
minute marks
10
41.173100
20
118.472000
11
41.081100
21
118.296000
0
LINE
8
minute marks
10
41.081100
20
118.296000
11
41.173100
21
118.472000
0
LINE
8
minute marks
10
41.173100
20
118.472000
11
41.173100
21
118.472000
0
LINE
8
minute marks
10
65.570100
20
117.648000
11
65.047600
21
117.089000
0
LINE
8
minute marks
10
65.047600
20
117.089000
11
66.027900
21
116.025000
0
LINE
8
minute marks
10
66.027900
20
116.025000
11
66.520400
21
116.573000
0
LINE
8
minute marks
10
66.520400
20
116.573000
11
65.570100
21
117.648000
0
LINE
8
minute marks
10
65.570100
20
117.648000
11
65.570100
21
117.648000
0
LINE
8
minute marks
10
150.333000
20
117.447000
11
148.298000
21
116.520000
0
LINE
8
minute marks
10
148.298000
20
116.520000
11
148.898000
21
115.336000
0
LINE
8
minute marks
10
148.898000
20
115.336000
11
150.978000
21
116.230000
0
LINE
8
minute marks
10
150.978000
20
116.230000
11
150.333000
21
117.447000
0
LINE
8
minute marks
10
150.333000
20
117.447000
11
150.333000
21
117.447000
0
LINE
8
minute marks
10
124.329000
20
115.608000
11
123.044000
21
114.650000
0
LINE
8
minute marks
10
123.044000
20
114.650000
11
123.619000
21
114.013000
0
LINE
8
minute marks
10
123.619000
20
114.013000
11
124.915000
21
114.938000
0
LINE
8
minute marks
10
124.915000
20
114.938000
11
124.329000
21
115.608000
0
LINE
8
minute marks
10
124.329000
20
115.608000
11
124.329000
21
115.608000
0
LINE
8
minute marks
10
13.736600
20
115.434000
11
13.277200
21
113.833000
0
LINE
8
minute marks
10
13.277200
20
113.833000
11
15.617600
21
113.106000
0
LINE
8
minute marks
10
15.617600
20
113.106000
11
16.055800
21
114.660000
0
LINE
8
minute marks
10
16.055800
20
114.660000
11
13.736600
21
115.434000
0
LINE
8
minute marks
10
13.736600
20
115.434000
11
13.736600
21
115.434000
0
LINE
8
minute marks
10
63.123200
20
114.756000
11
62.660200
21
114.156000
0
LINE
8
minute marks
10
62.660200
20
114.156000
11
63.732500
21
113.209000
0
LINE
8
minute marks
10
63.732500
20
113.209000
11
64.164500
21
113.797000
0
LINE
8
minute marks
10
64.164500
20
113.797000
11
63.123200
21
114.756000
0
LINE
8
minute marks
10
63.123200
20
114.756000
11
63.123200
21
114.756000
0
LINE
8
minute marks
10
37.101000
20
114.064000
11
36.669500
21
112.941000
0
LINE
8
minute marks
10
36.669500
20
112.941000
11
38.430700
21
112.183000
0
LINE
8
minute marks
10
38.430700
20
112.183000
11
38.842000
21
113.272000
0
LINE
8
minute marks
10
38.842000
20
113.272000
11
37.101000
21
114.064000
0
LINE
8
minute marks
10
37.101000
20
114.064000
11
37.101000
21
114.064000
0
LINE
8
minute marks
10
60.986900
20
111.643000
11
60.587400
21
111.008000
0
LINE
8
minute marks
10
60.587400
20
111.008000
11
61.747600
21
110.180000
0
LINE
8
minute marks
10
61.747600
20
110.180000
11
62.114500
21
110.802000
0
LINE
8
minute marks
10
62.114500
20
110.802000
11
60.986900
21
111.643000
0
LINE
8
minute marks
10
60.986900
20
111.643000
11
60.986900
21
111.643000
0
LINE
8
minute marks
10
153.296000
20
111.109000
11
151.146000
21
110.392000
0
LINE
8
minute marks
10
151.146000
20
110.392000
11
151.622000
21
109.143000
0
LINE
8
minute marks
10
151.622000
20
109.143000
11
153.815000
21
109.824000
0
LINE
8
minute marks
10
153.815000
20
109.824000
11
153.296000
21
111.109000
0
LINE
8
minute marks
10
153.296000
20
111.109000
11
153.296000
21
111.109000
0
LINE
8
minute marks
10
59.165300
20
108.295000
11
58.834000
21
107.631000
0
LINE
8
minute marks
10
58.834000
20
107.631000
11
58.894000
21
107.597000
0
LINE
8
minute marks
10
58.894000
20
107.597000
11
59.205100
21
108.271000
0
LINE
8
minute marks
10
59.205100
20
108.271000
11
59.165300
21
108.295000
0
LINE
8
minute marks
10
59.165300
20
108.295000
11
59.165300
21
108.295000
0
LINE
8
minute marks
10
35.187400
20
108.280000
11
34.874300
21
107.124000
0
LINE
8
minute marks
10
34.874300
20
107.124000
11
36.726900
21
106.549000
0
LINE
8
minute marks
10
36.726900
20
106.549000
11
37.012700
21
107.671000
0
LINE
8
minute marks
10
37.012700
20
107.671000
11
35.187400
21
108.280000
0
LINE
8
minute marks
10
35.187400
20
108.280000
11
35.187400
21
108.280000
0
LINE
8
minute marks
10
129.733000
20
108.075000
11
128.223000
21
107.388000
0
LINE
8
minute marks
10
128.223000
20
107.388000
11
128.651000
21
106.627000
0
LINE
8
minute marks
10
128.651000
20
106.627000
11
130.195000
21
107.290000
0
LINE
8
minute marks
10
130.195000
20
107.290000
11
129.733000
21
108.075000
0
LINE
8
minute marks
10
129.733000
20
108.075000
11
129.733000
21
108.075000
0
LINE
8
minute marks
10
11.885500
20
107.633000
11
11.594600
21
106.000000
0
LINE
8
minute marks
10
11.594600
20
106.000000
11
14.004300
21
105.508000
0
LINE
8
minute marks
10
14.004300
20
105.508000
11
14.292100
21
107.090000
0
LINE
8
minute marks
10
14.292100
20
107.090000
11
11.885500
21
107.633000
0
LINE
8
minute marks
10
11.885500
20
107.633000
11
11.885500
21
107.633000
0
LINE
8
minute marks
10
155.494000
20
104.784000
11
153.264000
21
104.280000
0
LINE
8
minute marks
10
153.264000
20
104.280000
11
153.622000
21
102.983000
0
LINE
8
minute marks
10
153.622000
20
102.983000
11
155.874000
21
103.443000
0
LINE
8
minute marks
10
155.874000
20
103.443000
11
155.494000
21
104.784000
0
LINE
8
minute marks
10
155.494000
20
104.784000
11
155.494000
21
104.784000
0
LINE
8
minute marks
10
57.683700
20
104.701000
11
57.423300
21
104.014000
0
LINE
8
minute marks
10
57.423300
20
104.014000
11
58.756500
21
103.440000
0
LINE
8
minute marks
10
58.756500
20
103.440000
11
58.980800
21
104.111000
0
LINE
8
minute marks
10
58.980800
20
104.111000
11
57.683700
21
104.701000
0
LINE
8
minute marks
10
57.683700
20
104.701000
11
57.683700
21
104.701000
0
LINE
8
minute marks
10
131.816000
20
103.945000
11
130.221000
21
103.413000
0
LINE
8
minute marks
10
130.221000
20
103.413000
11
130.546000
21
102.595000
0
LINE
8
minute marks
10
130.546000
20
102.595000
11
132.206000
21
103.111000
0
LINE
8
minute marks
10
132.206000
20
103.111000
11
131.816000
21
103.945000
0
LINE
8
minute marks
10
131.816000
20
103.945000
11
131.816000
21
103.945000
0
LINE
8
minute marks
10
33.959600
20
102.650000
11
33.768900
21
101.475000
0
LINE
8
minute marks
10
33.768900
20
101.475000
11
35.677300
21
101.086000
0
LINE
8
minute marks
10
35.677300
20
101.086000
11
35.854600
21
102.222000
0
LINE
8
minute marks
10
35.854600
20
102.222000
11
33.959600
21
102.650000
0
LINE
8
minute marks
10
33.959600
20
102.650000
11
33.959600
21
102.650000
0
LINE
8
minute marks
10
56.652800
20
101.121000
11
56.474500
21
100.415000
0
LINE
8
minute marks
10
56.474500
20
100.415000
11
57.869300
21
99.981400
0
LINE
8
minute marks
10
57.869300
20
99.981400
11
58.018100
21
100.665000
0
LINE
8
minute marks
10
58.018100
20
100.665000
11
56.652800
21
101.121000
0
LINE
8
minute marks
10
56.652800
20
101.121000
11
56.652800
21
101.121000
0
LINE
8
minute marks
10
133.395000
20
99.794900
11
131.738000
21
99.421300
0
LINE
8
minute marks
10
131.738000
20
99.421300
11
131.973000
21
98.565500
0
LINE
8
minute marks
10
131.973000
20
98.565500
11
133.691000
21
98.915900
0
LINE
8
minute marks
10
133.691000
20
98.915900
11
133.395000
21
99.794900
0
LINE
8
minute marks
10
133.395000
20
99.794900
11
133.395000
21
99.794900
0
LINE
8
minute marks
10
10.809100
20
99.199600
11
10.691800
21
97.552700
0
LINE
8
minute marks
10
10.691800
20
97.552700
11
13.179000
21
97.316000
0
LINE
8
minute marks
10
13.179000
20
97.316000
11
13.272000
21
98.913300
0
LINE
8
minute marks
10
13.272000
20
98.913300
11
10.809100
21
99.199600
0
LINE
8
minute marks
10
10.809100
20
99.199600
11
10.809100
21
99.199600
0
LINE
8
minute marks
10
157.128000
20
97.798100
11
154.847000
21
97.533000
0
LINE
8
minute marks
10
154.847000
20
97.533000
11
155.080000
21
96.197700
0
LINE
8
minute marks
10
155.080000
20
96.197700
11
157.340000
21
96.412700
0
LINE
8
minute marks
10
157.340000
20
96.412700
11
157.128000
21
97.798100
0
LINE
8
minute marks
10
157.128000
20
97.798100
11
157.128000
21
97.798100
0
LINE
8
minute marks
10
56.051800
20
97.662700
11
55.942800
21
96.950600
0
LINE
8
minute marks
10
55.942800
20
96.950600
11
57.384500
21
96.656600
0
LINE
8
minute marks
10
57.384500
20
96.656600
11
57.455800
21
97.346000
0
LINE
8
minute marks
10
57.455800
20
97.346000
11
56.051800
21
97.662700
0
LINE
8
minute marks
10
56.051800
20
97.662700
11
56.051800
21
97.662700
0
LINE
8
minute marks
10
33.298200
20
96.586800
11
33.233600
21
95.406000
0
LINE
8
minute marks
10
33.233600
20
95.406000
11
35.188000
21
95.220000
0
LINE
8
minute marks
10
35.188000
20
95.220000
11
35.231900
21
96.362500
0
LINE
8
minute marks
10
35.231900
20
96.362500
11
33.298200
21
96.586800
0
LINE
8
minute marks
10
33.298200
20
96.586800
11
33.298200
21
96.586800
0
LINE
8
minute marks
10
134.624000
20
95.183800
11
132.896000
21
94.982800
0
LINE
8
minute marks
10
132.896000
20
94.982800
11
133.050000
21
94.099600
0
LINE
8
minute marks
10
133.050000
20
94.099600
11
134.781000
21
94.265000
0
LINE
8
minute marks
10
134.781000
20
94.265000
11
134.624000
21
95.183800
0
LINE
8
minute marks
10
134.624000
20
95.183800
11
134.624000
21
95.183800
0
LINE
8
minute marks
10
55.807400
20
93.971500
11
55.776400
21
93.259400
0
LINE
8
minute marks
10
55.776400
20
93.259400
11
57.224300
21
93.121900
0
LINE
8
minute marks
10
57.224300
20
93.121900
11
57.223300
21
93.807200
0
LINE
8
minute marks
10
57.223300
20
93.807200
11
55.807400
21
93.971500
0
LINE
8
minute marks
10
55.807400
20
93.971500
11
55.807400
21
93.971500
0
LINE
8
minute marks
10
10.653000
20
90.821300
11
10.709900
21
89.179000
0
LINE
8
minute marks
10
10.709900
20
89.179000
11
10.715600
21
89.179000
0
LINE
8
minute marks
10
10.715600
20
89.179000
11
10.678400
21
90.820800
0
LINE
8
minute marks
10
10.678400
20
90.820800
11
10.653000
21
90.821300
0
LINE
8
minute marks
10
10.653000
20
90.821300
11
10.653000
21
90.821300
0
LINE
8
minute marks
10
157.961000
20
90.703500
11
158.004000
21
89.295300
0
LINE
8
minute marks
10
158.004000
20
89.295300
11
158.025000
21
89.295300
0
LINE
8
minute marks
10
158.025000
20
89.295300
11
157.965000
21
90.703500
0
LINE
8
minute marks
10
157.965000
20
90.703500
11
157.961000
21
90.703500
0
LINE
8
minute marks
10
157.961000
20
90.703500
11
157.961000
21
90.703500
0
LINE
8
minute marks
10
33.296600
20
90.586700
11
33.358600
21
89.413600
0
LINE
8
minute marks
10
33.358600
20
89.413600
11
33.362200
21
89.413600
0
LINE
8
minute marks
10
33.362200
20
89.413600
11
33.313700
21
90.586700
0
LINE
8
minute marks
10
33.313700
20
90.586700
11
33.296600
21
90.586700
0
LINE
8
minute marks
10
33.296600
20
90.586700
11
33.296600
21
90.586700
0
LINE
8
minute marks
10
135.315000
20
90.468900
11
135.368000
21
89.530400
0
LINE
8
minute marks
10
135.368000
20
89.530400
11
135.381000
21
89.530400
0
LINE
8
minute marks
10
135.381000
20
89.530400
11
135.317000
21
90.468900
0
LINE
8
minute marks
10
135.317000
20
90.468900
11
135.315000
21
90.468900
0
LINE
8
minute marks
10
135.315000
20
90.468900
11
135.315000
21
90.468900
0
LINE
8
minute marks
10
133.578000
20
90.450800
11
133.645000
21
89.548500
0
LINE
8
minute marks
10
133.645000
20
89.548500
11
133.665000
21
89.548500
0
LINE
8
minute marks
10
133.665000
20
89.548500
11
133.583000
21
90.450800
0
LINE
8
minute marks
10
133.583000
20
90.450800
11
133.578000
21
90.450800
0
LINE
8
minute marks
10
133.578000
20
90.450800
11
133.578000
21
90.450800
0
LINE
8
minute marks
10
155.739000
20
90.174800
11
155.756000
21
89.934000
0
LINE
8
minute marks
10
155.756000
20
89.934000
11
155.739000
21
90.174800
0
LINE
8
minute marks
10
155.739000
20
90.174800
11
155.739000
21
90.174800
0
LINE
8
minute marks
10
13.190300
20
90.117500
11
13.215200
21
89.721600
0
LINE
8
minute marks
10
13.215200
20
89.721600
11
13.190300
21
90.117500
0
LINE
8
minute marks
10
13.190300
20
90.117500
11
13.190300
21
90.117500
0
LINE
8
minute marks
10
35.298000
20
90.008900
11
35.301600
21
89.965000
0
LINE
8
minute marks
10
35.301600
20
89.965000
11
35.298000
21
90.008900
0
LINE
8
minute marks
10
35.298000
20
90.008900
11
35.298000
21
90.008900
0
LINE
8
minute marks
10
57.934400
20
86.945600
11
56.483300
21
86.807600
0
LINE
8
minute marks
10
56.483300
20
86.807600
11
56.625900
21
86.122900
0
LINE
8
minute marks
10
56.625900
20
86.122900
11
58.064100
21
86.290300
0
LINE
8
minute marks
10
58.064100
20
86.290300
11
57.934400
21
86.945600
0
LINE
8
minute marks
10
57.934400
20
86.945600
11
57.934400
21
86.945600
0
LINE
8
minute marks
10
133.768000
20
85.831400
11
133.746000
21
84.917800
0
LINE
8
minute marks
10
133.746000
20
84.917800
11
135.457000
21
84.719300
0
LINE
8
minute marks
10
135.457000
20
84.719300
11
135.495000
21
85.666600
0
LINE
8
minute marks
10
135.495000
20
85.666600
11
133.768000
21
85.831400
0
LINE
8
minute marks
10
133.768000
20
85.831400
11
133.768000
21
85.831400
0
LINE
8
minute marks
10
35.917100
20
84.849000
11
33.930700
21
84.659900
0
LINE
8
minute marks
10
33.930700
20
84.659900
11
34.121400
21
83.508600
0
LINE
8
minute marks
10
34.121400
20
83.508600
11
36.121800
21
83.740600
0
LINE
8
minute marks
10
36.121800
20
83.740600
11
35.917100
21
84.849000
0
LINE
8
minute marks
10
35.917100
20
84.849000
11
35.917100
21
84.849000
0
LINE
8
minute marks
10
155.816000
20
83.731800
11
155.747000
21
82.361900
0
LINE
8
minute marks
10
155.747000
20
82.361900
11
157.946000
21
82.106100
0
LINE
8
minute marks
10
157.946000
20
82.106100
11
158.037000
21
83.519900
0
LINE
8
minute marks
10
158.037000
20
83.519900
11
155.816000
21
83.731800
0
LINE
8
minute marks
10
155.816000
20
83.731800
11
155.816000
21
83.731800
0
LINE
8
minute marks
10
58.828900
20
83.638800
11
57.394900
21
83.345800
0
LINE
8
minute marks
10
57.394900
20
83.345800
11
57.643900
21
82.696700
0
LINE
8
minute marks
10
57.643900
20
82.696700
11
59.032500
21
83.010400
0
LINE
8
minute marks
10
59.032500
20
83.010400
11
58.828900
21
83.638800
0
LINE
8
minute marks
10
58.828900
20
83.638800
11
58.828900
21
83.638800
0
LINE
8
minute marks
10
13.921600
20
82.754600
11
11.388900
21
82.513800
0
LINE
8
minute marks
10
11.388900
20
82.513800
11
11.622500
21
80.894300
0
LINE
8
minute marks
10
11.622500
20
80.894300
11
14.184100
21
81.191900
0
LINE
8
minute marks
10
14.184100
20
81.191900
11
13.921600
21
82.754600
0
LINE
8
minute marks
10
13.921600
20
82.754600
11
13.921600
21
82.754600
0
LINE
8
minute marks
10
133.490000
20
81.124700
11
133.363000
21
80.211600
0
LINE
8
minute marks
10
133.363000
20
80.211600
11
135.004000
21
79.841600
0
LINE
8
minute marks
10
135.004000
20
79.841600
11
135.145000
21
80.786800
0
LINE
8
minute marks
10
135.145000
20
80.786800
11
133.490000
21
81.124700
0
LINE
8
minute marks
10
133.490000
20
81.124700
11
133.490000
21
81.124700
0
LINE
8
minute marks
10
59.974000
20
80.672000
11
58.606200
21
80.247300
0
LINE
8
minute marks
10
58.606200
20
80.247300
11
58.910500
21
79.632300
0
LINE
8
minute marks
10
58.910500
20
79.632300
11
60.247400
21
80.078300
0
LINE
8
minute marks
10
60.247400
20
80.078300
11
59.974000
21
80.672000
0
LINE
8
minute marks
10
59.974000
20
80.672000
11
59.974000
21
80.672000
0
LINE
8
minute marks
10
37.191500
20
79.223000
11
35.215300
21
78.820000
0
LINE
8
minute marks
10
35.215300
20
78.820000
11
35.546100
21
77.708400
0
LINE
8
minute marks
10
35.546100
20
77.708400
11
37.497900
21
78.148700
0
LINE
8
minute marks
10
37.497900
20
78.148700
11
37.191500
21
79.223000
0
LINE
8
minute marks
10
37.191500
20
79.223000
11
37.191500
21
79.223000
0
LINE
8
minute marks
10
61.460800
20
77.722900
11
60.191600
21
77.177700
0
LINE
8
minute marks
10
60.191600
20
77.177700
11
60.546600
21
76.602000
0
LINE
8
minute marks
10
60.546600
20
76.602000
11
61.809600
21
77.176100
0
LINE
8
minute marks
10
61.809600
20
77.176100
11
61.460800
21
77.722900
0
LINE
8
minute marks
10
61.460800
20
77.722900
11
61.460800
21
77.722900
0
LINE
8
minute marks
10
132.718000
20
76.729600
11
132.506000
21
75.824300
0
LINE
8
minute marks
10
132.506000
20
75.824300
11
134.088000
21
75.296700
0
LINE
8
minute marks
10
134.088000
20
75.296700
11
134.328000
21
76.228900
0
LINE
8
minute marks
10
134.328000
20
76.228900
11
132.718000
21
76.729600
0
LINE
8
minute marks
10
132.718000
20
76.729600
11
132.718000
21
76.729600
0
LINE
8
minute marks
10
155.155000
20
76.703800
11
154.926000
21
75.343700
0
LINE
8
minute marks
10
154.926000
20
75.343700
11
157.078000
21
74.857900
0
LINE
8
minute marks
10
157.078000
20
74.857900
11
157.318000
21
76.262500
0
LINE
8
minute marks
10
157.318000
20
76.262500
11
155.155000
21
76.703800
0
LINE
8
minute marks
10
155.155000
20
76.703800
11
155.155000
21
76.703800
0
LINE
8
minute marks
10
15.564400
20
74.809900
11
13.036900
21
74.294700
0
LINE
8
minute marks
10
13.036900
20
74.294700
11
13.465300
21
72.723200
0
LINE
8
minute marks
10
13.465300
20
72.723200
11
15.974200
21
73.289600
0
LINE
8
minute marks
10
15.974200
20
73.289600
11
15.564400
21
74.809900
0
LINE
8
minute marks
10
15.564400
20
74.809900
11
15.564400
21
74.809900
0
LINE
8
minute marks
10
62.140800
20
74.239900
11
62.127900
21
74.232100
0
LINE
8
minute marks
10
62.127900
20
74.232100
11
62.527900
21
73.699900
0
LINE
8
minute marks
10
62.527900
20
73.699900
11
62.538200
21
73.706100
0
LINE
8
minute marks
10
62.538200
20
73.706100
11
62.141300
21
74.239900
0
LINE
8
minute marks
10
62.141300
20
74.239900
11
62.140800
21
74.239900
0
LINE
8
minute marks
10
62.140800
20
74.239900
11
62.140800
21
74.239900
0
LINE
8
minute marks
10
38.908100
20
74.127700
11
36.986300
21
73.531400
0
LINE
8
minute marks
10
36.986300
20
73.531400
11
37.432300
21
72.468900
0
LINE
8
minute marks
10
37.432300
20
72.468900
11
39.311200
21
73.095200
0
LINE
8
minute marks
10
39.311200
20
73.095200
11
38.908100
21
74.127700
0
LINE
8
minute marks
10
38.908100
20
74.127700
11
38.908100
21
74.127700
0
LINE
8
minute marks
10
65.342700
20
72.387800
11
64.261600
21
71.615800
0
LINE
8
minute marks
10
64.261600
20
71.615800
11
64.703500
21
71.129500
0
LINE
8
minute marks
10
64.703500
20
71.129500
11
65.775200
21
71.928400
0
LINE
8
minute marks
10
65.775200
20
71.928400
11
65.342700
21
72.387800
0
LINE
8
minute marks
10
65.342700
20
72.387800
11
65.342700
21
72.387800
0
LINE
8
minute marks
10
131.421000
20
72.182100
11
131.108000
21
71.299500
0
LINE
8
minute marks
10
131.108000
20
71.299500
11
132.616000
21
70.613200
0
LINE
8
minute marks
10
132.616000
20
70.613200
11
132.954000
21
71.522700
0
LINE
8
minute marks
10
132.954000
20
71.522700
11
131.421000
21
72.182100
0
LINE
8
minute marks
10
131.421000
20
72.182100
11
131.421000
21
72.182100
0
LINE
8
minute marks
10
153.828000
20
70.171900
11
153.469000
21
68.833000
0
LINE
8
minute marks
10
153.469000
20
68.833000
11
155.538000
21
68.143100
0
LINE
8
minute marks
10
155.538000
20
68.143100
11
155.924000
21
69.521300
0
LINE
8
minute marks
10
155.924000
20
69.521300
11
153.828000
21
70.171900
0
LINE
8
minute marks
10
153.828000
20
70.171900
11
153.828000
21
70.171900
0
LINE
8
minute marks
10
67.551300
20
70.165200
11
66.573600
21
69.300600
0
LINE
8
minute marks
10
66.573600
20
69.300600
11
67.052700
21
68.863000
0
LINE
8
minute marks
10
67.052700
20
68.863000
11
68.020600
21
69.754400
0
LINE
8
minute marks
10
68.020600
20
69.754400
11
67.551300
21
70.165200
0
LINE
8
minute marks
10
67.551300
20
70.165200
11
67.551300
21
70.165200
0
LINE
8
minute marks
10
41.221700
20
69.017500
11
39.408400
21
68.237700
0
LINE
8
minute marks
10
39.408400
20
68.237700
11
39.951500
21
67.232000
0
LINE
8
minute marks
10
39.951500
20
67.232000
11
41.734300
21
68.043400
0
LINE
8
minute marks
10
41.734300
20
68.043400
11
41.221700
21
69.017500
0
LINE
8
minute marks
10
41.221700
20
69.017500
11
41.221700
21
69.017500
0
LINE
8
minute marks
10
69.933100
20
68.213900
11
69.059300
21
67.265600
0
LINE
8
minute marks
10
69.059300
20
67.265600
11
69.571400
21
66.880100
0
LINE
8
minute marks
10
69.571400
20
66.880100
11
70.433900
21
67.855800
0
LINE
8
minute marks
10
70.433900
20
67.855800
11
69.933100
21
68.213900
0
LINE
8
minute marks
10
69.933100
20
68.213900
11
69.933100
21
68.213900
0
LINE
8
minute marks
10
17.847400
20
67.586000
11
15.383000
21
66.820700
0
LINE
8
minute marks
10
15.383000
20
66.820700
11
15.973600
21
65.312300
0
LINE
8
minute marks
10
15.973600
20
65.312300
11
18.396200
21
66.120000
0
LINE
8
minute marks
10
18.396200
20
66.120000
11
17.847400
21
67.586000
0
LINE
8
minute marks
10
17.847400
20
67.586000
11
17.847400
21
67.586000
0
LINE
8
minute marks
10
129.410000
20
67.318300
11
129.226000
21
66.948900
0
LINE
8
minute marks
10
129.226000
20
66.948900
11
129.410000
21
67.318300
0
LINE
8
minute marks
10
129.410000
20
67.318300
11
129.410000
21
67.318300
0
LINE
8
minute marks
10
130.986000
20
66.814000
11
130.784000
21
66.373700
0
LINE
8
minute marks
10
130.784000
20
66.373700
11
130.997000
21
66.808300
0
LINE
8
minute marks
10
130.997000
20
66.808300
11
130.986000
21
66.814000
0
LINE
8
minute marks
10
130.986000
20
66.814000
11
130.986000
21
66.814000
0
LINE
8
minute marks
10
72.491600
20
66.529200
11
71.724700
21
65.501400
0
LINE
8
minute marks
10
71.724700
20
65.501400
11
72.265300
21
65.170700
0
LINE
8
minute marks
10
72.265300
20
65.170700
11
73.020300
21
66.228000
0
LINE
8
minute marks
10
73.020300
20
66.228000
11
72.491600
21
66.529200
0
LINE
8
minute marks
10
72.491600
20
66.529200
11
72.491600
21
66.529200
0
LINE
8
minute marks
10
130.775000
20
66.355600
11
130.555000
21
65.937000
0
LINE
8
minute marks
10
130.555000
20
65.937000
11
130.567000
21
65.930300
0
LINE
8
minute marks
10
130.567000
20
65.930300
11
130.775000
21
66.355600
0
LINE
8
minute marks
10
130.775000
20
66.355600
11
130.775000
21
66.355600
0
LINE
8
minute marks
10
74.603600
20
64.051400
11
74.580400
21
64.012100
0
LINE
8
minute marks
10
74.580400
20
64.012100
11
75.144200
21
63.739800
0
LINE
8
minute marks
10
75.144200
20
63.739800
11
75.177200
21
63.799200
0
LINE
8
minute marks
10
75.177200
20
63.799200
11
74.603600
21
64.051400
0
LINE
8
minute marks
10
74.603600
20
64.051400
11
74.603600
21
64.051400
0
LINE
8
minute marks
10
78.173400
20
64.001800
11
77.635000
21
62.817800
0
LINE
8
minute marks
10
77.635000
20
62.817800
11
78.219400
21
62.615300
0
LINE
8
minute marks
10
78.219400
20
62.615300
11
78.739300
21
63.823500
0
LINE
8
minute marks
10
78.739300
20
63.823500
11
78.173400
21
64.001800
0
LINE
8
minute marks
10
78.173400
20
64.001800
11
78.173400
21
64.001800
0
LINE
8
minute marks
10
151.717000
20
63.451900
11
151.208000
21
62.155400
0
LINE
8
minute marks
10
151.208000
20
62.155400
11
153.182000
21
61.257200
0
LINE
8
minute marks
10
153.182000
20
61.257200
11
153.708000
21
62.595100
0
LINE
8
minute marks
10
153.708000
20
62.595100
11
151.717000
21
63.451900
0
LINE
8
minute marks
10
151.717000
20
63.451900
11
151.717000
21
63.451900
0
LINE
8
minute marks
10
127.261000
20
63.385800
11
126.744000
21
62.588900
0
LINE
8
minute marks
10
126.744000
20
62.588900
11
128.085000
21
61.588500
0
LINE
8
minute marks
10
128.085000
20
61.588500
11
128.603000
21
62.427200
0
LINE
8
minute marks
10
128.603000
20
62.427200
11
127.261000
21
63.385800
0
LINE
8
minute marks
10
127.261000
20
63.385800
11
127.261000
21
63.385800
0
LINE
8
minute marks
10
81.080200
20
63.254000
11
80.665300
21
62.008600
0
LINE
8
minute marks
10
80.665300
20
62.008600
11
81.264200
21
61.879400
0
LINE
8
minute marks
10
81.264200
20
61.879400
11
81.655400
21
63.139800
0
LINE
8
minute marks
10
81.655400
20
63.139800
11
81.080200
21
63.254000
0
LINE
8
minute marks
10
81.080200
20
63.254000
11
81.080200
21
63.254000
0
LINE
8
minute marks
10
42.459300
20
63.106200
11
42.450600
21
63.101000
0
LINE
8
minute marks
10
42.450600
20
63.101000
11
42.759600
21
62.638500
0
LINE
8
minute marks
10
42.759600
20
62.638500
11
42.459300
21
63.106200
0
LINE
8
minute marks
10
42.459300
20
63.106200
11
42.459300
21
63.106200
0
LINE
8
minute marks
10
83.870200
20
62.842100
11
83.581400
21
61.563700
0
LINE
8
minute marks
10
83.581400
20
61.563700
11
84.180800
21
61.487200
0
LINE
8
minute marks
10
84.180800
20
61.487200
11
84.447500
21
62.794100
0
LINE
8
minute marks
10
84.447500
20
62.794100
11
83.870200
21
62.842100
0
LINE
8
minute marks
10
83.870200
20
62.842100
11
83.870200
21
62.842100
0
LINE
8
minute marks
10
87.401300
20
62.720700
11
86.829700
21
62.708300
0
LINE
8
minute marks
10
86.829700
20
62.708300
11
86.680400
21
61.424600
0
LINE
8
minute marks
10
86.680400
20
61.424600
11
87.276200
21
61.410700
0
LINE
8
minute marks
10
87.276200
20
61.410700
11
87.401300
21
62.720700
0
LINE
8
minute marks
10
87.401300
20
62.720700
11
87.401300
21
62.720700
0
LINE
8
minute marks
10
42.765800
20
62.629200
11
43.079500
21
62.160000
0
LINE
8
minute marks
10
43.079500
20
62.160000
11
43.095500
21
62.169300
0
LINE
8
minute marks
10
43.095500
20
62.169300
11
42.765800
21
62.629200
0
LINE
8
minute marks
10
42.765800
20
62.629200
11
42.765800
21
62.629200
0
LINE
8
minute marks
10
20.980600
20
60.311000
11
18.636000
21
59.302800
0
LINE
8
minute marks
10
18.636000
20
59.302800
11
19.381200
21
57.874000
0
LINE
8
minute marks
10
19.381200
20
57.874000
11
21.669400
21
58.915200
0
LINE
8
minute marks
10
21.669400
20
58.915200
11
20.980600
21
60.311000
0
LINE
8
minute marks
10
20.980600
20
60.311000
11
20.980600
21
60.311000
0
LINE
8
minute marks
10
47.407900
20
59.578200
11
45.874600
21
58.483200
0
LINE
8
minute marks
10
45.874600
20
58.483200
11
46.591900
21
57.617600
0
LINE
8
minute marks
10
46.591900
20
57.617600
11
48.106500
21
58.747800
0
LINE
8
minute marks
10
48.106500
20
58.747800
11
47.407900
21
59.578200
0
LINE
8
minute marks
10
47.407900
20
59.578200
11
47.407900
21
59.578200
0
LINE
8
minute marks
10
124.553000
20
59.469200
11
123.956000
21
58.723000
0
LINE
8
minute marks
10
123.956000
20
58.723000
11
125.163000
21
57.610400
0
LINE
8
minute marks
10
125.163000
20
57.610400
11
125.780000
21
58.384500
0
LINE
8
minute marks
10
125.780000
20
58.384500
11
124.553000
21
59.469200
0
LINE
8
minute marks
10
124.553000
20
59.469200
11
124.553000
21
59.469200
0
LINE
8
minute marks
10
121.427000
20
55.881800
11
120.771000
21
55.174400
0
LINE
8
minute marks
10
120.771000
20
55.174400
11
121.892000
21
53.905700
0
LINE
8
minute marks
10
121.892000
20
53.905700
11
122.584000
21
54.625100
0
LINE
8
minute marks
10
122.584000
20
54.625100
11
121.427000
21
55.881800
0
LINE
8
minute marks
10
121.427000
20
55.881800
11
121.427000
21
55.881800
0
LINE
8
minute marks
10
150.635000
20
55.699400
11
150.318000
21
55.052400
0
LINE
8
minute marks
10
150.318000
20
55.052400
11
150.645000
21
55.693200
0
LINE
8
minute marks
10
150.645000
20
55.693200
11
150.635000
21
55.699400
0
LINE
8
minute marks
10
150.635000
20
55.699400
11
150.635000
21
55.699400
0
LINE
8
minute marks
10
51.033000
20
55.569700
11
49.646000
21
54.344500
0
LINE
8
minute marks
10
49.646000
20
54.344500
11
50.447500
21
53.567300
0
LINE
8
minute marks
10
50.447500
20
53.567300
11
51.801400
21
54.814700
0
LINE
8
minute marks
10
51.801400
20
54.814700
11
51.033000
21
55.569700
0
LINE
8
minute marks
10
51.033000
20
55.569700
11
51.033000
21
55.569700
0
LINE
8
minute marks
10
150.311000
20
55.040000
11
149.966000
21
54.418900
0
LINE
8
minute marks
10
149.966000
20
54.418900
11
149.987000
21
54.406500
0
LINE
8
minute marks
10
149.987000
20
54.406500
11
150.311000
21
55.040000
0
LINE
8
minute marks
10
150.311000
20
55.040000
11
150.311000
21
55.040000
0
LINE
8
minute marks
10
25.172600
20
52.867000
11
25.665000
21
52.113600
0
LINE
8
minute marks
10
25.665000
20
52.113600
11
25.172600
21
52.867000
0
LINE
8
minute marks
10
25.172600
20
52.867000
11
25.172600
21
52.867000
0
LINE
8
minute marks
10
54.990900
20
51.993200
11
53.754800
21
50.650600
0
LINE
8
minute marks
10
53.754800
20
50.650600
11
54.629100
21
49.968500
0
LINE
8
minute marks
10
54.629100
20
49.968500
11
55.822900
21
51.319800
0
LINE
8
minute marks
10
55.822900
20
51.319800
11
54.990900
21
51.993200
0
LINE
8
minute marks
10
54.990900
20
51.993200
11
54.990900
21
51.993200
0
LINE
8
minute marks
10
22.807800
20
51.989600
11
22.791800
21
51.980800
0
LINE
8
minute marks
10
22.791800
20
51.980800
11
23.214000
21
51.330700
0
LINE
8
minute marks
10
23.214000
20
51.330700
11
22.807800
21
51.989600
0
LINE
8
minute marks
10
22.807800
20
51.989600
11
22.807800
21
51.989600
0
LINE
8
minute marks
10
23.237300
20
51.295000
11
23.663100
21
50.638700
0
LINE
8
minute marks
10
23.663100
20
50.638700
11
23.682200
21
50.649600
0
LINE
8
minute marks
10
23.682200
20
50.649600
11
23.237300
21
51.295000
0
LINE
8
minute marks
10
23.237300
20
51.295000
11
23.237300
21
51.295000
0
LINE
8
minute marks
10
59.293500
20
48.837800
11
58.214400
21
47.390900
0
LINE
8
minute marks
10
58.214400
20
47.390900
11
59.148800
21
46.806400
0
LINE
8
minute marks
10
59.148800
20
46.806400
11
60.182300
21
48.253400
0
LINE
8
minute marks
10
60.182300
20
48.253400
11
59.293500
21
48.837800
0
LINE
8
minute marks
10
59.293500
20
48.837800
11
59.293500
21
48.837800
0
LINE
8
minute marks
10
29.481900
20
46.775400
11
27.511900
21
45.367800
0
LINE
8
minute marks
10
27.511900
20
45.367800
11
28.499000
21
44.120300
0
LINE
8
minute marks
10
28.499000
20
44.120300
11
30.458500
21
45.582200
0
LINE
8
minute marks
10
30.458500
20
45.582200
11
29.481900
21
46.775400
0
LINE
8
minute marks
10
29.481900
20
46.775400
11
29.481900
21
46.775400
0
LINE
8
minute marks
10
109.670000
20
46.760400
11
108.801000
21
46.292200
0
LINE
8
minute marks
10
108.801000
20
46.292200
11
109.524000
21
44.611700
0
LINE
8
minute marks
10
109.524000
20
44.611700
11
110.413000
21
45.125900
0
LINE
8
minute marks
10
110.413000
20
45.125900
11
109.670000
21
46.760400
0
LINE
8
minute marks
10
109.670000
20
46.760400
11
109.670000
21
46.760400
0
LINE
8
minute marks
10
64.251800
20
45.967700
11
64.498300
21
45.841100
0
LINE
8
minute marks
10
64.498300
20
45.841100
11
64.251800
21
45.967700
0
LINE
8
minute marks
10
64.251800
20
45.967700
11
64.251800
21
45.967700
0
LINE
8
minute marks
10
141.063000
20
44.882500
11
140.162000
21
43.794200
0
LINE
8
minute marks
10
140.162000
20
43.794200
11
141.789000
21
42.295100
0
LINE
8
minute marks
10
141.789000
20
42.295100
11
142.711000
21
43.425800
0
LINE
8
minute marks
10
142.711000
20
43.425800
11
141.063000
21
44.882500
0
LINE
8
minute marks
10
141.063000
20
44.882500
11
141.063000
21
44.882500
0
LINE
8
minute marks
10
63.057000
20
44.592100
11
63.049300
21
44.578700
0
LINE
8
minute marks
10
63.049300
20
44.578700
11
63.521600
21
44.343500
0
LINE
8
minute marks
10
63.521600
20
44.343500
11
63.057000
21
44.592100
0
LINE
8
minute marks
10
63.057000
20
44.592100
11
63.057000
21
44.592100
0
LINE
8
minute marks
10
105.159000
20
44.543000
11
104.229000
21
44.194200
0
LINE
8
minute marks
10
104.229000
20
44.194200
11
104.791000
21
42.387600
0
LINE
8
minute marks
10
104.791000
20
42.387600
11
105.742000
21
42.796300
0
LINE
8
minute marks
10
105.742000
20
42.796300
11
105.159000
21
44.543000
0
LINE
8
minute marks
10
105.159000
20
44.543000
11
105.159000
21
44.543000
0
LINE
8
minute marks
10
63.550000
20
44.329100
11
64.029600
21
44.091300
0
LINE
8
minute marks
10
64.029600
20
44.091300
11
64.035300
21
44.101200
0
LINE
8
minute marks
10
64.035300
20
44.101200
11
63.550000
21
44.329100
0
LINE
8
minute marks
10
63.550000
20
44.329100
11
63.550000
21
44.329100
0
LINE
8
minute marks
10
69.013800
20
43.867100
11
68.274800
21
42.242400
0
LINE
8
minute marks
10
68.274800
20
42.242400
11
69.291300
21
41.858400
0
LINE
8
minute marks
10
69.291300
20
41.858400
11
69.999300
21
43.504800
0
LINE
8
minute marks
10
69.999300
20
43.504800
11
69.013800
21
43.867100
0
LINE
8
minute marks
10
69.013800
20
43.867100
11
69.013800
21
43.867100
0
LINE
8
minute marks
10
100.635000
20
42.883200
11
99.667700
21
42.625800
0
LINE
8
minute marks
10
99.667700
20
42.625800
11
100.049000
21
40.760300
0
LINE
8
minute marks
10
100.049000
20
40.760300
11
101.045000
21
41.066700
0
LINE
8
minute marks
10
101.045000
20
41.066700
11
100.635000
21
42.883200
0
LINE
8
minute marks
10
100.635000
20
42.883200
11
100.635000
21
42.883200
0
LINE
8
minute marks
10
74.076500
20
42.253200
11
73.508600
21
40.549400
0
LINE
8
minute marks
10
73.508600
20
40.549400
11
74.552500
21
40.272500
0
LINE
8
minute marks
10
74.552500
20
40.272500
11
75.089900
21
42.004100
0
LINE
8
minute marks
10
75.089900
20
42.004100
11
74.076500
21
42.253200
0
LINE
8
minute marks
10
74.076500
20
42.253200
11
74.076500
21
42.253200
0
LINE
8
minute marks
10
95.622000
20
41.605200
11
94.627200
21
41.415500
0
LINE
8
minute marks
10
94.627200
20
41.415500
11
94.803400
21
39.565500
0
LINE
8
minute marks
10
94.803400
20
39.565500
11
95.838000
21
39.745900
0
LINE
8
minute marks
10
95.838000
20
39.745900
11
95.622000
21
41.605200
0
LINE
8
minute marks
10
95.622000
20
41.605200
11
95.622000
21
41.605200
0
LINE
8
minute marks
10
78.995100
20
41.245500
11
78.595600
21
39.477200
0
LINE
8
minute marks
10
78.595600
20
39.477200
11
79.655500
21
39.311800
0
LINE
8
minute marks
10
79.655500
20
39.311800
11
80.019300
21
41.093600
0
LINE
8
minute marks
10
80.019300
20
41.093600
11
78.995100
21
41.245500
0
LINE
8
minute marks
10
78.995100
20
41.245500
11
78.995100
21
41.245500
0
LINE
8
minute marks
10
34.526500
20
40.985100
11
32.743700
21
39.410500
0
LINE
8
minute marks
10
32.743700
20
39.410500
11
33.851100
21
38.279300
0
LINE
8
minute marks
10
33.851100
20
38.279300
11
35.605500
21
39.895200
0
LINE
8
minute marks
10
35.605500
20
39.895200
11
34.526500
21
40.985100
0
LINE
8
minute marks
10
34.526500
20
40.985100
11
34.526500
21
40.985100
0
LINE
8
minute marks
10
90.028000
20
40.826900
11
89.991300
21
40.823900
0
LINE
8
minute marks
10
89.991300
20
40.823900
11
90.028000
21
40.826900
0
LINE
8
minute marks
10
90.028000
20
40.826900
11
90.028000
21
40.826900
0
LINE
8
minute marks
10
84.275400
20
40.722000
11
84.066100
21
38.920100
0
LINE
8
minute marks
10
84.066100
20
38.920100
11
85.130100
21
38.868900
0
LINE
8
minute marks
10
85.130100
20
38.868900
11
85.303700
21
40.690000
0
LINE
8
minute marks
10
85.303700
20
40.690000
11
84.275400
21
40.722000
0
LINE
8
minute marks
10
84.275400
20
40.722000
11
84.275400
21
40.722000
0
LINE
8
minute marks
10
136.374000
20
39.654400
11
135.368000
21
38.652900
0
LINE
8
minute marks
10
135.368000
20
38.652900
11
136.856000
21
36.969300
0
LINE
8
minute marks
10
136.856000
20
36.969300
11
137.898000
21
38.000200
0
LINE
8
minute marks
10
137.898000
20
38.000200
11
136.374000
21
39.654400
0
LINE
8
minute marks
10
136.374000
20
39.654400
11
136.374000
21
39.654400
0
LINE
8
minute marks
10
90.527700
20
39.024000
11
89.472000
21
38.972300
0
LINE
8
minute marks
10
89.472000
20
38.972300
11
89.472000
21
38.957300
0
LINE
8
minute marks
10
89.472000
20
38.957300
11
90.527700
21
39.020300
0
LINE
8
minute marks
10
90.527700
20
39.020300
11
90.527700
21
39.024000
0
LINE
8
minute marks
10
90.527700
20
39.024000
11
90.527700
21
39.024000
0
LINE
8
minute marks
10
40.062600
20
35.786400
11
38.475600
21
34.063500
0
LINE
8
minute marks
10
38.475600
20
34.063500
11
39.691600
21
33.062100
0
LINE
8
minute marks
10
39.691600
20
33.062100
11
41.235700
21
34.809200
0
LINE
8
minute marks
10
41.235700
20
34.809200
11
40.062600
21
35.786400
0
LINE
8
minute marks
10
40.062600
20
35.786400
11
40.062600
21
35.786400
0
LINE
8
minute marks
10
131.126000
20
34.870700
11
130.023000
21
33.963800
0
LINE
8
minute marks
10
130.023000
20
33.963800
11
131.353000
21
32.102400
0
LINE
8
minute marks
10
131.353000
20
32.102400
11
132.506000
21
33.020200
0
LINE
8
minute marks
10
132.506000
20
33.020200
11
131.126000
21
34.870700
0
LINE
8
minute marks
10
131.126000
20
34.870700
11
131.126000
21
34.870700
0
LINE
8
minute marks
10
46.110300
20
31.165500
11
44.721700
21
29.304100
0
LINE
8
minute marks
10
44.721700
20
29.304100
11
46.034300
21
28.444800
0
LINE
8
minute marks
10
46.034300
20
28.444800
11
47.367600
21
30.310800
0
LINE
8
minute marks
10
47.367600
20
30.310800
11
46.110300
21
31.165500
0
LINE
8
minute marks
10
46.110300
20
31.165500
11
46.110300
21
31.165500
0
LINE
8
minute marks
10
125.039000
20
30.373800
11
124.461000
21
29.992000
0
LINE
8
minute marks
10
124.461000
20
29.992000
11
125.039000
21
30.373800
0
LINE
8
minute marks
10
125.039000
20
30.373800
11
125.039000
21
30.373800
0
LINE
8
minute marks
10
126.470000
20
28.535200
11
125.865000
21
28.115100
0
LINE
8
minute marks
10
125.865000
20
28.115100
11
126.481000
21
28.517100
0
LINE
8
minute marks
10
126.481000
20
28.517100
11
126.470000
21
28.535200
0
LINE
8
minute marks
10
126.470000
20
28.535200
11
126.470000
21
28.535200
0
LINE
8
minute marks
10
125.850000
20
28.105800
11
125.231000
21
27.720300
0
LINE
8
minute marks
10
125.231000
20
27.720300
11
125.239000
21
27.706800
0
LINE
8
minute marks
10
125.239000
20
27.706800
11
125.850000
21
28.105800
0
LINE
8
minute marks
10
125.850000
20
28.105800
11
125.850000
21
28.105800
0
LINE
8
minute marks
10
118.802000
20
26.685700
11
117.512000
21
26.041300
0
LINE
8
minute marks
10
117.512000
20
26.041300
11
118.463000
21
23.829000
0
LINE
8
minute marks
10
118.463000
20
23.829000
11
119.786000
21
24.524100
0
LINE
8
minute marks
10
119.786000
20
24.524100
11
118.802000
21
26.685700
0
LINE
8
minute marks
10
118.802000
20
26.685700
11
118.802000
21
26.685700
0
LINE
8
minute marks
10
51.538900
20
25.179900
11
51.525500
21
25.157100
0
LINE
8
minute marks
10
51.525500
20
25.157100
11
52.206600
21
24.805700
0
LINE
8
minute marks
10
52.206600
20
24.805700
11
51.538900
21
25.179900
0
LINE
8
minute marks
10
51.538900
20
25.179900
11
51.538900
21
25.179900
0
LINE
8
minute marks
10
52.229300
20
24.794300
11
52.914500
21
24.441400
0
LINE
8
minute marks
10
52.914500
20
24.441400
11
52.920700
21
24.452800
0
LINE
8
minute marks
10
52.920700
20
24.452800
11
52.229300
21
24.794300
0
LINE
8
minute marks
10
52.229300
20
24.794300
11
52.229300
21
24.794300
0
LINE
8
minute marks
10
59.868600
20
23.766000
11
58.918300
21
21.675700
0
LINE
8
minute marks
10
58.918300
20
21.675700
11
60.363700
21
21.102600
0
LINE
8
minute marks
10
60.363700
20
21.102600
11
61.269000
21
23.207900
0
LINE
8
minute marks
10
61.269000
20
23.207900
11
59.868600
21
23.766000
0
LINE
8
minute marks
10
59.868600
20
23.766000
11
59.868600
21
23.766000
0
LINE
8
minute marks
10
112.136000
20
23.624900
11
110.778000
21
23.112300
0
LINE
8
minute marks
10
110.778000
20
23.112300
11
111.502000
21
20.784300
0
LINE
8
minute marks
10
111.502000
20
20.784300
11
112.898000
21
21.338200
0
LINE
8
minute marks
10
112.898000
20
21.338200
11
112.136000
21
23.624900
0
LINE
8
minute marks
10
112.136000
20
23.624900
11
112.136000
21
23.624900
0
LINE
8
minute marks
10
105.495000
20
21.355300
11
104.087000
21
20.970800
0
LINE
8
minute marks
10
104.087000
20
20.970800
11
104.574000
21
18.581300
0
LINE
8
minute marks
10
104.574000
20
18.581300
11
106.030000
21
18.985900
0
LINE
8
minute marks
10
106.030000
20
18.985900
11
105.495000
21
21.355300
0
LINE
8
minute marks
10
105.495000
20
21.355300
11
105.495000
21
21.355300
0
LINE
8
minute marks
10
67.085200
20
21.290200
11
66.354500
21
19.099100
0
LINE
8
minute marks
10
66.354500
20
19.099100
11
67.843800
21
18.676400
0
LINE
8
minute marks
10
67.843800
20
18.676400
11
68.532700
21
20.894300
0
LINE
8
minute marks
10
68.532700
20
20.894300
11
67.085200
21
21.290200
0
LINE
8
minute marks
10
67.085200
20
21.290200
11
67.085200
21
21.290200
0
LINE
8
minute marks
10
74.126600
20
19.682000
11
73.612500
21
17.404100
0
LINE
8
minute marks
10
73.612500
20
17.404100
11
75.131200
21
17.138000
0
LINE
8
minute marks
10
75.131200
20
17.138000
11
75.598400
21
19.428300
0
LINE
8
minute marks
10
75.598400
20
19.428300
11
74.126600
21
19.682000
0
LINE
8
minute marks
10
74.126600
20
19.682000
11
74.126600
21
19.682000
0
LINE
8
minute marks
10
98.170600
20
19.668000
11
96.721600
21
19.420500
0
LINE
8
minute marks
10
96.721600
20
19.420500
11
96.950000
21
17.024300
0
LINE
8
minute marks
10
96.950000
20
17.024300
11
98.451800
21
17.247000
0
LINE
8
minute marks
10
98.451800
20
17.247000
11
98.170600
21
19.668000
0
LINE
8
minute marks
10
98.170600
20
19.668000
11
98.170600
21
19.668000
0
LINE
8
minute marks
10
81.724100
20
18.761600
11
81.453300
21
16.431600
0
LINE
8
minute marks
10
81.453300
20
16.431600
11
82.984000
21
16.326600
0
LINE
8
minute marks
10
82.984000
20
16.326600
11
83.207700
21
18.681000
0
LINE
8
minute marks
10
83.207700
20
18.681000
11
81.724100
21
18.761600
0
LINE
8
minute marks
10
81.724100
20
18.761600
11
81.724100
21
18.761600
0
LINE
8
minute marks
10
90.225400
20
18.738400
11
89.909100
21
18.717200
0
LINE
8
minute marks
10
89.909100
20
18.717200
11
90.225400
21
18.738400
0
LINE
8
minute marks
10
90.225400
20
18.738400
11
90.225400
21
18.738400
0
LINE
8
minute marks
10
90.762300
20
16.377300
11
89.237300
21
16.337000
0
LINE
8
minute marks
10
89.237300
20
16.337000
11
89.236800
21
16.313700
0
LINE
8
minute marks
10
89.236800
20
16.313700
11
90.762300
21
16.372100
0
LINE
8
minute marks
10
90.762300
20
16.372100
11
90.762300
21
16.377300
0
LINE
8
minute marks
10
90.762300
20
16.377300
11
90.762300
21
16.377300
0
LINE
8
hour marks
10
90.000100
20
175.005000
11
88.628100
21
174.936000
0
LINE
8
hour marks
10
88.628100
20
174.936000
11
85.593100
21
174.680000
0
LINE
8
hour marks
10
85.593100
20
174.680000
11
85.729000
21
172.072000
0
LINE
8
hour marks
10
85.729000
20
172.072000
11
90.081700
21
172.387000
0
LINE
8
hour marks
10
90.081700
20
172.387000
11
90.000100
21
175.005000
0
LINE
8
hour marks
10
90.000100
20
175.005000
11
90.000100
21
175.005000
0
LINE
8
hour marks
10
52.159500
20
163.911000
11
48.480275
21
161.657875
0
LINE
8
hour marks
10
48.480275
20
161.657875
11
44.926900
21
159.224000
0
LINE
8
hour marks
10
44.926900
20
159.224000
11
46.291700
21
157.129000
0
LINE
8
hour marks
10
46.291700
20
157.129000
11
49.741850
21
159.482875
0
LINE
8
hour marks
10
49.741850
20
159.482875
11
53.311400
21
161.662000
0
LINE
8
hour marks
10
53.311400
20
161.662000
11
52.159500
21
163.911000
0
LINE
8
hour marks
10
52.159500
20
163.911000
11
52.159500
21
163.911000
0
LINE
8
hour marks
10
92.555000
20
152.444000
11
92.322400
21
152.443000
0
LINE
8
hour marks
10
92.322400
20
152.443000
11
88.994000
21
152.286000
0
LINE
8
hour marks
10
88.994000
20
152.286000
11
86.770800
21
152.065000
0
LINE
8
hour marks
10
86.770800
20
152.065000
11
86.881900
21
149.938000
0
LINE
8
hour marks
10
86.881900
20
149.938000
11
89.996625
21
150.227625
0
LINE
8
hour marks
10
89.996625
20
150.227625
11
93.139400
21
150.350000
0
LINE
8
hour marks
10
93.139400
20
150.350000
11
93.248500
21
152.437000
0
LINE
8
hour marks
10
93.248500
20
152.437000
11
92.555000
21
152.444000
0
LINE
8
hour marks
10
92.555000
20
152.444000
11
92.555000
21
152.444000
0
LINE
8
hour marks
10
119.123000
20
146.883000
11
118.197000
21
145.075000
0
LINE
8
hour marks
10
118.197000
20
145.075000
11
121.109125
21
143.668625
0
LINE
8
hour marks
10
121.109125
20
143.668625
11
123.932000
21
142.116000
0
LINE
8
hour marks
10
123.932000
20
142.116000
11
125.045000
21
143.825000
0
LINE
8
hour marks
10
125.045000
20
143.825000
11
122.126000
21
145.429750
0
LINE
8
hour marks
10
122.126000
20
145.429750
11
119.123000
21
146.883000
0
LINE
8
hour marks
10
119.123000
20
146.883000
11
119.123000
21
146.883000
0
LINE
8
hour marks
10
62.453500
20
143.803000
11
59.801950
21
142.120625
0
LINE
8
hour marks
10
59.801950
20
142.120625
11
57.244000
21
140.310000
0
LINE
8
hour marks
10
57.244000
20
140.310000
11
58.359100
21
138.597000
0
LINE
8
hour marks
10
58.359100
20
138.597000
11
60.836438
21
140.337250
0
LINE
8
hour marks
10
60.836438
20
140.337250
11
63.400700
21
141.953000
0
LINE
8
hour marks
10
63.400700
20
141.953000
11
62.453500
21
143.803000
0
LINE
8
hour marks
10
62.453500
20
143.803000
11
62.453500
21
143.803000
0
LINE
8
hour marks
10
21.987200
20
134.283000
11
19.917750
21
130.616125
0
LINE
8
hour marks
10
19.917750
20
130.616125
11
18.037600
21
126.842000
0
LINE
8
hour marks
10
18.037600
20
126.842000
11
20.180600
21
125.745000
0
LINE
8
hour marks
10
20.180600
20
125.745000
11
22.005850
21
129.408750
0
LINE
8
hour marks
10
22.005850
20
129.408750
11
24.015000
21
132.963000
0
LINE
8
hour marks
10
24.015000
20
132.963000
11
21.987200
21
134.283000
0
LINE
8
hour marks
10
21.987200
20
134.283000
11
21.987200
21
134.283000
0
LINE
8
hour marks
10
92.070200
20
129.823000
11
89.359800
21
129.636000
0
LINE
8
hour marks
10
89.359800
20
129.636000
11
87.951100
21
129.414000
0
LINE
8
hour marks
10
87.951100
20
129.414000
11
88.032300
21
127.853000
0
LINE
8
hour marks
10
88.032300
20
127.853000
11
91.988600
21
128.262000
0
LINE
8
hour marks
10
91.988600
20
128.262000
11
92.070200
21
129.823000
0
LINE
8
hour marks
10
92.070200
20
129.823000
11
92.070200
21
129.823000
0
LINE
8
hour marks
10
108.819000
20
126.754000
11
108.137000
21
125.423000
0
LINE
8
hour marks
10
108.137000
20
125.423000
11
111.894000
21
123.630000
0
LINE
8
hour marks
10
111.894000
20
123.630000
11
112.715000
21
124.892000
0
LINE
8
hour marks
10
112.715000
20
124.892000
11
108.819000
21
126.754000
0
LINE
8
hour marks
10
108.819000
20
126.754000
11
108.819000
21
126.754000
0
LINE
8
hour marks
10
145.039000
20
125.835000
11
143.212000
21
124.645000
0
LINE
8
hour marks
10
143.212000
20
124.645000
11
145.103500
21
121.924750
0
LINE
8
hour marks
10
145.103500
20
121.924750
11
146.857000
21
119.110000
0
LINE
8
hour marks
10
146.857000
20
119.110000
11
148.830000
21
120.120000
0
LINE
8
hour marks
10
148.830000
20
120.120000
11
147.005000
21
123.028125
0
LINE
8
hour marks
10
147.005000
20
123.028125
11
145.039000
21
125.835000
0
LINE
8
hour marks
10
145.039000
20
125.835000
11
145.039000
21
125.835000
0
LINE
8
hour marks
10
72.751500
20
123.685000
11
69.560500
21
121.395000
0
LINE
8
hour marks
10
69.560500
20
121.395000
11
70.388400
21
120.125000
0
LINE
8
hour marks
10
70.388400
20
120.125000
11
73.454300
21
122.312000
0
LINE
8
hour marks
10
73.454300
20
122.312000
11
72.751500
21
123.685000
0
LINE
8
hour marks
10
72.751500
20
123.685000
11
72.751500
21
123.685000
0
LINE
8
hour marks
10
40.903400
20
121.965000
11
39.453762
21
119.295000
0
LINE
8
hour marks
10
39.453762
20
119.295000
11
38.142800
21
116.550000
0
LINE
8
hour marks
10
38.142800
20
116.550000
11
39.837300
21
115.683000
0
LINE
8
hour marks
10
39.837300
20
115.683000
11
41.103500
21
118.343125
0
LINE
8
hour marks
10
41.103500
20
118.343125
11
42.503800
21
120.923000
0
LINE
8
hour marks
10
42.503800
20
120.923000
11
40.903400
21
121.965000
0
LINE
8
hour marks
10
40.903400
20
121.965000
11
40.903400
21
121.965000
0
LINE
8
hour marks
10
126.120000
20
113.515000
11
124.732000
21
112.612000
0
LINE
8
hour marks
10
124.732000
20
112.612000
11
127.209000
21
109.051000
0
LINE
8
hour marks
10
127.209000
20
109.051000
11
128.708000
21
109.819000
0
LINE
8
hour marks
10
128.708000
20
109.819000
11
126.120000
21
113.515000
0
LINE
8
hour marks
10
126.120000
20
113.515000
11
126.120000
21
113.515000
0
LINE
8
hour marks
10
59.836100
20
109.637000
11
58.270300
21
106.247000
0
LINE
8
hour marks
10
58.270300
20
106.247000
11
59.486200
21
105.624000
0
LINE
8
hour marks
10
59.486200
20
105.624000
11
60.986400
21
108.888000
0
LINE
8
hour marks
10
60.986400
20
108.888000
11
59.836100
21
109.637000
0
LINE
8
hour marks
10
59.836100
20
109.637000
11
59.836100
21
109.637000
0
LINE
8
hour marks
10
10.602900
20
94.131200
11
10.726400
21
88.719600
0
LINE
8
hour marks
10
10.726400
20
88.719600
11
10.973400
21
85.887200
0
LINE
8
hour marks
10
10.973400
20
85.887200
11
13.510200
21
86.019500
0
LINE
8
hour marks
10
13.510200
20
86.019500
11
13.193612
21
89.993538
0
LINE
8
hour marks
10
13.193612
20
89.993538
11
13.090100
21
94.002000
0
LINE
8
hour marks
10
13.090100
20
94.002000
11
10.602900
21
94.131200
0
LINE
8
hour marks
10
10.602900
20
94.131200
11
10.602900
21
94.131200
0
LINE
8
hour marks
10
157.718000
20
93.523400
11
155.455000
21
93.405100
0
LINE
8
hour marks
10
155.455000
20
93.405100
11
155.754000
21
90.004125
0
LINE
8
hour marks
10
155.754000
20
90.004125
11
155.870000
21
86.573000
0
LINE
8
hour marks
10
155.870000
20
86.573000
11
158.090000
21
86.457200
0
LINE
8
hour marks
10
158.090000
20
86.457200
11
157.949000
21
91.097200
0
LINE
8
hour marks
10
157.949000
20
91.097200
11
157.718000
21
93.523400
0
LINE
8
hour marks
10
157.718000
20
93.523400
11
157.718000
21
93.523400
0
LINE
8
hour marks
10
33.216500
20
92.953500
11
33.375700
21
89.085000
0
LINE
8
hour marks
10
33.375700
20
89.085000
11
33.589100
21
87.065400
0
LINE
8
hour marks
10
33.589100
20
87.065400
11
35.578100
21
87.168800
0
LINE
8
hour marks
10
35.578100
20
87.168800
11
35.298312
21
89.997237
0
LINE
8
hour marks
10
35.298312
20
89.997237
11
35.170400
21
92.851700
0
LINE
8
hour marks
10
35.170400
20
92.851700
11
33.216500
21
92.953500
0
LINE
8
hour marks
10
33.216500
20
92.953500
11
33.216500
21
92.953500
0
LINE
8
hour marks
10
135.063000
20
92.342600
11
133.370000
21
92.254800
0
LINE
8
hour marks
10
133.370000
20
92.254800
11
133.781000
21
87.723300
0
LINE
8
hour marks
10
133.781000
20
87.723300
11
135.477000
21
87.634900
0
LINE
8
hour marks
10
135.477000
20
87.634900
11
135.299000
21
90.731900
0
LINE
8
hour marks
10
135.299000
20
90.731900
11
135.063000
21
92.342600
0
LINE
8
hour marks
10
135.063000
20
92.342600
11
135.063000
21
92.342600
0
LINE
8
hour marks
10
55.870400
20
91.773700
11
56.025400
21
89.450800
0
LINE
8
hour marks
10
56.025400
20
89.450800
11
56.234200
21
88.244700
0
LINE
8
hour marks
10
56.234200
20
88.244700
11
57.662500
21
88.319600
0
LINE
8
hour marks
10
57.662500
20
88.319600
11
57.257900
21
91.700800
0
LINE
8
hour marks
10
57.257900
20
91.700800
11
55.870400
21
91.773700
0
LINE
8
hour marks
10
55.870400
20
91.773700
11
55.870400
21
91.773700
0
LINE
8
hour marks
10
62.583700
20
75.960700
11
61.336200
21
75.322500
0
LINE
8
hour marks
10
61.336200
20
75.322500
11
63.332000
21
72.638900
0
LINE
8
hour marks
10
63.332000
20
72.638900
11
64.481800
21
73.387700
0
LINE
8
hour marks
10
64.481800
20
73.387700
11
62.583700
21
75.960700
0
LINE
8
hour marks
10
62.583700
20
75.960700
11
62.583700
21
75.960700
0
LINE
8
hour marks
10
130.338000
20
69.346100
11
128.255000
21
65.093700
0
LINE
8
hour marks
10
128.255000
20
65.093700
11
129.640000
21
64.191900
0
LINE
8
hour marks
10
129.640000
20
64.191900
11
131.806000
21
68.594700
0
LINE
8
hour marks
10
131.806000
20
68.594700
11
130.338000
21
69.346100
0
LINE
8
hour marks
10
130.338000
20
69.346100
11
130.338000
21
69.346100
0
LINE
8
hour marks
10
42.951800
20
65.911200
11
41.224800
21
65.027000
0
LINE
8
hour marks
10
41.224800
20
65.027000
11
44.418400
21
60.322900
0
LINE
8
hour marks
10
44.418400
20
60.322900
11
46.016800
21
61.364200
0
LINE
8
hour marks
10
46.016800
20
61.364200
11
42.951800
21
65.911200
0
LINE
8
hour marks
10
42.951800
20
65.911200
11
42.951800
21
65.911200
0
LINE
8
hour marks
10
74.121500
20
65.607900
11
73.440900
21
64.563000
0
LINE
8
hour marks
10
73.440900
20
64.563000
11
76.324400
21
63.293800
0
LINE
8
hour marks
10
76.324400
20
63.293800
11
76.893400
21
64.405300
0
LINE
8
hour marks
10
76.893400
20
64.405300
11
74.121500
21
65.607900
0
LINE
8
hour marks
10
74.121500
20
65.607900
11
74.121500
21
65.607900
0
LINE
8
hour marks
10
91.392800
20
63.178500
11
88.586200
21
62.778100
0
LINE
8
hour marks
10
88.586200
20
62.778100
11
88.520600
21
61.518700
0
LINE
8
hour marks
10
88.520600
20
61.518700
11
90.457400
21
61.687700
0
LINE
8
hour marks
10
90.457400
20
61.687700
11
91.460500
21
61.883000
0
LINE
8
hour marks
10
91.460500
20
61.883000
11
91.392800
21
63.178500
0
LINE
8
hour marks
10
91.392800
20
63.178500
11
91.392800
21
63.178500
0
LINE
8
hour marks
10
149.988000
20
59.287300
11
148.442125
21
56.124075
0
LINE
8
hour marks
10
148.442125
20
56.124075
11
146.738000
21
53.058200
0
LINE
8
hour marks
10
146.738000
20
53.058200
11
148.554000
21
51.875400
0
LINE
8
hour marks
10
148.554000
20
51.875400
11
150.313625
21
55.044087
0
LINE
8
hour marks
10
150.313625
20
55.044087
11
151.909000
21
58.303900
0
LINE
8
hour marks
10
151.909000
20
58.303900
11
149.988000
21
59.287300
0
LINE
8
hour marks
10
149.988000
20
59.287300
11
149.988000
21
59.287300
0
LINE
8
hour marks
10
23.332900
20
55.868400
11
21.115400
21
54.733100
0
LINE
8
hour marks
10
21.115400
20
54.733100
11
23.226050
21
51.310838
0
LINE
8
hour marks
10
23.226050
20
51.310838
11
25.503800
21
48.006400
0
LINE
8
hour marks
10
25.503800
20
48.006400
11
27.559500
21
49.344800
0
LINE
8
hour marks
10
27.559500
20
49.344800
11
25.365088
21
52.552000
0
LINE
8
hour marks
10
25.365088
20
52.552000
11
23.332900
21
55.868400
0
LINE
8
hour marks
10
23.332900
20
55.868400
11
23.332900
21
55.868400
0
LINE
8
hour marks
10
115.612000
20
50.659900
11
111.558000
21
47.894200
0
LINE
8
hour marks
10
111.558000
20
47.894200
11
112.390000
21
46.269500
0
LINE
8
hour marks
10
112.390000
20
46.269500
11
116.592000
21
49.155100
0
LINE
8
hour marks
10
116.592000
20
49.155100
11
115.612000
21
50.659900
0
LINE
8
hour marks
10
115.612000
20
50.659900
11
115.612000
21
50.659900
0
LINE
8
hour marks
10
62.085000
20
47.124200
11
61.113000
21
45.631800
0
LINE
8
hour marks
10
61.113000
20
45.631800
11
66.021700
21
43.168400
0
LINE
8
hour marks
10
66.021700
20
43.168400
11
66.831500
21
44.750200
0
LINE
8
hour marks
10
66.831500
20
44.750200
11
62.085000
21
47.124200
0
LINE
8
hour marks
10
62.085000
20
47.124200
11
62.085000
21
47.124200
0
LINE
8
hour marks
10
92.543100
20
41.095200
11
87.435400
21
40.690000
0
LINE
8
hour marks
10
87.435400
20
40.690000
11
87.340800
21
38.869400
0
LINE
8
hour marks
10
87.340800
20
38.869400
11
90.823300
21
39.037900
0
LINE
8
hour marks
10
90.823300
20
39.037900
11
92.639200
21
39.242600
0
LINE
8
hour marks
10
92.639200
20
39.242600
11
92.543100
21
41.095200
0
LINE
8
hour marks
10
92.543100
20
41.095200
11
92.543100
21
41.095200
0
LINE
8
hour marks
10
127.650000
20
32.173700
11
124.686000
21
30.130975
0
LINE
8
hour marks
10
124.686000
20
30.130975
11
121.620000
21
28.238100
0
LINE
8
hour marks
10
121.620000
20
28.238100
11
122.693000
21
26.142600
0
LINE
8
hour marks
10
122.693000
20
26.142600
11
125.858250
21
28.110487
0
LINE
8
hour marks
10
125.858250
20
28.110487
11
128.914000
21
30.232800
0
LINE
8
hour marks
10
128.914000
20
30.232800
11
127.650000
21
32.173700
0
LINE
8
hour marks
10
127.650000
20
32.173700
11
127.650000
21
32.173700
0
LINE
8
hour marks
10
50.049600
20
28.641700
11
48.795900
21
26.716700
0
LINE
8
hour marks
10
48.795900
20
26.716700
11
52.213863
21
24.802138
0
LINE
8
hour marks
10
52.213863
20
24.802138
11
55.730900
21
23.064200
0
LINE
8
hour marks
10
55.730900
20
23.064200
11
56.772700
21
25.099200
0
LINE
8
hour marks
10
56.772700
20
25.099200
11
53.358238
21
26.784800
0
LINE
8
hour marks
10
53.358238
20
26.784800
11
50.049600
21
28.641700
0
LINE
8
hour marks
10
50.049600
20
28.641700
11
50.049600
21
28.641700
0
LINE
8
hour marks
10
93.692400
20
19.027300
11
90.005125
21
18.719613
0
LINE
8
hour marks
10
90.005125
20
18.719613
11
86.285600
21
18.609700
0
LINE
8
hour marks
10
86.285600
20
18.609700
11
86.162600
21
16.255900
0
LINE
8
hour marks
10
86.162600
20
16.255900
11
91.188600
21
16.388700
0
LINE
8
hour marks
10
91.188600
20
16.388700
11
93.817400
21
16.626900
0
LINE
8
hour marks
10
93.817400
20
16.626900
11
93.692400
21
19.027300
0
LINE
8
hour marks
10
93.692400
20
19.027300
11
93.692400
21
19.027300
0
LINE
8
clockface
10
175.005000
20
90.000100
11
174.894394
21
85.625751
0
LINE
8
clockface
10
174.894394
20
85.625751
11
174.566132
21
81.308827
0
LINE
8
clockface
10
174.566132
20
81.308827
11
174.025556
21
77.054668
0
LINE
8
clockface
10
174.025556
20
77.054668
11
173.278006
21
72.868616
0
LINE
8
clockface
10
173.278006
20
72.868616
11
172.328825
21
68.756012
0
LINE
8
clockface
10
172.328825
20
68.756012
11
171.183352
21
64.722196
0
LINE
8
clockface
10
171.183352
20
64.722196
11
169.846929
21
60.772509
0
LINE
8
clockface
10
169.846929
20
60.772509
11
168.324897
21
56.912294
0
LINE
8
clockface
10
168.324897
20
56.912294
11
166.622596
21
53.146889
0
LINE
8
clockface
10
166.622596
20
53.146889
11
164.745368
21
49.481638
0
LINE
8
clockface
10
164.745368
20
49.481638
11
162.698555
21
45.921880
0
LINE
8
clockface
10
162.698555
20
45.921880
11
160.487496
21
42.472957
0
LINE
8
clockface
10
160.487496
20
42.472957
11
158.117533
21
39.140210
0
LINE
8
clockface
10
158.117533
20
39.140210
11
155.594006
21
35.928980
0
LINE
8
clockface
10
155.594006
20
35.928980
11
152.922258
21
32.844607
0
LINE
8
clockface
10
152.922258
20
32.844607
11
150.107629
21
29.892433
0
LINE
8
clockface
10
150.107629
20
29.892433
11
147.155459
21
27.077799
0
LINE
8
clockface
10
147.155459
20
27.077799
11
144.071091
21
24.406046
0
LINE
8
clockface
10
144.071091
20
24.406046
11
140.859864
21
21.882515
0
LINE
8
clockface
10
140.859864
20
21.882515
11
137.527120
21
19.512547
0
LINE
8
clockface
10
137.527120
20
19.512547
11
134.078201
21
17.301483
0
LINE
8
clockface
10
134.078201
20
17.301483
11
130.518446
21
15.254663
0
LINE
8
clockface
10
130.518446
20
15.254663
11
126.853198
21
13.377430
0
LINE
8
clockface
10
126.853198
20
13.377430
11
123.087796
21
11.675124
0
LINE
8
clockface
10
123.087796
20
11.675124
11
119.227583
21
10.153086
0
LINE
8
clockface
10
119.227583
20
10.153086
11
115.277898
21
8.816657
0
LINE
8
clockface
10
115.277898
20
8.816657
11
111.244084
21
7.671178
0
LINE
8
clockface
10
111.244084
20
7.671178
11
107.131481
21
6.721990
0
LINE
8
clockface
10
107.131481
20
6.721990
11
102.945430
21
5.974434
0
LINE
8
clockface
10
102.945430
20
5.974434
11
98.691272
21
5.433851
0
LINE
8
clockface
10
98.691272
20
5.433851
11
94.374349
21
5.105583
0
LINE
8
clockface
10
94.374349
20
5.105583
11
90.000000
21
4.994970
0
LINE
8
clockface
10
90.000000
20
4.994970
11
85.784839
21
5.099439
0
LINE
8
clockface
10
85.784839
20
5.099439
11
81.598286
21
5.410926
0
LINE
8
clockface
10
81.598286
20
5.410926
11
77.447310
21
5.926544
0
LINE
8
clockface
10
77.447310
20
5.926544
11
73.338879
21
6.643407
0
LINE
8
clockface
10
73.338879
20
6.643407
11
69.279958
21
7.558629
0
LINE
8
clockface
10
69.279958
20
7.558629
11
65.277517
21
8.669325
0
LINE
8
clockface
10
65.277517
20
8.669325
11
61.338522
21
9.972608
0
LINE
8
clockface
10
61.338522
20
9.972608
11
57.469940
21
11.465592
0
LINE
8
clockface
10
57.469940
20
11.465592
11
53.678741
21
13.145392
0
LINE
8
clockface
10
53.678741
20
13.145392
11
49.971890
21
15.009120
0
LINE
8
clockface
10
49.971890
20
15.009120
11
46.356355
21
17.053892
0
LINE
8
clockface
10
46.356355
20
17.053892
11
42.839104
21
19.276821
0
LINE
8
clockface
10
42.839104
20
19.276821
11
39.427104
21
21.675021
0
LINE
8
clockface
10
39.427104
20
21.675021
11
36.127323
21
24.245606
0
LINE
8
clockface
10
36.127323
20
24.245606
11
32.946728
21
26.985690
0
LINE
8
clockface
10
32.946728
20
26.985690
11
29.892287
21
29.892387
0
LINE
8
clockface
10
29.892287
20
29.892387
11
26.985590
21
32.946828
0
LINE
8
clockface
10
26.985590
20
32.946828
11
24.245506
21
36.127423
0
LINE
8
clockface
10
24.245506
20
36.127423
11
21.674921
21
39.427204
0
LINE
8
clockface
10
21.674921
20
39.427204
11
19.276721
21
42.839204
0
LINE
8
clockface
10
19.276721
20
42.839204
11
17.053792
21
46.356455
0
LINE
8
clockface
10
17.053792
20
46.356455
11
15.009020
21
49.971990
0
LINE
8
clockface
10
15.009020
20
49.971990
11
13.145292
21
53.678841
0
LINE
8
clockface
10
13.145292
20
53.678841
11
11.465492
21
57.470040
0
LINE
8
clockface
10
11.465492
20
57.470040
11
9.972508
21
61.338622
0
LINE
8
clockface
10
9.972508
20
61.338622
11
8.669225
21
65.277617
0
LINE
8
clockface
10
8.669225
20
65.277617
11
7.558529
21
69.280058
0
LINE
8
clockface
10
7.558529
20
69.280058
11
6.643307
21
73.338979
0
LINE
8
clockface
10
6.643307
20
73.338979
11
5.926444
21
77.447410
0
LINE
8
clockface
10
5.926444
20
77.447410
11
5.410826
21
81.598386
0
LINE
8
clockface
10
5.410826
20
81.598386
11
5.099339
21
85.784939
0
LINE
8
clockface
10
5.099339
20
85.784939
11
4.994870
21
90.000100
0
LINE
8
clockface
10
4.994870
20
90.000100
11
5.105488
21
94.374445
0
LINE
8
clockface
10
5.105488
20
94.374445
11
5.433761
21
98.691365
0
LINE
8
clockface
10
5.433761
20
98.691365
11
5.974348
21
102.945519
0
LINE
8
clockface
10
5.974348
20
102.945519
11
6.721907
21
107.131566
0
LINE
8
clockface
10
6.721907
20
107.131566
11
7.671099
21
111.244165
0
LINE
8
clockface
10
7.671099
20
111.244165
11
8.816581
21
115.277975
0
LINE
8
clockface
10
8.816581
20
115.277975
11
10.153012
21
119.227655
0
LINE
8
clockface
10
10.153012
20
119.227655
11
11.675053
21
123.087864
0
LINE
8
clockface
10
11.675053
20
123.087864
11
13.377361
21
126.853261
0
LINE
8
clockface
10
13.377361
20
126.853261
11
15.254596
21
130.518506
0
LINE
8
clockface
10
15.254596
20
130.518506
11
17.301416
21
134.078256
0
LINE
8
clockface
10
17.301416
20
134.078256
11
19.512482
21
137.527172
0
LINE
8
clockface
10
19.512482
20
137.527172
11
21.882450
21
140.859911
0
LINE
8
clockface
10
21.882450
20
140.859911
11
24.405982
21
144.071134
0
LINE
8
clockface
10
24.405982
20
144.071134
11
27.077735
21
147.155498
0
LINE
8
clockface
10
27.077735
20
147.155498
11
29.892369
21
150.107664
0
LINE
8
clockface
10
29.892369
20
150.107664
11
32.844542
21
152.922290
0
LINE
8
clockface
10
32.844542
20
152.922290
11
35.928914
21
155.594034
0
LINE
8
clockface
10
35.928914
20
155.594034
11
39.140143
21
158.117557
0
LINE
8
clockface
10
39.140143
20
158.117557
11
42.472889
21
160.487517
0
LINE
8
clockface
10
42.472889
20
160.487517
11
45.921811
21
162.698573
0
LINE
8
clockface
10
45.921811
20
162.698573
11
49.481566
21
164.745384
0
LINE
8
clockface
10
49.481566
20
164.745384
11
53.146816
21
166.622609
0
LINE
8
clockface
10
53.146816
20
166.622609
11
56.912218
21
168.324907
0
LINE
8
clockface
10
56.912218
20
168.324907
11
60.772431
21
169.846937
0
LINE
8
clockface
10
60.772431
20
169.846937
11
64.722115
21
171.183358
0
LINE
8
clockface
10
64.722115
20
171.183358
11
68.755928
21
172.328829
0
LINE
8
clockface
10
68.755928
20
172.328829
11
72.868530
21
173.278009
0
LINE
8
clockface
10
72.868530
20
173.278009
11
77.054579
21
174.025557
0
LINE
8
clockface
10
77.054579
20
174.025557
11
81.308734
21
174.566132
0
LINE
8
clockface
10
81.308734
20
174.566132
11
85.625655
21
174.894394
0
LINE
8
clockface
10
85.625655
20
174.894394
11
90.000000
21
175.005000
0
LINE
8
clockface
10
90.000000
20
175.005000
11
94.374340
21
174.894387
0
LINE
8
clockface
10
94.374340
20
174.894387
11
98.691256
21
174.566120
0
LINE
8
clockface
10
98.691256
20
174.566120
11
102.945406
21
174.025539
0
LINE
8
clockface
10
102.945406
20
174.025539
11
107.131450
21
173.277986
0
LINE
8
clockface
10
107.131450
20
173.277986
11
111.244046
21
172.328802
0
LINE
8
clockface
10
111.244046
20
172.328802
11
115.277854
21
171.183327
0
LINE
8
clockface
10
115.277854
20
171.183327
11
119.227533
21
169.846902
0
LINE
8
clockface
10
119.227533
20
169.846902
11
123.087741
21
168.324869
0
LINE
8
clockface
10
123.087741
20
168.324869
11
126.853137
21
166.622569
0
LINE
8
clockface
10
126.853137
20
166.622569
11
130.518381
21
164.745342
0
LINE
8
clockface
10
130.518381
20
164.745342
11
134.078131
21
162.698529
0
LINE
8
clockface
10
134.078131
20
162.698529
11
137.527047
21
160.487472
0
LINE
8
clockface
10
137.527047
20
160.487472
11
140.859788
21
158.117511
0
LINE
8
clockface
10
140.859788
20
158.117511
11
144.071012
21
155.593988
0
LINE
8
clockface
10
144.071012
20
155.593988
11
147.155379
21
152.922243
0
LINE
8
clockface
10
147.155379
20
152.922243
11
150.107547
21
150.107618
0
LINE
8
clockface
10
150.107547
20
150.107618
11
152.922176
21
147.155453
0
LINE
8
clockface
10
152.922176
20
147.155453
11
155.593925
21
144.071089
0
LINE
8
clockface
10
155.593925
20
144.071089
11
158.117452
21
140.859868
0
LINE
8
clockface
10
158.117452
20
140.859868
11
160.487416
21
137.527130
0
LINE
8
clockface
10
160.487416
20
137.527130
11
162.698477
21
134.078217
0
LINE
8
clockface
10
162.698477
20
134.078217
11
164.745294
21
130.518469
0
LINE
8
clockface
10
164.745294
20
130.518469
11
166.622525
21
126.853227
0
LINE
8
clockface
10
166.622525
20
126.853227
11
168.324830
21
123.087833
0
LINE
8
clockface
10
168.324830
20
123.087833
11
169.846868
21
119.227627
0
LINE
8
clockface
10
169.846868
20
119.227627
11
171.183297
21
115.277950
0
LINE
8
clockface
10
171.183297
20
115.277950
11
172.328777
21
111.244143
0
LINE
8
clockface
10
172.328777
20
111.244143
11
173.277966
21
107.131548
0
LINE
8
clockface
10
173.277966
20
107.131548
11
174.025524
21
102.945505
0
LINE
8
clockface
10
174.025524
20
102.945505
11
174.566110
21
98.691356
0
LINE
8
clockface
10
174.566110
20
98.691356
11
174.894382
21
94.374440
0
LINE
8
clockface
10
174.894382
20
94.374440
11
175.005000
21
90.000100
0
LINE
8
clockface
10
175.005000
20
90.000100
11
175.005000
21
90.000100
0
LINE
8
clockface
10
93.950300
20
90.000300
11
93.873689
21
89.225975
0
LINE
8
clockface
10
93.873689
20
89.225975
11
93.649578
21
88.488467
0
LINE
8
clockface
10
93.649578
20
88.488467
11
93.286551
21
87.808500
0
LINE
8
clockface
10
93.286551
20
87.808500
11
92.793193
21
87.206797
0
LINE
8
clockface
10
92.793193
20
87.206797
11
92.191490
21
86.713439
0
LINE
8
clockface
10
92.191490
20
86.713439
11
91.511523
21
86.350412
0
LINE
8
clockface
10
91.511523
20
86.350412
11
90.774015
21
86.126301
0
LINE
8
clockface
10
90.774015
20
86.126301
11
89.999690
21
86.049690
0
LINE
8
clockface
10
89.999690
20
86.049690
11
89.225365
21
86.126301
0
LINE
8
clockface
10
89.225365
20
86.126301
11
88.487857
21
86.350412
0
LINE
8
clockface
10
88.487857
20
86.350412
11
87.807890
21
86.713439
0
LINE
8
clockface
10
87.807890
20
86.713439
11
87.206187
21
87.206797
0
LINE
8
clockface
10
87.206187
20
87.206797
11
86.712829
21
87.808500
0
LINE
8
clockface
10
86.712829
20
87.808500
11
86.349802
21
88.488467
0
LINE
8
clockface
10
86.349802
20
88.488467
11
86.125691
21
89.225975
0
LINE
8
clockface
10
86.125691
20
89.225975
11
86.049080
21
90.000300
0
LINE
8
clockface
10
86.049080
20
90.000300
11
86.125691
21
90.774625
0
LINE
8
clockface
10
86.125691
20
90.774625
11
86.349802
21
91.512133
0
LINE
8
clockface
10
86.349802
20
91.512133
11
86.712829
21
92.192100
0
LINE
8
clockface
10
86.712829
20
92.192100
11
87.206187
21
92.793803
0
LINE
8
clockface
10
87.206187
20
92.793803
11
87.807890
21
93.287161
0
LINE
8
clockface
10
87.807890
20
93.287161
11
88.487857
21
93.650188
0
LINE
8
clockface
10
88.487857
20
93.650188
11
89.225365
21
93.874299
0
LINE
8
clockface
10
89.225365
20
93.874299
11
89.999690
21
93.950910
0
LINE
8
clockface
10
89.999690
20
93.950910
11
90.774015
21
93.874299
0
LINE
8
clockface
10
90.774015
20
93.874299
11
91.511523
21
93.650188
0
LINE
8
clockface
10
91.511523
20
93.650188
11
92.191490
21
93.287161
0
LINE
8
clockface
10
92.191490
20
93.287161
11
92.793193
21
92.793803
0
LINE
8
clockface
10
92.793193
20
92.793803
11
93.286551
21
92.192100
0
LINE
8
clockface
10
93.286551
20
92.192100
11
93.649578
21
91.512133
0
LINE
8
clockface
10
93.649578
20
91.512133
11
93.873689
21
90.774625
0
LINE
8
clockface
10
93.873689
20
90.774625
11
93.950300
21
90.000300
0
LINE
8
clockface
10
93.950300
20
90.000300
11
93.950300
21
90.000300
 0 
ENDSEC
 0 
EOF